SplineFontDB: 3.2
FontName: Krub-ExtraLightItalic
FullName: Krub ExtraLight Italic
FamilyName: Krub ExtraLight
Weight: Light
Copyright: Copyright 2018 The Krub Project Authors (https://github.com/cadsondemak/Krub)
Version: 1.000; ttfautohint (v1.6)
ItalicAngle: -8
UnderlinePosition: -100
UnderlineWidth: 50
Ascent: 800
Descent: 200
InvalidEm: 0
sfntRevision: 0x00010000
LayerCount: 2
Layer: 0 1 "Back" 1
Layer: 1 1 "Fore" 0
XUID: [1021 226 -1497385041 11257232]
StyleMap: 0x0001
FSType: 0
OS2Version: 3
OS2_WeightWidthSlopeOnly: 0
OS2_UseTypoMetrics: 0
CreationTime: 1534948280
ModificationTime: 1627862772
PfmFamily: 81
TTFWeight: 275
TTFWidth: 5
LineGap: 0
VLineGap: 0
Panose: 0 0 3 0 0 0 0 0 0 0
OS2TypoAscent: 1007
OS2TypoAOffset: 0
OS2TypoDescent: -293
OS2TypoDOffset: 0
OS2TypoLinegap: 0
OS2WinAscent: 1232
OS2WinAOffset: 0
OS2WinDescent: 507
OS2WinDOffset: 0
HheadAscent: 1007
HheadAOffset: 0
HheadDescent: -293
HheadDOffset: 0
OS2SubXSize: 650
OS2SubYSize: 600
OS2SubXOff: -11
OS2SubYOff: 75
OS2SupXSize: 650
OS2SupYSize: 600
OS2SupXOff: 49
OS2SupYOff: 350
OS2StrikeYSize: 50
OS2StrikeYPos: 330
OS2CapHeight: 700
OS2XHeight: 550
OS2Vendor: 'CDK '
OS2CodePages: 20010193.00000000
OS2UnicodeRanges: 21000007.00000001.00000000.00000000
Lookup: 1 0 0 "'aalt' Access All Alternates lookup 0" { "'aalt' Access All Alternates lookup 0 subtable"  } ['aalt' ('DFLT' <'dflt' > 'latn' <'CAT ' 'MOL ' 'ROM ' 'dflt' > 'thai' <'dflt' > ) ]
Lookup: 3 0 0 "'aalt' Access All Alternates lookup 1" { "'aalt' Access All Alternates lookup 1 subtable"  } ['aalt' ('DFLT' <'dflt' > 'latn' <'CAT ' 'MOL ' 'ROM ' 'dflt' > 'thai' <'dflt' > ) ]
Lookup: 6 0 0 "'ccmp' Glyph Composition/Decomposition in Latin lookup 2" { "'ccmp' Glyph Composition/Decomposition in Latin lookup 2 contextual 0"  "'ccmp' Glyph Composition/Decomposition in Latin lookup 2 contextual 1"  } ['ccmp' ('latn' <'dflt' > ) ]

StartChar: A
Encoding: 65 65 4
Width: 620
GlyphClass: 2
Flags: W
AnchorPoint: "Anchor-10" 0 0 basechar 0
AnchorPoint: "Anchor-9" 345 660 basechar 0
AnchorPoint: "Anchor-8" 548 0 basechar 0
AnchorPoint: "Anchor-7" 253 0 basechar 0
LayerCount: 2
Fore
SplineSet
484 203 m 1,1,-1
 79 203 l 1,2,3
 36 105 36 105 2 0 c 1,4,-1
 -42 0 l 1,5,6
 24 199 24 199 115 368.5 c 128,-1,7
 206 538 206 538 334 700 c 1,8,-1
 369 700 l 1,9,10
 451 540 451 540 494 370.5 c 128,-1,11
 537 201 537 201 548 0 c 1,12,-1
 504 0 l 1,13,0
 500 100 500 100 484 203 c 1,1,-1
478 243 m 1,14,15
 457 362 457 362 422.5 467 c 128,-1,16
 388 572 388 572 344 652 c 1,17,18
 210 488 210 488 97 243 c 1,19,-1
 478 243 l 1,14,15
EndSplineSet
Substitution2: "Single Substitution lookup 20 subtable" ordfeminine
Substitution2: "'aalt' Access All Alternates lookup 0 subtable" ordfeminine
EndChar

StartChar: AE
Encoding: 198 198 28
Width: 930
GlyphClass: 2
Flags: W
AnchorPoint: "Anchor-10" 0 0 basechar 0
AnchorPoint: "Anchor-9" 566 700 basechar 0
AnchorPoint: "Anchor-8" 0 0 basechar 0
AnchorPoint: "Anchor-7" 408 0 basechar 0
LayerCount: 2
Fore
SplineSet
540 660 m 1,0,-1
 501 383 l 1,1,-1
 829 383 l 1,2,-1
 823 343 l 1,3,-1
 496 343 l 1,4,-1
 453 38 l 1,5,-1
 818 38 l 1,6,7
 818 0 818 0 781 0 c 2,8,-1
 413 0 l 1,9,-1
 442 206 l 1,10,-1
 89 206 l 1,11,12
 35 108 35 108 2 0 c 1,13,-1
 -42 0 l 1,14,15
 25 211 25 211 161.5 397 c 128,-1,16
 298 583 298 583 496 700 c 1,17,-1
 916 700 l 1,18,-1
 910 660 l 1,19,-1
 540 660 l 1,0,-1
448 246 m 1,20,-1
 506 660 l 1,21,-1
 496 660 l 1,22,23
 382 585 382 585 283 477.5 c 128,-1,24
 184 370 184 370 111 246 c 1,25,-1
 448 246 l 1,20,-1
EndSplineSet
EndChar

StartChar: B
Encoding: 66 66 30
Width: 615
GlyphClass: 2
Flags: W
AnchorPoint: "Anchor-10" 0 0 basechar 0
AnchorPoint: "Anchor-9" 343 660 basechar 0
AnchorPoint: "Anchor-8" 0 0 basechar 0
AnchorPoint: "Anchor-7" 251 0 basechar 0
LayerCount: 2
Fore
SplineSet
515 301 m 128,-1,1
 544 266 544 266 544 213 c 0,2,3
 544 106 544 106 475.5 53 c 128,-1,4
 407 0 407 0 269 0 c 2,5,-1
 29 0 l 1,6,-1
 127 700 l 1,7,-1
 357 700 l 2,8,9
 450 700 450 700 503.5 657 c 128,-1,10
 557 614 557 614 557 540 c 0,11,12
 557 469 557 469 523.5 418.5 c 128,-1,13
 490 368 490 368 433 349 c 1,14,0
 486 336 486 336 515 301 c 128,-1,1
122 366 m 1,15,-1
 322 366 l 2,16,17
 420 366 420 366 467 408 c 128,-1,18
 514 450 514 450 514 537 c 0,19,20
 514 595 514 595 471 627.5 c 128,-1,21
 428 660 428 660 351 660 c 2,22,-1
 163 660 l 1,23,-1
 122 366 l 1,15,-1
444 81.5 m 128,-1,25
 502 123 502 123 502 210 c 0,26,27
 502 272 502 272 458.5 300 c 128,-1,28
 415 328 415 328 318 328 c 2,29,-1
 117 328 l 1,30,-1
 76 40 l 1,31,-1
 264 40 l 2,32,24
 386 40 386 40 444 81.5 c 128,-1,25
EndSplineSet
EndChar

StartChar: C
Encoding: 67 67 31
Width: 596
GlyphClass: 2
Flags: W
AnchorPoint: "Anchor-10" 0 0 basechar 0
AnchorPoint: "Anchor-9" 387 660 basechar 0
AnchorPoint: "Anchor-8" 0 0 basechar 0
AnchorPoint: "Anchor-7" 295 0 basechar 0
LayerCount: 2
Fore
SplineSet
105 60.5 m 128,-1,1
 37 131 37 131 37 261 c 0,2,3
 37 398 37 398 79.5 499.5 c 128,-1,4
 122 601 122 601 200.5 655.5 c 128,-1,5
 279 710 279 710 385 710 c 0,6,7
 444 710 444 710 493 690.5 c 128,-1,8
 542 671 542 671 577 633 c 1,9,10
 573 623 573 623 565 616 c 128,-1,11
 557 609 557 609 549 609 c 0,12,13
 538 609 538 609 528 618 c 0,14,15
 497 645 497 645 461 657.5 c 128,-1,16
 425 670 425 670 381 670 c 0,17,18
 293 670 293 670 225 620 c 128,-1,19
 157 570 157 570 119.5 479.5 c 128,-1,20
 82 389 82 389 82 271 c 0,21,22
 82 157 82 157 139 93.5 c 128,-1,23
 196 30 196 30 297 30 c 0,24,25
 429 30 429 30 485 106 c 1,26,27
 504 105 504 105 504 88 c 0,28,29
 504 64 504 64 474 41 c 128,-1,30
 444 18 444 18 395.5 4 c 128,-1,31
 347 -10 347 -10 297 -10 c 0,32,0
 173 -10 173 -10 105 60.5 c 128,-1,1
EndSplineSet
EndChar

StartChar: Ccedilla
Encoding: 199 199 34
Width: 596
GlyphClass: 2
Flags: W
AnchorPoint: "Anchor-10" 0 0 basechar 0
AnchorPoint: "Anchor-9" 0 0 basechar 0
AnchorPoint: "Anchor-8" 0 0 basechar 0
AnchorPoint: "Anchor-7" 265 -214 basechar 0
LayerCount: 2
Fore
SplineSet
493 690.5 m 128,-1,1
 542 671 542 671 577 633 c 1,2,3
 573 623 573 623 565 616 c 128,-1,4
 557 609 557 609 549 609 c 0,5,6
 538 609 538 609 528 618 c 0,7,8
 497 645 497 645 461 657.5 c 128,-1,9
 425 670 425 670 381 670 c 0,10,11
 293 670 293 670 225 620 c 128,-1,12
 157 570 157 570 119.5 479.5 c 128,-1,13
 82 389 82 389 82 271 c 0,14,15
 82 157 82 157 139 93.5 c 128,-1,16
 196 30 196 30 297 30 c 0,17,18
 429 30 429 30 485 106 c 1,19,20
 504 105 504 105 504 88 c 0,21,22
 504 65 504 65 476 43 c 128,-1,23
 448 21 448 21 403 6.5 c 128,-1,24
 358 -8 358 -8 310 -10 c 1,25,-1
 261 -61 l 1,26,27
 277 -59 277 -59 283 -59 c 0,28,29
 318 -59 318 -59 340.5 -76.5 c 128,-1,30
 363 -94 363 -94 363 -126 c 0,31,32
 363 -173 363 -173 323 -201 c 128,-1,33
 283 -229 283 -229 228 -229 c 0,34,35
 185 -229 185 -229 159.5 -220.5 c 128,-1,36
 134 -212 134 -212 134 -195 c 0,37,38
 134 -189 134 -189 139 -179 c 1,39,40
 162 -185 162 -185 182 -189 c 128,-1,41
 202 -193 202 -193 229 -193 c 0,42,43
 273 -193 273 -193 297 -174 c 128,-1,44
 321 -155 321 -155 321 -130 c 0,45,46
 321 -109 321 -109 309 -99.5 c 128,-1,47
 297 -90 297 -90 269 -90 c 0,48,49
 253 -90 253 -90 228 -95 c 1,50,-1
 211 -75 l 1,51,-1
 269 -9 l 1,52,53
 157 -1 157 -1 97 69 c 128,-1,54
 37 139 37 139 37 261 c 0,55,56
 37 398 37 398 79.5 499.5 c 128,-1,57
 122 601 122 601 200.5 655.5 c 128,-1,58
 279 710 279 710 385 710 c 0,59,0
 444 710 444 710 493 690.5 c 128,-1,1
EndSplineSet
EndChar

StartChar: D
Encoding: 68 68 37
Width: 672
GlyphClass: 2
Flags: W
AnchorPoint: "Anchor-10" 0 0 basechar 0
AnchorPoint: "Anchor-9" 370 650 basechar 0
AnchorPoint: "Anchor-8" 0 0 basechar 0
AnchorPoint: "Anchor-7" 279 0 basechar 0
LayerCount: 2
Fore
SplineSet
536.5 624 m 128,-1,1
 613 548 613 548 613 414 c 0,2,3
 613 289 613 289 568 195.5 c 128,-1,4
 523 102 523 102 440 51 c 128,-1,5
 357 0 357 0 246 0 c 2,6,-1
 29 0 l 1,7,-1
 127 700 l 1,8,-1
 324 700 l 2,9,0
 460 700 460 700 536.5 624 c 128,-1,1
414.5 85.5 m 128,-1,11
 489 131 489 131 529 216 c 128,-1,12
 569 301 569 301 569 414 c 0,13,14
 569 531 569 531 506 595.5 c 128,-1,15
 443 660 443 660 328 660 c 2,16,-1
 163 660 l 1,17,-1
 77 40 l 1,18,-1
 241 40 l 2,19,10
 340 40 340 40 414.5 85.5 c 128,-1,11
EndSplineSet
EndChar

StartChar: Eth
Encoding: 208 208 38
Width: 672
GlyphClass: 2
Flags: W
AnchorPoint: "Anchor-10" 0 0 basechar 0
AnchorPoint: "Anchor-9" 370 650 basechar 0
AnchorPoint: "Anchor-8" 0 0 basechar 0
AnchorPoint: "Anchor-7" 279 0 basechar 0
LayerCount: 2
Fore
SplineSet
536.5 624 m 128,-1,1
 613 548 613 548 613 414 c 0,2,3
 613 289 613 289 568 195.5 c 128,-1,4
 523 102 523 102 440 51 c 128,-1,5
 357 0 357 0 246 0 c 2,6,-1
 29 0 l 1,7,-1
 76 338 l 1,8,-1
 -10 338 l 1,9,-1
 -5 374 l 1,10,-1
 81 374 l 1,11,-1
 127 700 l 1,12,-1
 324 700 l 2,13,0
 460 700 460 700 536.5 624 c 128,-1,1
414.5 85.5 m 128,-1,15
 489 131 489 131 529 216 c 128,-1,16
 569 301 569 301 569 414 c 0,17,18
 569 531 569 531 506 595.5 c 128,-1,19
 443 660 443 660 328 660 c 2,20,-1
 163 660 l 1,21,-1
 123 374 l 1,22,-1
 340 374 l 1,23,-1
 335 338 l 1,24,-1
 118 338 l 1,25,-1
 77 40 l 1,26,-1
 241 40 l 2,27,14
 340 40 340 40 414.5 85.5 c 128,-1,15
EndSplineSet
EndChar

StartChar: Dcroat
Encoding: 272 272 40
Width: 672
GlyphClass: 2
Flags: W
AnchorPoint: "Anchor-10" 0 0 basechar 0
AnchorPoint: "Anchor-9" 370 650 basechar 0
AnchorPoint: "Anchor-8" 0 0 basechar 0
AnchorPoint: "Anchor-7" 279 0 basechar 0
LayerCount: 2
Fore
SplineSet
536.5 624 m 128,-1,1
 613 548 613 548 613 414 c 0,2,3
 613 289 613 289 568 195.5 c 128,-1,4
 523 102 523 102 440 51 c 128,-1,5
 357 0 357 0 246 0 c 2,6,-1
 29 0 l 1,7,-1
 76 338 l 1,8,-1
 -10 338 l 1,9,-1
 -5 374 l 1,10,-1
 81 374 l 1,11,-1
 127 700 l 1,12,-1
 324 700 l 2,13,0
 460 700 460 700 536.5 624 c 128,-1,1
414.5 85.5 m 128,-1,15
 489 131 489 131 529 216 c 128,-1,16
 569 301 569 301 569 414 c 0,17,18
 569 531 569 531 506 595.5 c 128,-1,19
 443 660 443 660 328 660 c 2,20,-1
 163 660 l 1,21,-1
 123 374 l 1,22,-1
 340 374 l 1,23,-1
 335 338 l 1,24,-1
 118 338 l 1,25,-1
 77 40 l 1,26,-1
 241 40 l 2,27,14
 340 40 340 40 414.5 85.5 c 128,-1,15
EndSplineSet
EndChar

StartChar: E
Encoding: 69 69 43
Width: 560
GlyphClass: 2
Flags: W
AnchorPoint: "Anchor-10" 0 0 basechar 0
AnchorPoint: "Anchor-9" 317 670 basechar 0
AnchorPoint: "Anchor-8" 442 10 basechar 0
AnchorPoint: "Anchor-7" 223 0 basechar 0
LayerCount: 2
Fore
SplineSet
163 660 m 1,0,-1
 125 388 l 1,1,-1
 453 388 l 1,2,-1
 448 348 l 1,3,-1
 120 348 l 1,4,-1
 77 40 l 1,5,-1
 453 40 l 1,6,7
 450 18 450 18 443 9 c 128,-1,8
 436 0 436 0 420 0 c 2,9,-1
 29 0 l 1,10,-1
 127 700 l 1,11,-1
 545 700 l 1,12,-1
 539 660 l 1,13,-1
 163 660 l 1,0,-1
EndSplineSet
EndChar

StartChar: Eogonek
Encoding: 280 280 59
Width: 560
GlyphClass: 2
Flags: W
AnchorPoint: "Anchor-10" 0 0 basechar 0
AnchorPoint: "Anchor-9" 317 670 basechar 0
AnchorPoint: "Anchor-8" 442 10 basechar 0
AnchorPoint: "Anchor-7" 223 0 basechar 0
LayerCount: 2
Fore
SplineSet
163 660 m 1,0,-1
 125 388 l 1,1,-1
 453 388 l 1,2,-1
 448 348 l 1,3,-1
 120 348 l 1,4,-1
 77 40 l 1,5,-1
 453 40 l 1,6,7
 450 20 450 20 444 11 c 128,-1,8
 438 2 438 2 426 0 c 1,9,10
 387 -25 387 -25 364 -56 c 128,-1,11
 341 -87 341 -87 341 -120 c 0,12,13
 341 -142 341 -142 356.5 -154 c 128,-1,14
 372 -166 372 -166 398 -166 c 0,15,16
 429 -166 429 -166 452 -153 c 1,17,18
 456 -160 456 -160 456 -167 c 0,19,20
 456 -182 456 -182 437.5 -191 c 128,-1,21
 419 -200 419 -200 383 -200 c 0,22,23
 346 -200 346 -200 323 -179.5 c 128,-1,24
 300 -159 300 -159 300 -125 c 0,25,26
 300 -51 300 -51 384 0 c 1,27,-1
 29 0 l 1,28,-1
 127 700 l 1,29,-1
 545 700 l 1,30,-1
 539 660 l 1,31,-1
 163 660 l 1,0,-1
EndSplineSet
EndChar

StartChar: F
Encoding: 70 70 61
Width: 530
GlyphClass: 2
Flags: W
AnchorPoint: "Anchor-10" 0 0 basechar 0
AnchorPoint: "Anchor-9" 327 660 basechar 0
AnchorPoint: "Anchor-8" 0 0 basechar 0
AnchorPoint: "Anchor-7" 65 0 basechar 0
LayerCount: 2
Fore
SplineSet
163 660 m 1,0,-1
 123 373 l 1,1,-1
 450 373 l 1,2,-1
 445 333 l 1,3,-1
 118 333 l 1,4,-1
 71 0 l 1,5,-1
 29 0 l 1,6,-1
 127 700 l 1,7,-1
 539 700 l 1,8,-1
 533 660 l 1,9,-1
 163 660 l 1,0,-1
EndSplineSet
EndChar

StartChar: G
Encoding: 71 71 62
Width: 666
GlyphClass: 2
Flags: W
AnchorPoint: "Anchor-10" 0 0 basechar 0
AnchorPoint: "Anchor-9" 412 660 basechar 0
AnchorPoint: "Anchor-8" 0 0 basechar 0
AnchorPoint: "Anchor-7" 320 0 basechar 0
LayerCount: 2
Fore
SplineSet
543 689.5 m 128,-1,1
 600 669 600 669 632 633 c 1,2,3
 628 623 628 623 619.5 616 c 128,-1,4
 611 609 611 609 604 609 c 0,5,6
 594 609 594 609 583 618 c 0,7,8
 556 641 556 641 517 655.5 c 128,-1,9
 478 670 478 670 411 670 c 0,10,11
 306 670 306 670 234 619 c 128,-1,12
 162 568 162 568 127 482 c 128,-1,13
 92 396 92 396 92 289 c 0,14,15
 92 156 92 156 155.5 93 c 128,-1,16
 219 30 219 30 322 30 c 0,17,18
 388 30 388 30 437 47.5 c 128,-1,19
 486 65 486 65 518 94 c 1,20,-1
 550 323 l 1,21,-1
 373 323 l 2,22,23
 358 323 358 323 352.5 329 c 128,-1,24
 347 335 347 335 347 348 c 0,25,26
 347 357 347 357 348 363 c 1,27,-1
 598 363 l 1,28,-1
 557 71 l 1,29,30
 519 37 519 37 456 13.5 c 128,-1,31
 393 -10 393 -10 318 -10 c 0,32,33
 240 -10 240 -10 179 22.5 c 128,-1,34
 118 55 118 55 83 122 c 128,-1,35
 48 189 48 189 48 288 c 0,36,37
 48 408 48 408 90 503.5 c 128,-1,38
 132 599 132 599 214 654.5 c 128,-1,39
 296 710 296 710 412 710 c 0,40,0
 486 710 486 710 543 689.5 c 128,-1,1
EndSplineSet
EndChar

StartChar: H
Encoding: 72 72 69
Width: 680
GlyphClass: 2
Flags: W
AnchorPoint: "Anchor-10" 0 0 basechar 0
AnchorPoint: "Anchor-9" 374 650 basechar 0
AnchorPoint: "Anchor-8" 0 0 basechar 0
AnchorPoint: "Anchor-7" 283 0 basechar 0
LayerCount: 2
Fore
SplineSet
635 700 m 1,0,-1
 537 0 l 1,1,-1
 493 0 l 1,2,-1
 542 350 l 1,3,-1
 122 350 l 1,4,-1
 73 0 l 1,5,-1
 29 0 l 1,6,-1
 127 700 l 1,7,-1
 171 700 l 1,8,-1
 127 388 l 1,9,-1
 547 388 l 1,10,-1
 591 700 l 1,11,-1
 635 700 l 1,0,-1
EndSplineSet
EndChar

StartChar: Hbar
Encoding: 294 294 70
Width: 680
GlyphClass: 2
Flags: W
AnchorPoint: "Anchor-10" 0 0 basechar 0
AnchorPoint: "Anchor-9" 374 650 basechar 0
AnchorPoint: "Anchor-8" 0 0 basechar 0
AnchorPoint: "Anchor-7" 283 0 basechar 0
LayerCount: 2
Fore
SplineSet
689 544 m 1,0,-1
 613 544 l 1,1,-1
 537 0 l 1,2,-1
 493 0 l 1,3,-1
 542 350 l 1,4,-1
 122 350 l 1,5,-1
 73 0 l 1,6,-1
 29 0 l 1,7,-1
 105 544 l 1,8,-1
 29 544 l 1,9,-1
 35 584 l 1,10,-1
 111 584 l 1,11,-1
 127 700 l 1,12,-1
 171 700 l 1,13,-1
 155 584 l 1,14,-1
 575 584 l 1,15,-1
 591 700 l 1,16,-1
 635 700 l 1,17,-1
 619 584 l 1,18,-1
 695 584 l 1,19,-1
 689 544 l 1,0,-1
569 544 m 1,20,-1
 149 544 l 1,21,-1
 127 388 l 1,22,-1
 547 388 l 1,23,-1
 569 544 l 1,20,-1
EndSplineSet
EndChar

StartChar: I
Encoding: 73 73 74
Width: 350
GlyphClass: 2
Flags: W
AnchorPoint: "Anchor-10" 0 0 basechar 0
AnchorPoint: "Anchor-9" 210 660 basechar 0
AnchorPoint: "Anchor-8" 139 0 basechar 0
AnchorPoint: "Anchor-7" 118 0 basechar 0
LayerCount: 2
Fore
SplineSet
195 700 m 1,0,-1
 237 700 l 1,1,-1
 139 0 l 1,2,-1
 97 0 l 1,3,-1
 195 700 l 1,0,-1
EndSplineSet
EndChar

StartChar: J
Encoding: 74 74 88
Width: 427
GlyphClass: 2
Flags: W
AnchorPoint: "Anchor-10" 0 0 basechar 0
AnchorPoint: "Anchor-9" 338 660 basechar 0
AnchorPoint: "Anchor-8" 0 0 basechar 0
AnchorPoint: "Anchor-7" 157 0 basechar 0
LayerCount: 2
Fore
SplineSet
18 -2 m 128,-1,1
 -13 6 -13 6 -31 17 c 1,2,3
 -26 49 -26 49 -9 49 c 0,4,5
 -6 49 -6 49 16 43 c 0,6,7
 40 36 40 36 57.5 32 c 128,-1,8
 75 28 75 28 96 28 c 0,9,10
 172 28 172 28 213 66.5 c 128,-1,11
 254 105 254 105 265 183 c 2,12,-1
 338 700 l 1,13,-1
 380 700 l 1,14,-1
 307 183 l 2,15,16
 295 92 295 92 239.5 41 c 128,-1,17
 184 -10 184 -10 88 -10 c 0,18,0
 49 -10 49 -10 18 -2 c 128,-1,1
EndSplineSet
EndChar

StartChar: K
Encoding: 75 75 90
Width: 610
GlyphClass: 2
Flags: W
AnchorPoint: "Anchor-10" 0 0 basechar 0
AnchorPoint: "Anchor-9" 340 660 basechar 0
AnchorPoint: "Anchor-8" 0 0 basechar 0
AnchorPoint: "Anchor-7" 258 0 basechar 0
LayerCount: 2
Fore
SplineSet
347 335 m 128,-1,1
 364 316 364 316 380 286 c 2,2,-1
 528 3 l 1,3,4
 517 -8 517 -8 499 -8 c 0,5,6
 489 -8 489 -8 483 -2 c 128,-1,7
 477 4 477 4 468 22 c 2,8,-1
 342 269 l 2,9,10
 326 300 326 300 312 314 c 128,-1,11
 298 328 298 328 277 333.5 c 128,-1,12
 256 339 256 339 217 339 c 2,13,-1
 132 339 l 1,14,-1
 85 0 l 1,15,-1
 43 0 l 1,16,-1
 141 700 l 1,17,-1
 183 700 l 1,18,-1
 138 377 l 1,19,-1
 238 377 l 2,20,21
 251 377 251 377 271 375 c 1,22,-1
 565 700 l 1,23,-1
 618 700 l 1,24,-1
 310 363 l 1,25,0
 330 354 330 354 347 335 c 128,-1,1
EndSplineSet
EndChar

StartChar: L
Encoding: 76 76 92
Width: 513
GlyphClass: 2
Flags: W
AnchorPoint: "Anchor-10" 534 700 basechar 0
AnchorPoint: "Anchor-9" 163 700 basechar 0
AnchorPoint: "Anchor-8" 0 0 basechar 0
AnchorPoint: "Anchor-7" 235 0 basechar 0
LayerCount: 2
Fore
SplineSet
446 38 m 1,0,-1
 441 0 l 1,1,-1
 29 0 l 1,2,-1
 127 700 l 1,3,-1
 169 700 l 1,4,-1
 76 38 l 1,5,-1
 446 38 l 1,0,-1
EndSplineSet
EndChar

StartChar: Lslash
Encoding: 321 321 100
Width: 547
GlyphClass: 2
Flags: W
AnchorPoint: "Anchor-10" 554 700 basechar 0
AnchorPoint: "Anchor-9" 183 700 basechar 0
AnchorPoint: "Anchor-8" 0 0 basechar 0
AnchorPoint: "Anchor-7" 255 0 basechar 0
LayerCount: 2
Fore
SplineSet
466 38 m 1,0,-1
 461 0 l 1,1,-1
 49 0 l 1,2,-1
 98 353 l 1,3,-1
 4 317 l 1,4,-1
 10 356 l 1,5,-1
 104 392 l 1,6,-1
 147 700 l 1,7,-1
 189 700 l 1,8,-1
 148 408 l 1,9,-1
 382 497 l 1,10,-1
 376 458 l 1,11,-1
 143 370 l 1,12,-1
 96 38 l 1,13,-1
 466 38 l 1,0,-1
EndSplineSet
EndChar

StartChar: M
Encoding: 77 77 101
Width: 829
GlyphClass: 2
Flags: W
AnchorPoint: "Anchor-10" 0 0 basechar 0
AnchorPoint: "Anchor-9" 450 660 basechar 0
AnchorPoint: "Anchor-8" 0 0 basechar 0
AnchorPoint: "Anchor-7" 358 0 basechar 0
LayerCount: 2
Fore
SplineSet
720 495 m 0,1,2
 720 276 720 276 696 0 c 1,3,-1
 654 0 l 1,4,5
 681 321 681 321 681 541 c 0,6,7
 681 580 681 580 679 638 c 1,8,9
 589 491 589 491 518.5 356.5 c 128,-1,10
 448 222 448 222 385 80 c 1,11,-1
 353 80 l 1,12,13
 297 368 297 368 211 635 c 1,14,15
 169 497 169 497 128.5 326 c 128,-1,16
 88 155 88 155 61 0 c 1,17,-1
 19 0 l 1,18,19
 54 200 54 200 99 383.5 c 128,-1,20
 144 567 144 567 192 700 c 1,21,-1
 232 700 l 1,22,23
 284 545 284 545 319.5 415 c 128,-1,24
 355 285 355 285 379 158 c 1,25,26
 434 282 434 282 504 411 c 128,-1,27
 574 540 574 540 673 700 c 1,28,-1
 713 700 l 1,29,0
 720 617 720 617 720 495 c 0,1,2
EndSplineSet
EndChar

StartChar: N
Encoding: 78 78 103
Width: 689
GlyphClass: 2
Flags: W
AnchorPoint: "Anchor-10" 0 0 basechar 0
AnchorPoint: "Anchor-9" 378 660 basechar 0
AnchorPoint: "Anchor-8" 0 0 basechar 0
AnchorPoint: "Anchor-7" 286 0 basechar 0
LayerCount: 2
Fore
SplineSet
640 700 m 1,0,-1
 561 137 l 2,1,2
 556 104 556 104 553 74 c 128,-1,3
 550 44 550 44 549 27 c 0,4,5
 549 14 549 14 541 7 c 128,-1,6
 533 0 533 0 520 0 c 2,7,-1
 500 0 l 1,8,-1
 510 74 l 2,9,10
 512 96 512 96 512 101 c 0,11,12
 512 115 512 115 508 125.5 c 128,-1,13
 504 136 504 136 492 153 c 2,14,-1
 161 643 l 1,15,-1
 71 0 l 1,16,-1
 29 0 l 1,17,-1
 127 700 l 1,18,-1
 162 700 l 2,19,20
 169 700 169 700 173 698 c 128,-1,21
 177 696 177 696 182 688 c 2,22,-1
 525 183 l 1,23,-1
 598 700 l 1,24,-1
 640 700 l 1,0,-1
EndSplineSet
EndChar

StartChar: Eng
Encoding: 330 330 109
Width: 685
Flags: W
LayerCount: 2
Fore
SplineSet
640 700 m 1,0,-1
 532 -69 l 2,1,2
 523 -128 523 -128 484.5 -160 c 128,-1,3
 446 -192 446 -192 393 -192 c 0,4,5
 365 -192 365 -192 338.5 -184 c 128,-1,6
 312 -176 312 -176 312 -161 c 0,7,8
 312 -155 312 -155 315.5 -149.5 c 128,-1,9
 319 -144 319 -144 324 -142 c 1,10,11
 354 -158 354 -158 398 -158 c 0,12,13
 435 -158 435 -158 459.5 -136.5 c 128,-1,14
 484 -115 484 -115 490 -68 c 2,15,-1
 510 74 l 2,16,17
 513 91 513 91 513 102 c 0,18,19
 513 115 513 115 508.5 125 c 128,-1,20
 504 135 504 135 492 153 c 2,21,-1
 161 643 l 1,22,-1
 71 0 l 1,23,-1
 29 0 l 1,24,-1
 127 700 l 1,25,-1
 162 700 l 2,26,27
 170 700 170 700 173.5 697.5 c 128,-1,28
 177 695 177 695 182 688 c 2,29,-1
 525 183 l 1,30,-1
 598 700 l 1,31,-1
 640 700 l 1,0,-1
EndSplineSet
EndChar

StartChar: O
Encoding: 79 79 112
Width: 680
GlyphClass: 2
Flags: W
AnchorPoint: "Anchor-10" 515 639 basechar 0
AnchorPoint: "Anchor-9" 375 660 basechar 0
AnchorPoint: "Anchor-8" 386 31 basechar 0
AnchorPoint: "Anchor-7" 283 0 basechar 0
LayerCount: 2
Fore
SplineSet
98.5 63 m 128,-1,1
 33 136 33 136 33 271 c 0,2,3
 33 404 33 404 75.5 503.5 c 128,-1,4
 118 603 118 603 196 656.5 c 128,-1,5
 274 710 274 710 380 710 c 0,6,7
 499 710 499 710 565 636.5 c 128,-1,8
 631 563 631 563 631 431 c 0,9,10
 631 297 631 297 589 197 c 128,-1,11
 547 97 547 97 469 43.5 c 128,-1,12
 391 -10 391 -10 285 -10 c 0,13,0
 164 -10 164 -10 98.5 63 c 128,-1,1
446.5 78 m 128,-1,15
 514 126 514 126 550.5 216 c 128,-1,16
 587 306 587 306 587 428 c 0,17,18
 587 543 587 543 531 606.5 c 128,-1,19
 475 670 475 670 374 670 c 0,20,21
 283 670 283 670 216 622 c 128,-1,22
 149 574 149 574 113 484.5 c 128,-1,23
 77 395 77 395 77 274 c 0,24,25
 77 157 77 157 131.5 93.5 c 128,-1,26
 186 30 186 30 287 30 c 0,27,14
 379 30 379 30 446.5 78 c 128,-1,15
EndSplineSet
Substitution2: "Single Substitution lookup 20 subtable" ordmasculine
Substitution2: "'aalt' Access All Alternates lookup 0 subtable" ordmasculine
EndChar

StartChar: Ohorn
Encoding: 416 416 126
Width: 680
GlyphClass: 2
Flags: W
AnchorPoint: "Anchor-10" 515 639 basechar 0
AnchorPoint: "Anchor-9" 375 660 basechar 0
AnchorPoint: "Anchor-8" 386 31 basechar 0
AnchorPoint: "Anchor-7" 283 0 basechar 0
LayerCount: 2
Fore
SplineSet
632 676 m 128,-1,1
 607 648 607 648 566 635 c 1,2,3
 598 600 598 600 614.5 548 c 128,-1,4
 631 496 631 496 631 431 c 0,5,6
 631 297 631 297 589 197 c 128,-1,7
 547 97 547 97 469 43.5 c 128,-1,8
 391 -10 391 -10 285 -10 c 0,9,10
 164 -10 164 -10 98.5 63 c 128,-1,11
 33 136 33 136 33 271 c 0,12,13
 33 404 33 404 75.5 503.5 c 128,-1,14
 118 603 118 603 196 656.5 c 128,-1,15
 274 710 274 710 380 710 c 0,16,17
 478 710 478 710 541 659 c 1,18,19
 575 667 575 667 598.5 688.5 c 128,-1,20
 622 710 622 710 622 745 c 0,21,22
 622 767 622 767 611.5 779.5 c 128,-1,23
 601 792 601 792 584 796 c 1,24,25
 588 806 588 806 596 812 c 128,-1,26
 604 818 604 818 615 818 c 0,27,28
 636 818 636 818 649.5 800.5 c 128,-1,29
 663 783 663 783 663 757 c 0,30,31
 663 748 663 748 662 743 c 0,32,0
 657 704 657 704 632 676 c 128,-1,1
446.5 78 m 128,-1,34
 514 126 514 126 550.5 216 c 128,-1,35
 587 306 587 306 587 428 c 0,36,37
 587 543 587 543 531 606.5 c 128,-1,38
 475 670 475 670 374 670 c 0,39,40
 283 670 283 670 216 622 c 128,-1,41
 149 574 149 574 113 484.5 c 128,-1,42
 77 395 77 395 77 274 c 0,43,44
 77 157 77 157 131.5 93.5 c 128,-1,45
 186 30 186 30 287 30 c 0,46,33
 379 30 379 30 446.5 78 c 128,-1,34
EndSplineSet
EndChar

StartChar: Oslash
Encoding: 216 216 134
Width: 680
GlyphClass: 2
Flags: W
AnchorPoint: "Anchor-10" 515 639 basechar 0
AnchorPoint: "Anchor-9" 375 660 basechar 0
AnchorPoint: "Anchor-8" 386 31 basechar 0
AnchorPoint: "Anchor-7" 283 0 basechar 0
LayerCount: 2
Fore
SplineSet
573 627 m 1,0,1
 631 555 631 555 631 431 c 0,2,3
 631 297 631 297 589 197 c 128,-1,4
 547 97 547 97 469 43.5 c 128,-1,5
 391 -10 391 -10 285 -10 c 0,6,7
 177 -10 177 -10 113 49 c 1,8,-1
 74 0 l 1,9,-1
 26 0 l 1,10,-1
 87 77 l 1,11,12
 33 150 33 150 33 271 c 0,13,14
 33 404 33 404 75.5 503.5 c 128,-1,15
 118 603 118 603 196 656.5 c 128,-1,16
 274 710 274 710 380 710 c 0,17,18
 483 710 483 710 547 654 c 1,19,-1
 584 701 l 1,20,-1
 632 701 l 1,21,-1
 573 627 l 1,0,1
117 114 m 1,23,-1
 519 619 l 1,24,25
 463 670 463 670 374 670 c 0,26,27
 283 670 283 670 216 622 c 128,-1,28
 149 574 149 574 113 484.5 c 128,-1,29
 77 395 77 395 77 274 c 0,30,22
 77 176 77 176 117 114 c 1,23,-1
544 590 m 1,32,-1
 141 84 l 1,33,34
 195 30 195 30 287 30 c 256,35,36
 379 30 379 30 446.5 78 c 128,-1,37
 514 126 514 126 550.5 216 c 128,-1,38
 587 306 587 306 587 428 c 0,39,31
 587 529 587 529 544 590 c 1,32,-1
EndSplineSet
EndChar

StartChar: OE
Encoding: 338 338 137
Width: 1068
GlyphClass: 2
Flags: W
AnchorPoint: "Anchor-10" 515 639 basechar 0
AnchorPoint: "Anchor-9" 825 670 basechar 0
AnchorPoint: "Anchor-8" 950 10 basechar 0
AnchorPoint: "Anchor-7" 731 0 basechar 0
LayerCount: 2
Fore
SplineSet
671 660 m 1,0,-1
 633 388 l 1,1,-1
 961 388 l 1,2,-1
 956 348 l 1,3,-1
 628 348 l 1,4,-1
 585 40 l 1,5,-1
 961 40 l 1,6,7
 958 18 958 18 951 9 c 128,-1,8
 944 0 944 0 928 0 c 2,9,-1
 537 0 l 1,10,-1
 556 134 l 1,11,12
 511 64 511 64 442 27 c 128,-1,13
 373 -10 373 -10 285 -10 c 0,14,15
 164 -10 164 -10 98.5 63 c 128,-1,16
 33 136 33 136 33 271 c 0,17,18
 33 404 33 404 75.5 503.5 c 128,-1,19
 118 603 118 603 196 656.5 c 128,-1,20
 274 710 274 710 380 710 c 0,21,22
 468 710 468 710 528 668.5 c 128,-1,23
 588 627 588 627 614 549 c 1,24,-1
 635 700 l 1,25,-1
 1053 700 l 1,26,-1
 1047 660 l 1,27,-1
 671 660 l 1,0,-1
446.5 78 m 128,-1,29
 514 126 514 126 550.5 216 c 128,-1,30
 587 306 587 306 587 428 c 0,31,32
 587 543 587 543 531 606.5 c 128,-1,33
 475 670 475 670 374 670 c 0,34,35
 283 670 283 670 216 622 c 128,-1,36
 149 574 149 574 113 484.5 c 128,-1,37
 77 395 77 395 77 274 c 0,38,39
 77 157 77 157 131.5 93.5 c 128,-1,40
 186 30 186 30 287 30 c 0,41,28
 379 30 379 30 446.5 78 c 128,-1,29
EndSplineSet
EndChar

StartChar: P
Encoding: 80 80 138
Width: 615
GlyphClass: 2
Flags: W
AnchorPoint: "Anchor-10" 0 0 basechar 0
AnchorPoint: "Anchor-9" 343 660 basechar 0
AnchorPoint: "Anchor-8" 0 0 basechar 0
AnchorPoint: "Anchor-7" 251 0 basechar 0
LayerCount: 2
Fore
SplineSet
525.5 650 m 128,-1,1
 585 600 585 600 585 498 c 0,2,3
 585 380 585 380 509.5 315.5 c 128,-1,4
 434 251 434 251 297 251 c 2,5,-1
 106 251 l 1,6,-1
 71 0 l 1,7,-1
 29 0 l 1,8,-1
 127 700 l 1,9,-1
 345 700 l 2,10,0
 466 700 466 700 525.5 650 c 128,-1,1
476.5 344.5 m 128,-1,12
 541 398 541 398 541 498 c 0,13,14
 541 583 541 583 493 621.5 c 128,-1,15
 445 660 445 660 339 660 c 2,16,-1
 164 660 l 1,17,-1
 112 291 l 1,18,-1
 293 291 l 2,19,11
 412 291 412 291 476.5 344.5 c 128,-1,12
EndSplineSet
EndChar

StartChar: Thorn
Encoding: 222 222 139
Width: 641
GlyphClass: 2
Flags: W
AnchorPoint: "Anchor-10" 0 0 basechar 0
AnchorPoint: "Anchor-9" 362 700 basechar 0
AnchorPoint: "Anchor-8" 0 0 basechar 0
AnchorPoint: "Anchor-7" 264 0 basechar 0
LayerCount: 2
Fore
SplineSet
524.5 536 m 128,-1,1
 583 484 583 484 583 393 c 0,2,3
 583 262 583 262 510.5 190 c 128,-1,4
 438 118 438 118 296 118 c 2,5,-1
 111 118 l 1,6,-1
 94 0 l 1,7,-1
 52 0 l 1,8,-1
 150 700 l 1,9,-1
 192 700 l 1,10,-1
 176 588 l 1,11,-1
 342 588 l 2,12,0
 466 588 466 588 524.5 536 c 128,-1,1
474.5 219 m 128,-1,14
 539 282 539 282 539 393 c 0,15,16
 539 467 539 467 492.5 508.5 c 128,-1,17
 446 550 446 550 347 550 c 2,18,-1
 171 550 l 1,19,-1
 116 156 l 1,20,-1
 292 156 l 2,21,13
 410 156 410 156 474.5 219 c 128,-1,14
EndSplineSet
EndChar

StartChar: Q
Encoding: 81 81 140
Width: 680
GlyphClass: 2
Flags: W
AnchorPoint: "Anchor-10" 515 639 basechar 0
AnchorPoint: "Anchor-9" 390 660 basechar 0
AnchorPoint: "Anchor-8" 386 31 basechar 0
AnchorPoint: "Anchor-7" 301 0 basechar 0
LayerCount: 2
Fore
SplineSet
571.5 160.5 m 128,-1,1
 512 51 512 51 405 11 c 1,2,3
 429 -30 429 -30 453 -67 c 1,4,5
 446 -82 446 -82 428 -82 c 0,6,7
 418 -82 418 -82 411 -76.5 c 128,-1,8
 404 -71 404 -71 396 -58 c 2,9,-1
 364 -1 l 1,10,11
 327 -10 327 -10 285 -10 c 0,12,13
 164 -10 164 -10 98.5 63 c 128,-1,14
 33 136 33 136 33 271 c 0,15,16
 33 404 33 404 75.5 503.5 c 128,-1,17
 118 603 118 603 196 656.5 c 128,-1,18
 274 710 274 710 380 710 c 0,19,20
 499 710 499 710 565 636.5 c 128,-1,21
 631 563 631 563 631 431 c 0,22,0
 631 270 631 270 571.5 160.5 c 128,-1,1
533.5 180 m 128,-1,24
 587 280 587 280 587 428 c 0,25,26
 587 543 587 543 531 606.5 c 128,-1,27
 475 670 475 670 374 670 c 0,28,29
 283 670 283 670 216 622 c 128,-1,30
 149 574 149 574 113 484.5 c 128,-1,31
 77 395 77 395 77 274 c 0,32,33
 77 157 77 157 131.5 93.5 c 128,-1,34
 186 30 186 30 287 30 c 0,35,36
 314 30 314 30 344 35 c 1,37,-1
 303 113 l 1,38,-1
 284 149 l 1,39,-1
 328 149 l 1,40,-1
 384 46 l 1,41,23
 480 80 480 80 533.5 180 c 128,-1,24
EndSplineSet
EndChar

StartChar: R
Encoding: 82 82 141
Width: 629
GlyphClass: 2
Flags: W
AnchorPoint: "Anchor-10" 0 0 basechar 0
AnchorPoint: "Anchor-9" 348 660 basechar 0
AnchorPoint: "Anchor-8" 0 0 basechar 0
AnchorPoint: "Anchor-7" 258 0 basechar 0
LayerCount: 2
Fore
SplineSet
413 236 m 2,1,-1
 528 3 l 1,2,3
 517 -8 517 -8 499 -8 c 0,4,5
 489 -8 489 -8 483 -2 c 128,-1,6
 477 4 477 4 468 22 c 2,7,-1
 371 216 l 2,8,9
 354 250 354 250 336 267.5 c 128,-1,10
 318 285 318 285 292 292 c 128,-1,11
 266 299 266 299 222 299 c 2,12,-1
 113 299 l 1,13,-1
 71 0 l 1,14,-1
 29 0 l 1,15,-1
 127 700 l 1,16,-1
 354 700 l 2,17,18
 469 700 469 700 528.5 657.5 c 128,-1,19
 588 615 588 615 588 533 c 0,20,21
 588 433 588 433 526 370 c 128,-1,22
 464 307 464 307 363 298 c 1,23,0
 395 274 395 274 413 236 c 2,1,-1
298 337 m 2,24,25
 417 337 417 337 479.5 386 c 128,-1,26
 542 435 542 435 542 528 c 0,27,28
 542 595 542 595 494 627.5 c 128,-1,29
 446 660 446 660 348 660 c 2,30,-1
 164 660 l 1,31,-1
 118 337 l 1,32,-1
 298 337 l 2,24,25
EndSplineSet
EndChar

StartChar: S
Encoding: 83 83 148
Width: 642
GlyphClass: 2
Flags: W
AnchorPoint: "Anchor-10" 0 0 basechar 0
AnchorPoint: "Anchor-9" 356 660 basechar 0
AnchorPoint: "Anchor-8" 0 0 basechar 0
AnchorPoint: "Anchor-7" 264 0 basechar 0
LayerCount: 2
Fore
SplineSet
154 9.5 m 128,-1,1
 97 29 97 29 64.5 63 c 128,-1,2
 32 97 32 97 32 138 c 0,3,4
 32 154 32 154 40.5 163.5 c 128,-1,5
 49 173 49 173 65 175 c 1,6,7
 65 133 65 133 93.5 99.5 c 128,-1,8
 122 66 122 66 171 47 c 128,-1,9
 220 28 220 28 282 28 c 0,10,11
 387 28 387 28 449.5 73 c 128,-1,12
 512 118 512 118 512 193 c 0,13,14
 512 237 512 237 494 264 c 128,-1,15
 476 291 476 291 434 310.5 c 128,-1,16
 392 330 392 330 313 349 c 0,17,18
 205 376 205 376 154.5 418 c 128,-1,19
 104 460 104 460 104 527 c 0,20,21
 104 613 104 613 170 661.5 c 128,-1,22
 236 710 236 710 354 710 c 0,23,24
 449 710 449 710 512 667 c 128,-1,25
 575 624 575 624 587 550 c 1,26,27
 578 540 578 540 567 540 c 0,28,29
 557 540 557 540 550.5 546 c 128,-1,30
 544 552 544 552 539 567 c 0,31,32
 520 619 520 619 472 646.5 c 128,-1,33
 424 674 424 674 353 674 c 0,34,35
 251 674 251 674 199.5 637 c 128,-1,36
 148 600 148 600 148 527 c 0,37,38
 148 475 148 475 189 443.5 c 128,-1,39
 230 412 230 412 328 388 c 0,40,41
 418 366 418 366 466.5 341.5 c 128,-1,42
 515 317 515 317 535.5 282.5 c 128,-1,43
 556 248 556 248 556 193 c 0,44,45
 556 98 556 98 483 44 c 128,-1,46
 410 -10 410 -10 281 -10 c 0,47,0
 211 -10 211 -10 154 9.5 c 128,-1,1
EndSplineSet
EndChar

StartChar: Scedilla
Encoding: 350 350 151
Width: 642
GlyphClass: 2
Flags: W
AnchorPoint: "Anchor-10" 0 0 basechar 0
AnchorPoint: "Anchor-9" 0 0 basechar 0
AnchorPoint: "Anchor-8" 0 0 basechar 0
AnchorPoint: "Anchor-7" 234 -214 basechar 0
LayerCount: 2
Fore
SplineSet
512 667 m 128,-1,1
 575 624 575 624 587 550 c 1,2,3
 578 540 578 540 567 540 c 0,4,5
 557 540 557 540 550.5 546 c 128,-1,6
 544 552 544 552 539 567 c 0,7,8
 520 619 520 619 472 646.5 c 128,-1,9
 424 674 424 674 353 674 c 0,10,11
 251 674 251 674 199.5 637 c 128,-1,12
 148 600 148 600 148 527 c 0,13,14
 148 475 148 475 189 443.5 c 128,-1,15
 230 412 230 412 328 388 c 0,16,17
 418 366 418 366 466.5 341.5 c 128,-1,18
 515 317 515 317 535.5 282.5 c 128,-1,19
 556 248 556 248 556 193 c 0,20,21
 556 98 556 98 483 44 c 128,-1,22
 410 -10 410 -10 281 -10 c 2,23,-1
 279 -10 l 1,24,-1
 230 -61 l 1,25,26
 246 -59 246 -59 252 -59 c 0,27,28
 287 -59 287 -59 309.5 -76.5 c 128,-1,29
 332 -94 332 -94 332 -126 c 0,30,31
 332 -173 332 -173 292 -201 c 128,-1,32
 252 -229 252 -229 197 -229 c 0,33,34
 154 -229 154 -229 128.5 -220.5 c 128,-1,35
 103 -212 103 -212 103 -195 c 0,36,37
 103 -189 103 -189 108 -179 c 1,38,39
 131 -185 131 -185 151 -189 c 128,-1,40
 171 -193 171 -193 198 -193 c 0,41,42
 242 -193 242 -193 266 -174 c 128,-1,43
 290 -155 290 -155 290 -130 c 0,44,45
 290 -109 290 -109 278 -99.5 c 128,-1,46
 266 -90 266 -90 238 -90 c 0,47,48
 222 -90 222 -90 197 -95 c 1,49,-1
 180 -75 l 1,50,-1
 239 -8 l 1,51,52
 179 -3 179 -3 132 17.5 c 128,-1,53
 85 38 85 38 58.5 69.5 c 128,-1,54
 32 101 32 101 32 138 c 0,55,56
 32 154 32 154 40.5 163.5 c 128,-1,57
 49 173 49 173 65 175 c 1,58,59
 65 133 65 133 93.5 99.5 c 128,-1,60
 122 66 122 66 171 47 c 128,-1,61
 220 28 220 28 282 28 c 0,62,63
 387 28 387 28 449.5 73 c 128,-1,64
 512 118 512 118 512 193 c 0,65,66
 512 237 512 237 494 264 c 128,-1,67
 476 291 476 291 434 310.5 c 128,-1,68
 392 330 392 330 313 349 c 0,69,70
 205 376 205 376 154.5 418 c 128,-1,71
 104 460 104 460 104 527 c 0,72,73
 104 613 104 613 170 661.5 c 128,-1,74
 236 710 236 710 354 710 c 0,75,0
 449 710 449 710 512 667 c 128,-1,1
EndSplineSet
Substitution2: "'locl' Localized Forms in Latin lookup 7 subtable" uni0218
Substitution2: "'locl' Localized Forms in Latin lookup 6 subtable" uni0218
Substitution2: "'aalt' Access All Alternates lookup 0 subtable" uni0218
EndChar

StartChar: uni1E9E
Encoding: 7838 7838 156
Width: 700
Flags: W
LayerCount: 2
Fore
SplineSet
535.5 338 m 128,-1,1
 588 297 588 297 588 219 c 0,2,3
 588 150 588 150 555 98 c 128,-1,4
 522 46 522 46 465 18 c 128,-1,5
 408 -10 408 -10 339 -10 c 0,6,7
 280 -10 280 -10 228.5 8.5 c 128,-1,8
 177 27 177 27 177 55 c 0,9,10
 177 63 177 63 182.5 70 c 128,-1,11
 188 77 188 77 196 79 c 1,12,13
 249 28 249 28 339 28 c 0,14,15
 398 28 398 28 444.5 52.5 c 128,-1,16
 491 77 491 77 517.5 120.5 c 128,-1,17
 544 164 544 164 544 217 c 0,18,19
 544 283 544 283 494 315.5 c 128,-1,20
 444 348 444 348 365 348 c 0,21,22
 347 348 347 348 339 358.5 c 128,-1,23
 331 369 331 369 333 386 c 1,24,-1
 549 550 l 1,25,26
 541 604 541 604 492.5 637 c 128,-1,27
 444 670 444 670 362 670 c 0,28,29
 307 670 307 670 257.5 644.5 c 128,-1,30
 208 619 208 619 175.5 573.5 c 128,-1,31
 143 528 143 528 135 469 c 2,32,-1
 69 0 l 1,33,-1
 27 0 l 1,34,-1
 93 469 l 2,35,36
 103 543 103 543 142 597 c 128,-1,37
 181 651 181 651 239 679.5 c 128,-1,38
 297 708 297 708 363 708 c 0,39,40
 431 708 431 708 482.5 685.5 c 128,-1,41
 534 663 534 663 563.5 624.5 c 128,-1,42
 593 586 593 586 597 539 c 1,43,-1
 398 388 l 1,44,0
 483 379 483 379 535.5 338 c 128,-1,1
EndSplineSet
EndChar

StartChar: uni018F
Encoding: 399 399 157
Width: 692
Flags: W
LayerCount: 2
Fore
SplineSet
557.5 640 m 128,-1,1
 632 570 632 570 632 428 c 0,2,3
 632 303 632 303 590.5 203.5 c 128,-1,4
 549 104 549 104 467 47 c 128,-1,5
 385 -10 385 -10 269 -10 c 256,6,7
 153 -10 153 -10 88 49.5 c 128,-1,8
 23 109 23 109 23 235 c 0,9,10
 23 276 23 276 36 363 c 1,11,-1
 584 363 l 1,12,13
 587 392 587 392 587 422 c 0,14,15
 587 546 587 546 524.5 606.5 c 128,-1,16
 462 667 462 667 356 667 c 0,17,18
 293 667 293 667 240 647.5 c 128,-1,19
 187 628 187 628 151 599 c 0,20,21
 136 587 136 587 126 587 c 0,22,23
 118 587 118 587 111 593 c 128,-1,24
 104 599 104 599 93 613 c 1,25,26
 141 653 141 653 213.5 681.5 c 128,-1,27
 286 710 286 710 361 710 c 0,28,0
 483 710 483 710 557.5 640 c 128,-1,1
480.5 108 m 128,-1,30
 558 188 558 188 579 321 c 1,31,-1
 72 321 l 1,32,33
 66 279 66 279 66 244 c 0,34,35
 66 133 66 133 121 80.5 c 128,-1,36
 176 28 176 28 276 28 c 0,37,29
 403 28 403 28 480.5 108 c 128,-1,30
EndSplineSet
EndChar

StartChar: T
Encoding: 84 84 158
Width: 534
GlyphClass: 2
Flags: W
AnchorPoint: "Anchor-10" 0 0 basechar 0
AnchorPoint: "Anchor-9" 303 660 basechar 0
AnchorPoint: "Anchor-8" 0 0 basechar 0
AnchorPoint: "Anchor-7" 211 0 basechar 0
LayerCount: 2
Fore
SplineSet
561 681 m 0,1,2
 560 671 560 671 552.5 665.5 c 128,-1,3
 545 660 545 660 532 660 c 2,4,-1
 327 660 l 1,5,-1
 235 0 l 1,6,-1
 193 0 l 1,7,-1
 285 660 l 1,8,-1
 50 660 l 1,9,-1
 56 700 l 1,10,-1
 560 700 l 1,11,0
 563 689 563 689 561 681 c 0,1,2
EndSplineSet
EndChar

StartChar: Tbar
Encoding: 358 358 159
Width: 533
GlyphClass: 2
Flags: W
AnchorPoint: "Anchor-10" 0 0 basechar 0
AnchorPoint: "Anchor-9" 303 660 basechar 0
AnchorPoint: "Anchor-8" 0 0 basechar 0
AnchorPoint: "Anchor-7" 211 0 basechar 0
LayerCount: 2
Fore
SplineSet
561 681 m 0,1,2
 560 671 560 671 552.5 665.5 c 128,-1,3
 545 660 545 660 532 660 c 2,4,-1
 327 660 l 1,5,-1
 286 363 l 1,6,-1
 428 363 l 1,7,-1
 422 325 l 1,8,-1
 280 325 l 1,9,-1
 235 0 l 1,10,-1
 193 0 l 1,11,-1
 238 325 l 1,12,-1
 90 325 l 1,13,-1
 96 363 l 1,14,-1
 244 363 l 1,15,-1
 285 660 l 1,16,-1
 50 660 l 1,17,-1
 56 700 l 1,18,-1
 560 700 l 1,19,0
 563 689 563 689 561 681 c 0,1,2
EndSplineSet
EndChar

StartChar: U
Encoding: 85 85 165
Width: 708
GlyphClass: 2
Flags: W
AnchorPoint: "Anchor-10" 662 673 basechar 0
AnchorPoint: "Anchor-9" 388 650 basechar 0
AnchorPoint: "Anchor-8" 389 10 basechar 0
AnchorPoint: "Anchor-7" 297 0 basechar 0
LayerCount: 2
Fore
SplineSet
118 39.5 m 128,-1,1
 59 89 59 89 59 190 c 0,2,3
 59 214 59 214 64 251 c 2,4,-1
 127 700 l 1,5,-1
 169 700 l 1,6,-1
 106 251 l 2,7,8
 102 226 102 226 102 199 c 0,9,10
 102 112 102 112 151.5 70 c 128,-1,11
 201 28 201 28 303 28 c 0,12,13
 420 28 420 28 482.5 82 c 128,-1,14
 545 136 545 136 561 251 c 2,15,-1
 624 700 l 1,16,-1
 666 700 l 1,17,-1
 603 251 l 2,18,19
 584 117 584 117 510 53.5 c 128,-1,20
 436 -10 436 -10 297 -10 c 0,21,0
 177 -10 177 -10 118 39.5 c 128,-1,1
EndSplineSet
EndChar

StartChar: Uhorn
Encoding: 431 431 178
Width: 708
GlyphClass: 2
Flags: W
AnchorPoint: "Anchor-10" 662 673 basechar 0
AnchorPoint: "Anchor-9" 388 650 basechar 0
AnchorPoint: "Anchor-8" 389 10 basechar 0
AnchorPoint: "Anchor-7" 297 0 basechar 0
LayerCount: 2
Fore
SplineSet
796.5 834.5 m 128,-1,1
 810 817 810 817 810 791 c 0,2,3
 810 782 810 782 809 777 c 0,4,5
 802 725 802 725 762.5 694.5 c 128,-1,6
 723 664 723 664 660 660 c 1,7,-1
 603 251 l 2,8,9
 584 117 584 117 510 53.5 c 128,-1,10
 436 -10 436 -10 297 -10 c 0,11,12
 177 -10 177 -10 118 39.5 c 128,-1,13
 59 89 59 89 59 190 c 0,14,15
 59 214 59 214 64 251 c 2,16,-1
 127 700 l 1,17,-1
 169 700 l 1,18,-1
 106 251 l 2,19,20
 102 226 102 226 102 199 c 0,21,22
 102 112 102 112 151.5 70 c 128,-1,23
 201 28 201 28 303 28 c 0,24,25
 420 28 420 28 482.5 82 c 128,-1,26
 545 136 545 136 561 251 c 2,27,-1
 624 700 l 1,28,-1
 666 700 l 1,29,-1
 665 690 l 1,30,31
 705 692 705 692 737 714.5 c 128,-1,32
 769 737 769 737 769 779 c 0,33,34
 769 801 769 801 758.5 813.5 c 128,-1,35
 748 826 748 826 731 830 c 1,36,37
 735 840 735 840 743 846 c 128,-1,38
 751 852 751 852 762 852 c 0,39,0
 783 852 783 852 796.5 834.5 c 128,-1,1
EndSplineSet
EndChar

StartChar: Uogonek
Encoding: 370 370 186
Width: 708
GlyphClass: 2
Flags: W
AnchorPoint: "Anchor-10" 662 673 basechar 0
AnchorPoint: "Anchor-9" 388 650 basechar 0
AnchorPoint: "Anchor-8" 389 10 basechar 0
AnchorPoint: "Anchor-7" 297 0 basechar 0
LayerCount: 2
Fore
SplineSet
666 700 m 1,0,-1
 603 251 l 2,1,2
 586 134 586 134 528 71 c 128,-1,3
 470 8 470 8 364 -6 c 1,4,5
 329 -30 329 -30 308.5 -59 c 128,-1,6
 288 -88 288 -88 288 -120 c 0,7,8
 288 -142 288 -142 303.5 -154 c 128,-1,9
 319 -166 319 -166 345 -166 c 0,10,11
 376 -166 376 -166 399 -153 c 1,12,13
 403 -160 403 -160 403 -167 c 0,14,15
 403 -182 403 -182 384.5 -191 c 128,-1,16
 366 -200 366 -200 330 -200 c 0,17,18
 293 -200 293 -200 270 -179.5 c 128,-1,19
 247 -159 247 -159 247 -125 c 0,20,21
 247 -59 247 -59 316 -10 c 1,22,-1
 297 -10 l 2,23,24
 177 -10 177 -10 118 39.5 c 128,-1,25
 59 89 59 89 59 190 c 0,26,27
 59 214 59 214 64 251 c 2,28,-1
 127 700 l 1,29,-1
 169 700 l 1,30,-1
 106 251 l 2,31,32
 102 226 102 226 102 199 c 0,33,34
 102 112 102 112 151.5 70 c 128,-1,35
 201 28 201 28 303 28 c 0,36,37
 420 28 420 28 482.5 82 c 128,-1,38
 545 136 545 136 561 251 c 2,39,-1
 624 700 l 1,40,-1
 666 700 l 1,0,-1
EndSplineSet
EndChar

StartChar: V
Encoding: 86 86 189
Width: 638
GlyphClass: 2
Flags: W
AnchorPoint: "Anchor-10" 0 0 basechar 0
AnchorPoint: "Anchor-9" 354 660 basechar 0
AnchorPoint: "Anchor-8" 0 0 basechar 0
AnchorPoint: "Anchor-7" 262 0 basechar 0
LayerCount: 2
Fore
SplineSet
649 700 m 1,0,1
 584 491 584 491 492 314 c 128,-1,2
 400 137 400 137 285 0 c 1,3,-1
 240 0 l 1,4,5
 162 139 162 139 119 317 c 128,-1,6
 76 495 76 495 71 700 c 1,7,-1
 119 700 l 1,8,9
 123 508 123 508 161 342 c 128,-1,10
 199 176 199 176 269 44 c 1,11,12
 481 304 481 304 601 700 c 1,13,-1
 649 700 l 1,0,1
EndSplineSet
EndChar

StartChar: W
Encoding: 87 87 190
Width: 856
GlyphClass: 2
Flags: W
AnchorPoint: "Anchor-10" 0 0 basechar 0
AnchorPoint: "Anchor-9" 463 660 basechar 0
AnchorPoint: "Anchor-8" 0 0 basechar 0
AnchorPoint: "Anchor-7" 371 0 basechar 0
LayerCount: 2
Fore
SplineSet
882 700 m 1,0,1
 838 542 838 542 769.5 378.5 c 128,-1,2
 701 215 701 215 589 0 c 1,3,-1
 547 0 l 1,4,5
 498 286 498 286 481.5 397.5 c 128,-1,6
 465 509 465 509 459 591 c 1,7,8
 422 492 422 492 365.5 360 c 128,-1,9
 309 228 309 228 205 0 c 1,10,-1
 163 0 l 1,11,12
 109 202 109 202 83.5 369 c 128,-1,13
 58 536 58 536 56 700 c 1,14,-1
 98 700 l 1,15,16
 101 564 101 564 126.5 389.5 c 128,-1,17
 152 215 152 215 191 61 c 1,18,19
 320 331 320 331 461 700 c 1,20,-1
 483 700 l 1,21,22
 530 310 530 310 578 61 c 1,23,24
 658 214 658 214 731 389.5 c 128,-1,25
 804 565 804 565 844 700 c 1,26,-1
 882 700 l 1,0,1
EndSplineSet
EndChar

StartChar: X
Encoding: 88 88 195
Width: 582
GlyphClass: 2
Flags: W
AnchorPoint: "Anchor-10" 0 0 basechar 0
AnchorPoint: "Anchor-9" 336 660 basechar 0
AnchorPoint: "Anchor-8" 0 0 basechar 0
AnchorPoint: "Anchor-7" 244 0 basechar 0
LayerCount: 2
Fore
SplineSet
520 574 m 128,-1,1
 479 517 479 517 433 472.5 c 128,-1,2
 387 428 387 428 315 369 c 1,3,4
 372 310 372 310 409 261.5 c 128,-1,5
 446 213 446 213 472 148 c 128,-1,6
 498 83 498 83 501 0 c 1,7,-1
 454 0 l 1,8,9
 453 73 453 73 429.5 132.5 c 128,-1,10
 406 192 406 192 371 238.5 c 128,-1,11
 336 285 336 285 282 342 c 1,12,13
 213 287 213 287 164.5 239.5 c 128,-1,14
 116 192 116 192 76 132.5 c 128,-1,15
 36 73 36 73 14 0 c 1,16,-1
 -33 0 l 1,17,18
 -7 83 -7 83 37 148 c 128,-1,19
 81 213 81 213 131.5 261.5 c 128,-1,20
 182 310 182 310 256 370 c 1,21,22
 202 427 202 427 167.5 471.5 c 128,-1,23
 133 516 133 516 108.5 573.5 c 128,-1,24
 84 631 84 631 80 700 c 1,25,-1
 125 700 l 1,26,27
 129 636 129 636 152 583 c 128,-1,28
 175 530 175 530 207 489 c 128,-1,29
 239 448 239 448 289 396 c 1,30,31
 387 474 387 474 447 541 c 128,-1,32
 507 608 507 608 539 700 c 1,33,-1
 584 700 l 1,34,0
 561 631 561 631 520 574 c 128,-1,1
EndSplineSet
EndChar

StartChar: Y
Encoding: 89 89 196
Width: 590
GlyphClass: 2
Flags: W
AnchorPoint: "Anchor-10" 0 0 basechar 0
AnchorPoint: "Anchor-9" 330 660 basechar 0
AnchorPoint: "Anchor-8" 0 0 basechar 0
AnchorPoint: "Anchor-7" 238 0 basechar 0
LayerCount: 2
Fore
SplineSet
611 700 m 1,0,-1
 300 294 l 1,1,-1
 259 0 l 1,2,-1
 217 0 l 1,3,-1
 258 294 l 1,4,-1
 61 700 l 1,5,-1
 109 700 l 1,6,-1
 285 323 l 1,7,-1
 564 700 l 1,8,-1
 611 700 l 1,0,-1
EndSplineSet
EndChar

StartChar: Z
Encoding: 90 90 205
Width: 580
GlyphClass: 2
Flags: W
AnchorPoint: "Anchor-10" 0 0 basechar 0
AnchorPoint: "Anchor-9" 325 660 basechar 0
AnchorPoint: "Anchor-8" 0 0 basechar 0
AnchorPoint: "Anchor-7" 233 0 basechar 0
LayerCount: 2
Fore
SplineSet
556 666 m 1,0,-1
 54 40 l 1,1,-1
 476 40 l 1,2,-1
 471 0 l 1,3,-1
 -3 0 l 1,4,-1
 2 40 l 1,5,-1
 506 660 l 1,6,-1
 87 660 l 1,7,-1
 93 700 l 1,8,-1
 561 700 l 1,9,-1
 556 666 l 1,0,-1
EndSplineSet
EndChar

StartChar: a
Encoding: 97 97 210
Width: 558
GlyphClass: 2
Flags: W
AnchorPoint: "Anchor-10" 0 0 basechar 0
AnchorPoint: "Anchor-9" 297 550 basechar 0
AnchorPoint: "Anchor-8" 446 10 basechar 0
AnchorPoint: "Anchor-7" 222 0 basechar 0
LayerCount: 2
Fore
SplineSet
437 127 m 2,0,1
 433 100 433 100 433 77 c 256,2,3
 433 54 433 54 438 40.5 c 128,-1,4
 443 27 443 27 455 17 c 1,5,6
 453 10 453 10 443.5 2.5 c 128,-1,7
 434 -5 434 -5 426 -5 c 0,8,9
 409 -5 409 -5 399.5 16.5 c 128,-1,10
 390 38 390 38 390 74 c 0,11,12
 390 92 390 92 391 101 c 1,13,14
 347 47 347 47 290.5 18.5 c 128,-1,15
 234 -10 234 -10 169 -10 c 0,16,17
 99 -10 99 -10 55.5 31 c 128,-1,18
 12 72 12 72 12 137 c 0,19,20
 12 234 12 234 112.5 284 c 128,-1,21
 213 334 213 334 425 341 c 1,22,-1
 429 373 l 2,23,24
 431 393 431 393 431 402 c 0,25,26
 431 459 431 459 396.5 491.5 c 128,-1,27
 362 524 362 524 299 524 c 0,28,29
 189 524 189 524 97 444 c 0,30,31
 90 439 90 439 85 439 c 0,32,33
 77 439 77 439 69.5 445.5 c 128,-1,34
 62 452 62 452 58 463 c 1,35,36
 108 510 108 510 170.5 535 c 128,-1,37
 233 560 233 560 302 560 c 0,38,39
 384 560 384 560 429 520 c 128,-1,40
 474 480 474 480 474 409 c 0,41,42
 474 391 474 391 471 373 c 2,43,-1
 437 127 l 2,0,1
292 58 m 128,-1,45
 348 90 348 90 399 157 c 1,46,-1
 419 305 l 1,47,48
 230 298 230 298 142 258 c 128,-1,49
 54 218 54 218 54 138 c 0,50,51
 54 89 54 89 86.5 57.5 c 128,-1,52
 119 26 119 26 169 26 c 0,53,44
 236 26 236 26 292 58 c 128,-1,45
EndSplineSet
Substitution2: "Single Substitution lookup 20 subtable" ordfeminine
Substitution2: "'aalt' Access All Alternates lookup 0 subtable" ordfeminine
EndChar

StartChar: uni0251
Encoding: 593 593 229
Width: 604
Flags: W
LayerCount: 2
Fore
SplineSet
499 351 m 2,0,1
 479 210 479 210 470 141 c 128,-1,2
 461 72 461 72 461 52 c 0,3,4
 461 19 461 19 471 8 c 1,5,6
 461 -4 461 -4 443 -4 c 0,7,8
 421 -4 421 -4 421 45 c 0,9,10
 421 55 421 55 422 61 c 1,11,12
 351 -10 351 -10 234 -10 c 0,13,14
 143 -10 143 -10 84.5 49.5 c 128,-1,15
 26 109 26 109 26 225 c 0,16,17
 26 319 26 319 58 395 c 128,-1,18
 90 471 90 471 154.5 515.5 c 128,-1,19
 219 560 219 560 313 560 c 0,20,21
 367 560 367 560 411 543.5 c 128,-1,22
 455 527 455 527 482 502 c 1,23,-1
 489 550 l 1,24,-1
 527 550 l 1,25,-1
 499 351 l 2,0,1
427 111 m 1,27,-1
 463 370 l 1,28,-1
 476 461 l 1,29,30
 441 493 441 493 401.5 509.5 c 128,-1,31
 362 526 362 526 309 526 c 0,32,33
 231 526 231 526 176.5 485.5 c 128,-1,34
 122 445 122 445 94.5 376.5 c 128,-1,35
 67 308 67 308 67 225 c 0,36,37
 67 129 67 129 115 77.5 c 128,-1,38
 163 26 163 26 240 26 c 0,39,26
 350 26 350 26 427 111 c 1,27,-1
EndSplineSet
EndChar

StartChar: aogonek
Encoding: 261 261 231
Width: 558
GlyphClass: 2
Flags: W
AnchorPoint: "Anchor-10" 0 0 basechar 0
AnchorPoint: "Anchor-9" 297 550 basechar 0
AnchorPoint: "Anchor-8" 446 10 basechar 0
AnchorPoint: "Anchor-7" 222 0 basechar 0
LayerCount: 2
Fore
SplineSet
437 127 m 2,0,1
 433 100 433 100 433 77 c 256,2,3
 433 54 433 54 438 40.5 c 128,-1,4
 443 27 443 27 455 17 c 1,5,6
 453 10 453 10 443.5 2.5 c 128,-1,7
 434 -5 434 -5 426 -5 c 2,8,-1
 423 -5 l 1,9,10
 387 -29 387 -29 366 -58.5 c 128,-1,11
 345 -88 345 -88 345 -120 c 0,12,13
 345 -142 345 -142 360.5 -154 c 128,-1,14
 376 -166 376 -166 402 -166 c 0,15,16
 433 -166 433 -166 456 -153 c 1,17,18
 460 -160 460 -160 460 -167 c 0,19,20
 460 -182 460 -182 441.5 -191 c 128,-1,21
 423 -200 423 -200 387 -200 c 0,22,23
 350 -200 350 -200 327 -179.5 c 128,-1,24
 304 -159 304 -159 304 -125 c 0,25,26
 304 -44 304 -44 404 9 c 1,27,28
 390 31 390 31 390 74 c 0,29,30
 390 92 390 92 391 101 c 1,31,32
 347 47 347 47 290.5 18.5 c 128,-1,33
 234 -10 234 -10 169 -10 c 0,34,35
 99 -10 99 -10 55.5 31 c 128,-1,36
 12 72 12 72 12 137 c 0,37,38
 12 234 12 234 112.5 284 c 128,-1,39
 213 334 213 334 425 341 c 1,40,-1
 429 373 l 2,41,42
 431 393 431 393 431 402 c 0,43,44
 431 459 431 459 396.5 491.5 c 128,-1,45
 362 524 362 524 299 524 c 0,46,47
 189 524 189 524 97 444 c 0,48,49
 90 439 90 439 85 439 c 0,50,51
 77 439 77 439 69.5 445.5 c 128,-1,52
 62 452 62 452 58 463 c 1,53,54
 108 510 108 510 170.5 535 c 128,-1,55
 233 560 233 560 302 560 c 0,56,57
 384 560 384 560 429 520 c 128,-1,58
 474 480 474 480 474 409 c 0,59,60
 474 391 474 391 471 373 c 2,61,-1
 437 127 l 2,0,1
292 58 m 128,-1,63
 348 90 348 90 399 157 c 1,64,-1
 419 305 l 1,65,66
 230 298 230 298 142 258 c 128,-1,67
 54 218 54 218 54 138 c 0,68,69
 54 89 54 89 86.5 57.5 c 128,-1,70
 119 26 119 26 169 26 c 0,71,62
 236 26 236 26 292 58 c 128,-1,63
EndSplineSet
EndChar

StartChar: ae
Encoding: 230 230 235
Width: 942
GlyphClass: 2
Flags: W
AnchorPoint: "Anchor-10" 0 0 basechar 0
AnchorPoint: "Anchor-9" 469 550 basechar 0
AnchorPoint: "Anchor-8" 0 0 basechar 0
AnchorPoint: "Anchor-7" 392 0 basechar 0
LayerCount: 2
Fore
SplineSet
461 288 m 1,0,1
 455 251 455 251 455 212 c 0,2,3
 455 117 455 117 502 71.5 c 128,-1,4
 549 26 549 26 624 26 c 0,5,6
 693 26 693 26 736.5 51.5 c 128,-1,7
 780 77 780 77 812 128 c 0,8,9
 819 139 819 139 830 139 c 0,10,11
 843 139 843 139 858 128 c 1,12,13
 821 60 821 60 764 24 c 128,-1,14
 707 -12 707 -12 621 -12 c 0,15,16
 552 -12 552 -12 501.5 20 c 128,-1,17
 451 52 451 52 429 115 c 1,18,19
 382 54 382 54 320 21 c 128,-1,20
 258 -12 258 -12 170 -12 c 0,21,22
 98 -12 98 -12 54 24.5 c 128,-1,23
 10 61 10 61 10 120 c 0,24,25
 10 236 10 236 125 279 c 128,-1,26
 240 322 240 322 426 322 c 1,27,28
 426 324 426 324 427 325 c 0,29,30
 435 388 435 388 435 405 c 0,31,32
 435 469 435 469 396.5 496.5 c 128,-1,33
 358 524 358 524 289 524 c 0,34,35
 186 524 186 524 101 450 c 0,36,37
 90 440 90 440 83 440 c 0,38,39
 72 440 72 440 58 463 c 1,40,41
 102 507 102 507 162.5 533.5 c 128,-1,42
 223 560 223 560 291 560 c 0,43,44
 363 560 363 560 412.5 530 c 128,-1,45
 462 500 462 500 472 437 c 1,46,47
 508 495 508 495 563.5 527.5 c 128,-1,48
 619 560 619 560 692 560 c 0,49,50
 893 560 893 560 893 369 c 0,51,52
 893 338 893 338 881 290 c 1,53,-1
 461 288 l 1,0,1
547 469.5 m 128,-1,55
 490 413 490 413 468 322 c 1,56,-1
 848 324 l 1,57,58
 853 347 853 347 853 369 c 0,59,60
 853 447 853 447 810.5 486.5 c 128,-1,61
 768 526 768 526 690 526 c 0,62,54
 604 526 604 526 547 469.5 c 128,-1,55
318 64 m 128,-1,64
 382 102 382 102 417 167 c 1,65,66
 414 188 414 188 414 211 c 0,67,68
 414 251 414 251 420 288 c 1,69,70
 253 288 253 288 152 253.5 c 128,-1,71
 51 219 51 219 51 128 c 0,72,73
 51 80 51 80 83.5 53 c 128,-1,74
 116 26 116 26 172 26 c 0,75,63
 254 26 254 26 318 64 c 128,-1,64
EndSplineSet
EndChar

StartChar: b
Encoding: 98 98 237
Width: 610
Flags: W
LayerCount: 2
Fore
SplineSet
491 500 m 128,-1,1
 547 440 547 440 547 334 c 256,2,3
 547 228 547 228 512.5 150.5 c 128,-1,4
 478 73 478 73 413 31.5 c 128,-1,5
 348 -10 348 -10 259 -10 c 0,6,7
 205 -10 205 -10 161.5 8 c 128,-1,8
 118 26 118 26 91 59 c 1,9,10
 83 32 83 32 73.5 16 c 128,-1,11
 64 0 64 0 55 0 c 0,12,13
 40 0 40 0 26 12 c 1,14,15
 50 52 50 52 62 132 c 2,16,-1
 155 791 l 1,17,-1
 197 791 l 1,18,-1
 157 504 l 1,19,20
 195 530 195 530 241.5 545 c 128,-1,21
 288 560 288 560 335 560 c 0,22,0
 435 560 435 560 491 500 c 128,-1,1
388.5 65.5 m 128,-1,24
 444 103 444 103 474 172.5 c 128,-1,25
 504 242 504 242 504 335 c 0,26,27
 504 423 504 423 458 473.5 c 128,-1,28
 412 524 412 524 331 524 c 0,29,30
 234 524 234 524 151 461 c 1,31,-1
 101 108 l 1,32,-1
 101 105 l 1,33,34
 128 68 128 68 168.5 48 c 128,-1,35
 209 28 209 28 259 28 c 0,36,23
 333 28 333 28 388.5 65.5 c 128,-1,24
EndSplineSet
EndChar

StartChar: c
Encoding: 99 99 238
Width: 547
GlyphClass: 2
Flags: W
AnchorPoint: "Anchor-10" 0 0 basechar 0
AnchorPoint: "Anchor-9" 307 550 basechar 0
AnchorPoint: "Anchor-8" 0 0 basechar 0
AnchorPoint: "Anchor-7" 230 0 basechar 0
LayerCount: 2
Fore
SplineSet
79.5 55.5 m 128,-1,1
 17 121 17 121 17 237 c 0,2,3
 17 332 17 332 52.5 405.5 c 128,-1,4
 88 479 88 479 152.5 519.5 c 128,-1,5
 217 560 217 560 300 560 c 0,6,7
 394 560 394 560 444.5 516.5 c 128,-1,8
 495 473 495 473 500 387 c 1,9,10
 488 378 488 378 476 378 c 0,11,12
 467 378 467 378 461.5 383 c 128,-1,13
 456 388 456 388 453 405 c 0,14,15
 442 466 442 466 403.5 495 c 128,-1,16
 365 524 365 524 295 524 c 0,17,18
 228 524 228 524 174.5 488 c 128,-1,19
 121 452 121 452 90.5 387.5 c 128,-1,20
 60 323 60 323 60 243 c 0,21,22
 60 141 60 141 110.5 84.5 c 128,-1,23
 161 28 161 28 252 28 c 0,24,25
 313 28 313 28 352.5 49 c 128,-1,26
 392 70 392 70 426 120 c 1,27,28
 436 120 436 120 442 115 c 128,-1,29
 448 110 448 110 448 101 c 0,30,31
 448 73 448 73 420 47.5 c 128,-1,32
 392 22 392 22 346.5 6 c 128,-1,33
 301 -10 301 -10 252 -10 c 0,34,0
 142 -10 142 -10 79.5 55.5 c 128,-1,1
EndSplineSet
EndChar

StartChar: ccedilla
Encoding: 231 231 241
Width: 547
GlyphClass: 2
Flags: W
AnchorPoint: "Anchor-10" 0 0 basechar 0
AnchorPoint: "Anchor-9" 0 0 basechar 0
AnchorPoint: "Anchor-8" 0 0 basechar 0
AnchorPoint: "Anchor-7" 200 -214 basechar 0
LayerCount: 2
Fore
SplineSet
444.5 516.5 m 128,-1,1
 495 473 495 473 500 387 c 1,2,3
 488 378 488 378 476 378 c 0,4,5
 467 378 467 378 461.5 383 c 128,-1,6
 456 388 456 388 453 405 c 0,7,8
 442 466 442 466 403.5 495 c 128,-1,9
 365 524 365 524 295 524 c 0,10,11
 228 524 228 524 174.5 488 c 128,-1,12
 121 452 121 452 90.5 387.5 c 128,-1,13
 60 323 60 323 60 243 c 0,14,15
 60 141 60 141 110.5 84.5 c 128,-1,16
 161 28 161 28 252 28 c 0,17,18
 313 28 313 28 352.5 49 c 128,-1,19
 392 70 392 70 426 120 c 1,20,21
 436 120 436 120 442 115 c 128,-1,22
 448 110 448 110 448 101 c 0,23,24
 448 73 448 73 420 47.5 c 128,-1,25
 392 22 392 22 346.5 6 c 128,-1,26
 301 -10 301 -10 252 -10 c 2,27,-1
 245 -10 l 1,28,-1
 196 -61 l 1,29,30
 212 -59 212 -59 218 -59 c 0,31,32
 253 -59 253 -59 275.5 -76.5 c 128,-1,33
 298 -94 298 -94 298 -126 c 0,34,35
 298 -173 298 -173 258 -201 c 128,-1,36
 218 -229 218 -229 163 -229 c 0,37,38
 120 -229 120 -229 94.5 -220.5 c 128,-1,39
 69 -212 69 -212 69 -195 c 0,40,41
 69 -189 69 -189 74 -179 c 1,42,43
 97 -185 97 -185 117 -189 c 128,-1,44
 137 -193 137 -193 164 -193 c 0,45,46
 208 -193 208 -193 232 -174 c 128,-1,47
 256 -155 256 -155 256 -130 c 0,48,49
 256 -109 256 -109 244 -99.5 c 128,-1,50
 232 -90 232 -90 204 -90 c 0,51,52
 188 -90 188 -90 163 -95 c 1,53,-1
 146 -75 l 1,54,-1
 206 -7 l 1,55,56
 117 7 117 7 67 71 c 128,-1,57
 17 135 17 135 17 237 c 0,58,59
 17 332 17 332 52.5 405.5 c 128,-1,60
 88 479 88 479 152.5 519.5 c 128,-1,61
 217 560 217 560 300 560 c 0,62,0
 394 560 394 560 444.5 516.5 c 128,-1,1
EndSplineSet
EndChar

StartChar: d
Encoding: 100 100 244
Width: 598
GlyphClass: 2
Flags: W
AnchorPoint: "Anchor-10" 598 550 basechar 0
AnchorPoint: "Anchor-9" 347 750 basechar 0
AnchorPoint: "Anchor-8" 0 0 basechar 0
AnchorPoint: "Anchor-7" 242 0 basechar 0
LayerCount: 2
Fore
SplineSet
468 128 m 2,0,1
 460 75 460 75 460 43 c 0,2,3
 460 26 460 26 465 8 c 1,4,5
 461 3 461 3 453 -0.5 c 128,-1,6
 445 -4 445 -4 438 -4 c 0,7,8
 416 -4 416 -4 416 41 c 0,9,10
 416 54 416 54 418 65 c 1,11,12
 382 30 382 30 331.5 10 c 128,-1,13
 281 -10 281 -10 226 -10 c 0,14,15
 133 -10 133 -10 79.5 53 c 128,-1,16
 26 116 26 116 26 225 c 0,17,18
 26 327 26 327 60.5 402.5 c 128,-1,19
 95 478 95 478 159.5 519 c 128,-1,20
 224 560 224 560 311 560 c 0,21,22
 360 560 360 560 404 545.5 c 128,-1,23
 448 531 448 531 479 505 c 1,24,-1
 519 791 l 1,25,-1
 561 791 l 1,26,-1
 468 128 l 2,0,1
473 462 m 1,27,28
 435 495 435 495 396.5 509.5 c 128,-1,29
 358 524 358 524 308 524 c 0,30,31
 238 524 238 524 183.5 486.5 c 128,-1,32
 129 449 129 449 99 381.5 c 128,-1,33
 69 314 69 314 69 226 c 0,34,35
 69 133 69 133 112 80.5 c 128,-1,36
 155 28 155 28 231 28 c 0,37,38
 286 28 286 28 336 50 c 128,-1,39
 386 72 386 72 424 112 c 1,40,-1
 473 462 l 1,27,28
EndSplineSet
EndChar

StartChar: eth
Encoding: 240 240 245
Width: 547
Flags: W
LayerCount: 2
Fore
SplineSet
465 540.5 m 128,-1,1
 495 454 495 454 495 349 c 0,2,3
 495 181 495 181 429 84.5 c 128,-1,4
 363 -12 363 -12 229 -12 c 0,5,6
 120 -12 120 -12 68 53 c 128,-1,7
 16 118 16 118 16 217 c 0,8,9
 16 315 16 315 47.5 393 c 128,-1,10
 79 471 79 471 142 515.5 c 128,-1,11
 205 560 205 560 295 560 c 0,12,13
 382 560 382 560 434 505 c 1,14,15
 419 550 419 550 392 594.5 c 128,-1,16
 365 639 365 639 328 677 c 1,17,-1
 201 605 l 1,18,-1
 181 636 l 1,19,-1
 299 703 l 1,20,21
 259 739 259 739 212 762 c 1,22,-1
 242 794 l 1,23,24
 298 760 298 760 337 725 c 1,25,-1
 460 795 l 1,26,-1
 479 763 l 1,27,-1
 365 698 l 1,28,0
 435 627 435 627 465 540.5 c 128,-1,1
397.5 109.5 m 128,-1,30
 453 193 453 193 453 327 c 0,31,32
 453 413 453 413 413 467.5 c 128,-1,33
 373 522 373 522 290 522 c 0,34,35
 214 522 214 522 161.5 482 c 128,-1,36
 109 442 109 442 82.5 373.5 c 128,-1,37
 56 305 56 305 56 219 c 256,38,39
 56 133 56 133 100.5 79.5 c 128,-1,40
 145 26 145 26 230 26 c 0,41,29
 342 26 342 26 397.5 109.5 c 128,-1,30
EndSplineSet
EndChar

StartChar: dcroat
Encoding: 273 273 247
Width: 602
GlyphClass: 2
Flags: W
AnchorPoint: "Anchor-10" 598 550 basechar 0
AnchorPoint: "Anchor-9" 347 750 basechar 0
AnchorPoint: "Anchor-8" 0 0 basechar 0
AnchorPoint: "Anchor-7" 242 0 basechar 0
LayerCount: 2
Fore
SplineSet
639 670 m 1,0,-1
 544 670 l 1,1,-1
 468 128 l 2,2,3
 460 75 460 75 460 43 c 0,4,5
 460 26 460 26 465 8 c 1,6,7
 461 3 461 3 453 -0.5 c 128,-1,8
 445 -4 445 -4 438 -4 c 0,9,10
 416 -4 416 -4 416 41 c 0,11,12
 416 54 416 54 418 65 c 1,13,14
 382 30 382 30 331.5 10 c 128,-1,15
 281 -10 281 -10 226 -10 c 0,16,17
 133 -10 133 -10 79.5 53 c 128,-1,18
 26 116 26 116 26 225 c 0,19,20
 26 327 26 327 60.5 402.5 c 128,-1,21
 95 478 95 478 159.5 519 c 128,-1,22
 224 560 224 560 311 560 c 0,23,24
 360 560 360 560 404 545.5 c 128,-1,25
 448 531 448 531 479 505 c 1,26,-1
 502 670 l 1,27,-1
 328 670 l 1,28,-1
 332 700 l 1,29,-1
 506 700 l 1,30,-1
 519 791 l 1,31,-1
 561 791 l 1,32,-1
 548 700 l 1,33,-1
 643 700 l 1,34,-1
 639 670 l 1,0,-1
473 462 m 1,35,36
 435 495 435 495 396.5 509.5 c 128,-1,37
 358 524 358 524 308 524 c 0,38,39
 238 524 238 524 183.5 486.5 c 128,-1,40
 129 449 129 449 99 381.5 c 128,-1,41
 69 314 69 314 69 226 c 0,42,43
 69 133 69 133 112 80.5 c 128,-1,44
 155 28 155 28 231 28 c 0,45,46
 286 28 286 28 336 50 c 128,-1,47
 386 72 386 72 424 112 c 1,48,-1
 473 462 l 1,35,36
EndSplineSet
EndChar

StartChar: e
Encoding: 101 101 250
Width: 560
GlyphClass: 2
Flags: W
AnchorPoint: "Anchor-10" 0 0 basechar 0
AnchorPoint: "Anchor-9" 306 550 basechar 0
AnchorPoint: "Anchor-8" 335 10 basechar 0
AnchorPoint: "Anchor-7" 233 0 basechar 0
LayerCount: 2
Fore
SplineSet
72 268 m 1,0,1
 70 240 70 240 70 225 c 0,2,3
 70 133 70 133 116.5 80.5 c 128,-1,4
 163 28 163 28 244 28 c 0,5,6
 302 28 302 28 345 50.5 c 128,-1,7
 388 73 388 73 410 115 c 0,8,9
 420 135 420 135 438 135 c 0,10,11
 454 135 454 135 465 124 c 1,12,13
 431 56 431 56 375.5 23 c 128,-1,14
 320 -10 320 -10 240 -10 c 0,15,16
 140 -10 140 -10 83 52 c 128,-1,17
 26 114 26 114 26 223 c 0,18,19
 26 322 26 322 61.5 398.5 c 128,-1,20
 97 475 97 475 160 517.5 c 128,-1,21
 223 560 223 560 305 560 c 0,22,23
 404 560 404 560 455.5 508.5 c 128,-1,24
 507 457 507 457 507 359 c 0,25,26
 507 325 507 325 499 268 c 1,27,-1
 72 268 l 1,0,1
156.5 463.5 m 128,-1,29
 96 405 96 405 77 306 c 1,30,-1
 458 306 l 1,31,32
 463 334 463 334 463 358 c 0,33,34
 463 439 463 439 422.5 480.5 c 128,-1,35
 382 522 382 522 302 522 c 0,36,28
 217 522 217 522 156.5 463.5 c 128,-1,29
EndSplineSet
EndChar

StartChar: eogonek
Encoding: 281 281 266
Width: 560
GlyphClass: 2
Flags: W
AnchorPoint: "Anchor-10" 0 0 basechar 0
AnchorPoint: "Anchor-9" 306 550 basechar 0
AnchorPoint: "Anchor-8" 335 10 basechar 0
AnchorPoint: "Anchor-7" 233 0 basechar 0
LayerCount: 2
Fore
SplineSet
72 268 m 1,0,1
 70 240 70 240 70 225 c 0,2,3
 70 133 70 133 116.5 80.5 c 128,-1,4
 163 28 163 28 244 28 c 0,5,6
 302 28 302 28 345 50.5 c 128,-1,7
 388 73 388 73 410 115 c 0,8,9
 420 135 420 135 438 135 c 0,10,11
 454 135 454 135 465 124 c 1,12,13
 415 24 415 24 317 -1 c 1,14,15
 279 -26 279 -26 256.5 -56.5 c 128,-1,16
 234 -87 234 -87 234 -120 c 0,17,18
 234 -142 234 -142 249.5 -154 c 128,-1,19
 265 -166 265 -166 291 -166 c 0,20,21
 322 -166 322 -166 345 -153 c 1,22,23
 349 -160 349 -160 349 -167 c 0,24,25
 349 -182 349 -182 330.5 -191 c 128,-1,26
 312 -200 312 -200 276 -200 c 0,27,28
 239 -200 239 -200 216 -179.5 c 128,-1,29
 193 -159 193 -159 193 -125 c 0,30,31
 193 -58 193 -58 262 -9 c 1,32,33
 255 -10 255 -10 240 -10 c 0,34,35
 140 -10 140 -10 83 52 c 128,-1,36
 26 114 26 114 26 223 c 0,37,38
 26 322 26 322 61.5 398.5 c 128,-1,39
 97 475 97 475 160 517.5 c 128,-1,40
 223 560 223 560 305 560 c 0,41,42
 404 560 404 560 455.5 508.5 c 128,-1,43
 507 457 507 457 507 359 c 0,44,45
 507 325 507 325 499 268 c 1,46,-1
 72 268 l 1,0,1
156.5 463.5 m 128,-1,48
 96 405 96 405 77 306 c 1,49,-1
 458 306 l 1,50,51
 463 334 463 334 463 358 c 0,52,53
 463 439 463 439 422.5 480.5 c 128,-1,54
 382 522 382 522 302 522 c 0,55,47
 217 522 217 522 156.5 463.5 c 128,-1,48
EndSplineSet
EndChar

StartChar: uni0259
Encoding: 601 601 268
Width: 560
GlyphClass: 2
Flags: W
AnchorPoint: "Anchor-10" 0 0 basechar 0
AnchorPoint: "Anchor-9" 327 550 basechar 0
AnchorPoint: "Anchor-8" 225 540 basechar 0
AnchorPoint: "Anchor-7" 254 0 basechar 0
LayerCount: 2
Fore
SplineSet
477 498 m 128,-1,1
 534 436 534 436 534 327 c 0,2,3
 534 228 534 228 498.5 151.5 c 128,-1,4
 463 75 463 75 400 32.5 c 128,-1,5
 337 -10 337 -10 255 -10 c 0,6,7
 156 -10 156 -10 104.5 41.5 c 128,-1,8
 53 93 53 93 53 191 c 0,9,10
 53 225 53 225 61 282 c 1,11,-1
 488 282 l 1,12,13
 490 310 490 310 490 325 c 0,14,15
 490 417 490 417 443.5 469.5 c 128,-1,16
 397 522 397 522 316 522 c 0,17,18
 258 522 258 522 215 499.5 c 128,-1,19
 172 477 172 477 150 435 c 0,20,21
 140 415 140 415 122 415 c 0,22,23
 106 415 106 415 95 426 c 1,24,25
 129 494 129 494 184.5 527 c 128,-1,26
 240 560 240 560 320 560 c 0,27,0
 420 560 420 560 477 498 c 128,-1,1
403.5 86.5 m 128,-1,29
 464 145 464 145 483 244 c 1,30,-1
 102 244 l 1,31,32
 97 216 97 216 97 192 c 0,33,34
 97 111 97 111 137.5 69.5 c 128,-1,35
 178 28 178 28 258 28 c 0,36,28
 343 28 343 28 403.5 86.5 c 128,-1,29
EndSplineSet
EndChar

StartChar: f
Encoding: 102 102 269
Width: 335
Flags: W
LayerCount: 2
Fore
SplineSet
375 772.5 m 128,-1,1
 397 763 397 763 397 746 c 0,2,3
 397 739 397 739 392.5 734 c 128,-1,4
 388 729 388 729 382 729 c 0,5,6
 369 739 369 739 353 742.5 c 128,-1,7
 337 746 337 746 307 746 c 0,8,9
 257 746 257 746 226 714 c 128,-1,10
 195 682 195 682 187 623 c 2,11,-1
 177 550 l 1,12,-1
 327 550 l 1,13,-1
 322 514 l 1,14,-1
 172 514 l 1,15,-1
 100 0 l 1,16,-1
 58 0 l 1,17,-1
 130 514 l 1,18,-1
 27 514 l 1,19,-1
 32 550 l 1,20,-1
 135 550 l 1,21,-1
 145 624 l 2,22,23
 155 698 155 698 201.5 740 c 128,-1,24
 248 782 248 782 314 782 c 0,25,0
 353 782 353 782 375 772.5 c 128,-1,1
EndSplineSet
EndChar

StartChar: g
Encoding: 103 103 270
Width: 585
GlyphClass: 2
Flags: W
AnchorPoint: "Anchor-10" 0 0 basechar 0
AnchorPoint: "Anchor-9" 313 550 basechar 0
AnchorPoint: "Anchor-8" 0 0 basechar 0
AnchorPoint: "Anchor-7" 207 -193 basechar 0
LayerCount: 2
Fore
SplineSet
581 545 m 1,1,2
 498 545 498 545 456 509 c 1,3,4
 498 467 498 467 498 402 c 0,5,6
 498 184 498 184 253 184 c 0,7,8
 165 184 165 184 128 170 c 128,-1,9
 91 156 91 156 91 124 c 0,10,11
 91 107 91 107 104.5 98 c 128,-1,12
 118 89 118 89 152 85.5 c 128,-1,13
 186 82 186 82 253 82 c 0,14,15
 365 82 365 82 424 50.5 c 128,-1,16
 483 19 483 19 483 -40 c 0,17,18
 483 -122 483 -122 415 -162 c 128,-1,19
 347 -202 347 -202 208 -202 c 0,20,21
 103 -202 103 -202 43 -166 c 128,-1,22
 -17 -130 -17 -130 -17 -66 c 0,23,24
 -17 -16 -17 -16 15.5 18 c 128,-1,25
 48 52 48 52 106 61 c 1,26,-1
 107 64 l 1,27,28
 83 68 83 68 67.5 85 c 128,-1,29
 52 102 52 102 52 124 c 0,30,31
 52 159 52 159 77 180 c 128,-1,32
 102 201 102 201 149 206 c 1,33,34
 108 226 108 226 86 261.5 c 128,-1,35
 64 297 64 297 64 345 c 0,36,37
 64 451 64 451 125.5 505.5 c 128,-1,38
 187 560 187 560 306 560 c 0,39,40
 383 560 383 560 433 527 c 1,41,42
 462 551 462 551 494 565 c 128,-1,43
 526 579 526 579 554 579 c 0,44,45
 570 579 570 579 576.5 574.5 c 128,-1,46
 583 570 583 570 583 559 c 0,47,0
 583 553 583 553 581 545 c 1,1,2
404.5 267 m 128,-1,49
 454 312 454 312 454 400 c 0,50,51
 454 461 454 461 415 492.5 c 128,-1,52
 376 524 376 524 301 524 c 0,53,54
 209 524 209 524 158 477.5 c 128,-1,55
 107 431 107 431 107 347 c 0,56,57
 107 288 107 288 146.5 255 c 128,-1,58
 186 222 186 222 258 222 c 0,59,48
 355 222 355 222 404.5 267 c 128,-1,49
390.5 24 m 128,-1,61
 342 46 342 46 242 46 c 0,62,63
 129 46 129 46 78 20.5 c 128,-1,64
 27 -5 27 -5 27 -62 c 0,65,66
 27 -112 27 -112 74 -138 c 128,-1,67
 121 -164 121 -164 211 -164 c 0,68,69
 329 -164 329 -164 384 -135 c 128,-1,70
 439 -106 439 -106 439 -44 c 0,71,60
 439 2 439 2 390.5 24 c 128,-1,61
EndSplineSet
EndChar

StartChar: h
Encoding: 104 104 277
Width: 630
GlyphClass: 2
Flags: W
AnchorPoint: "Anchor-10" 0 0 basechar 0
AnchorPoint: "Anchor-9" 167 710 basechar 0
AnchorPoint: "Anchor-8" 0 0 basechar 0
AnchorPoint: "Anchor-7" 258 0 basechar 0
LayerCount: 2
Fore
SplineSet
491.5 518.5 m 128,-1,1
 537 477 537 477 537 406 c 0,2,3
 537 396 537 396 535 376 c 2,4,-1
 482 0 l 1,5,-1
 440 0 l 1,6,-1
 492 369 l 2,7,8
 494 391 494 391 494 400 c 0,9,10
 494 460 494 460 459 491 c 128,-1,11
 424 522 424 522 357 522 c 0,12,13
 308 522 308 522 249.5 502 c 128,-1,14
 191 482 191 482 139 447 c 1,15,-1
 76 0 l 1,16,-1
 34 0 l 1,17,-1
 145 791 l 1,18,-1
 187 791 l 1,19,-1
 145 489 l 1,20,21
 259 560 259 560 368 560 c 0,22,0
 446 560 446 560 491.5 518.5 c 128,-1,1
EndSplineSet
EndChar

StartChar: hbar
Encoding: 295 295 278
Width: 630
GlyphClass: 2
Flags: W
AnchorPoint: "Anchor-10" 0 0 basechar 0
AnchorPoint: "Anchor-9" 167 710 basechar 0
AnchorPoint: "Anchor-8" 0 0 basechar 0
AnchorPoint: "Anchor-7" 258 0 basechar 0
LayerCount: 2
Fore
SplineSet
491.5 518.5 m 128,-1,1
 537 477 537 477 537 406 c 0,2,3
 537 396 537 396 535 376 c 2,4,-1
 482 0 l 1,5,-1
 440 0 l 1,6,-1
 492 369 l 2,7,8
 494 391 494 391 494 400 c 0,9,10
 494 460 494 460 459 491 c 128,-1,11
 424 522 424 522 357 522 c 0,12,13
 308 522 308 522 249.5 502 c 128,-1,14
 191 482 191 482 139 447 c 1,15,-1
 76 0 l 1,16,-1
 34 0 l 1,17,-1
 126 658 l 1,18,-1
 35 658 l 1,19,-1
 40 694 l 1,20,-1
 131 694 l 1,21,-1
 145 791 l 1,22,-1
 187 791 l 1,23,-1
 173 694 l 1,24,-1
 339 694 l 1,25,-1
 334 658 l 1,26,-1
 168 658 l 1,27,-1
 145 489 l 1,28,29
 259 560 259 560 368 560 c 0,30,0
 446 560 446 560 491.5 518.5 c 128,-1,1
EndSplineSet
EndChar

StartChar: dotlessi
Encoding: 305 305 283
Width: 290
GlyphClass: 2
Flags: W
AnchorPoint: "Anchor-10" 0 0 basechar 0
AnchorPoint: "Anchor-9" 165 550 basechar 0
AnchorPoint: "Anchor-8" 109 0 basechar 0
AnchorPoint: "Anchor-7" 88 0 basechar 0
LayerCount: 2
Fore
SplineSet
144 550 m 1,0,-1
 186 550 l 1,1,-1
 109 0 l 1,2,-1
 67 0 l 1,3,-1
 144 550 l 1,0,-1
EndSplineSet
EndChar

StartChar: uni0237
Encoding: 567 567 297
Width: 270
GlyphClass: 2
Flags: W
AnchorPoint: "Anchor-10" 0 0 basechar 0
AnchorPoint: "Anchor-9" 154 550 basechar 0
AnchorPoint: "Anchor-8" 0 0 basechar 0
AnchorPoint: "Anchor-7" -53 -192 basechar 0
LayerCount: 2
Fore
SplineSet
-98.5 -186.5 m 128,-1,1
 -120 -181 -120 -181 -129 -173 c 0,2,3
 -133 -169 -133 -169 -133 -162 c 256,4,5
 -133 -155 -133 -155 -129.5 -148.5 c 128,-1,6
 -126 -142 -126 -142 -122 -140 c 0,7,8
 -96 -154 -96 -154 -47 -154 c 0,9,10
 -8 -154 -8 -154 16 -131.5 c 128,-1,11
 40 -109 40 -109 47 -63 c 2,12,-1
 133 550 l 1,13,-1
 175 550 l 1,14,-1
 89 -62 l 2,15,16
 80 -123 80 -123 40.5 -157.5 c 128,-1,17
 1 -192 1 -192 -53 -192 c 0,18,0
 -77 -192 -77 -192 -98.5 -186.5 c 128,-1,1
EndSplineSet
EndChar

StartChar: k
Encoding: 107 107 299
Width: 547
Flags: W
LayerCount: 2
Fore
SplineSet
324.5 274 m 128,-1,1
 345 258 345 258 359 229 c 2,2,-1
 468 0 l 1,3,4
 457 0 457 0 448.5 -1 c 128,-1,5
 440 -2 440 -2 433 -2 c 0,6,7
 421 -2 421 -2 415 9 c 2,8,-1
 318 210 l 2,9,10
 300 248 300 248 272.5 259.5 c 128,-1,11
 245 271 245 271 186 271 c 2,12,-1
 114 269 l 1,13,-1
 76 0 l 1,14,-1
 34 0 l 1,15,-1
 145 791 l 1,16,-1
 187 791 l 1,17,-1
 119 303 l 1,18,-1
 184 305 l 2,19,20
 221 306 221 306 238.5 314 c 128,-1,21
 256 322 256 322 282 350 c 2,22,-1
 466 550 l 1,23,-1
 515 550 l 1,24,-1
 315 333 l 2,25,26
 293 310 293 310 272 297 c 1,27,0
 304 290 304 290 324.5 274 c 128,-1,1
EndSplineSet
EndChar

StartChar: kgreenlandic
Encoding: 312 312 301
Width: 591
Flags: W
LayerCount: 2
Fore
SplineSet
358 229 m 2,1,-1
 465 9 l 1,2,3
 448 -2 448 -2 436 -2 c 0,4,5
 425 -2 425 -2 419 9 c 2,6,-1
 321 210 l 2,7,8
 303 248 303 248 274.5 259.5 c 128,-1,9
 246 271 246 271 186 271 c 2,10,-1
 110 268 l 1,11,-1
 72 0 l 1,12,-1
 34 0 l 1,13,-1
 111 550 l 1,14,-1
 149 550 l 1,15,-1
 114 303 l 1,16,-1
 184 305 l 2,17,18
 221 306 221 306 238.5 314 c 128,-1,19
 256 322 256 322 283 351 c 2,20,-1
 470 550 l 1,21,-1
 515 550 l 1,22,-1
 312 334 l 2,23,24
 284 306 284 306 271 297 c 1,25,0
 332 280 332 280 358 229 c 2,1,-1
EndSplineSet
EndChar

StartChar: l
Encoding: 108 108 302
Width: 270
GlyphClass: 2
Flags: W
AnchorPoint: "Anchor-10" 267 550 basechar 0
AnchorPoint: "Anchor-9" 182 750 basechar 0
AnchorPoint: "Anchor-8" 0 0 basechar 0
AnchorPoint: "Anchor-7" 77 0 basechar 0
LayerCount: 2
Fore
SplineSet
168 791 m 1,0,-1
 210 791 l 1,1,-1
 99 0 l 1,2,-1
 57 0 l 1,3,-1
 168 791 l 1,0,-1
EndSplineSet
EndChar

StartChar: lslash
Encoding: 322 322 310
Width: 268
GlyphClass: 2
Flags: W
AnchorPoint: "Anchor-10" 267 550 basechar 0
AnchorPoint: "Anchor-9" 182 750 basechar 0
AnchorPoint: "Anchor-8" 0 0 basechar 0
AnchorPoint: "Anchor-7" 77 0 basechar 0
LayerCount: 2
Fore
SplineSet
273 445 m 1,0,-1
 154 393 l 1,1,-1
 99 0 l 1,2,-1
 57 0 l 1,3,-1
 109 373 l 1,4,-1
 -12 320 l 1,5,-1
 -7 360 l 1,6,-1
 115 413 l 1,7,-1
 168 791 l 1,8,-1
 210 791 l 1,9,-1
 160 432 l 1,10,-1
 279 484 l 1,11,-1
 273 445 l 1,0,-1
EndSplineSet
EndChar

StartChar: m
Encoding: 109 109 311
Width: 912
GlyphClass: 2
Flags: W
AnchorPoint: "Anchor-10" 0 0 basechar 0
AnchorPoint: "Anchor-9" 476 550 basechar 0
AnchorPoint: "Anchor-8" 0 0 basechar 0
AnchorPoint: "Anchor-7" 399 0 basechar 0
LayerCount: 2
Fore
SplineSet
779.5 524.5 m 128,-1,1
 821 489 821 489 821 424 c 0,2,3
 821 415 821 415 819 395 c 2,4,-1
 764 0 l 1,5,-1
 722 0 l 1,6,-1
 777 392 l 2,7,8
 779 410 779 410 779 418 c 0,9,10
 779 470 779 470 747 497 c 128,-1,11
 715 524 715 524 653 524 c 0,12,13
 608 524 608 524 561 503.5 c 128,-1,14
 514 483 514 483 473 446 c 1,15,16
 475 418 475 418 471 394 c 2,17,-1
 416 0 l 1,18,-1
 374 0 l 1,19,-1
 429 392 l 2,20,21
 432 412 432 412 432 428 c 0,22,23
 432 524 432 524 335 524 c 0,24,25
 285 524 285 524 233 501 c 128,-1,26
 181 478 181 478 136 437 c 1,27,-1
 75 0 l 1,28,-1
 33 0 l 1,29,-1
 91 413 l 2,30,31
 103 499 103 499 103 516 c 0,32,33
 103 532 103 532 97 539 c 1,34,35
 114 554 114 554 130 554 c 256,36,37
 146 554 146 554 146 524 c 0,38,39
 146 509 146 509 143 486 c 2,40,-1
 143 483 l 1,41,42
 190 521 190 521 240.5 540.5 c 128,-1,43
 291 560 291 560 342 560 c 0,44,45
 389 560 389 560 420.5 540.5 c 128,-1,46
 452 521 452 521 465 484 c 1,47,48
 506 520 506 520 558.5 540 c 128,-1,49
 611 560 611 560 662 560 c 0,50,0
 738 560 738 560 779.5 524.5 c 128,-1,1
EndSplineSet
EndChar

StartChar: n
Encoding: 110 110 313
Width: 610
GlyphClass: 2
Flags: W
AnchorPoint: "Anchor-10" 0 0 basechar 0
AnchorPoint: "Anchor-9" 325 550 basechar 0
AnchorPoint: "Anchor-8" 0 0 basechar 0
AnchorPoint: "Anchor-7" 248 0 basechar 0
LayerCount: 2
Fore
SplineSet
478 108 m 2,0,1
 473 68 473 68 473 51 c 0,2,3
 473 25 473 25 484 7 c 1,4,5
 480 2 480 2 471.5 -1.5 c 128,-1,6
 463 -5 463 -5 456 -5 c 0,7,8
 430 -5 430 -5 430 45 c 0,9,10
 430 64 430 64 435 102 c 2,11,-1
 473 373 l 2,12,13
 476 397 476 397 476 416 c 0,14,15
 476 473 476 473 447.5 499.5 c 128,-1,16
 419 526 419 526 359 526 c 0,17,18
 307 526 307 526 247 500.5 c 128,-1,19
 187 475 187 475 135 431 c 1,20,-1
 75 0 l 1,21,-1
 33 0 l 1,22,-1
 91 413 l 2,23,24
 103 499 103 499 103 516 c 0,25,26
 103 532 103 532 97 539 c 1,27,28
 114 554 114 554 130 554 c 0,29,30
 138 554 138 554 142 546.5 c 128,-1,31
 146 539 146 539 146 522 c 0,32,33
 146 509 146 509 143 486 c 2,34,-1
 141 473 l 1,35,36
 195 514 195 514 255.5 537 c 128,-1,37
 316 560 316 560 370 560 c 0,38,39
 519 560 519 560 519 419 c 0,40,41
 519 406 519 406 515 372 c 2,42,-1
 478 108 l 2,0,1
EndSplineSet
EndChar

StartChar: eng
Encoding: 331 331 320
Width: 609
Flags: W
LayerCount: 2
Fore
SplineSet
519 420 m 0,1,2
 519 406 519 406 515 372 c 2,3,-1
 463 0 l 1,4,-1
 453 -69 l 2,5,6
 444 -129 444 -129 407.5 -160.5 c 128,-1,7
 371 -192 371 -192 314 -192 c 0,8,9
 293 -192 293 -192 271.5 -186 c 128,-1,10
 250 -180 250 -180 240 -171 c 0,11,12
 234 -167 234 -167 234 -160 c 256,13,14
 234 -153 234 -153 239.5 -147 c 128,-1,15
 245 -141 245 -141 251 -142 c 0,16,17
 278 -158 278 -158 319 -158 c 0,18,19
 359 -158 359 -158 382.5 -137 c 128,-1,20
 406 -116 406 -116 413 -68 c 2,21,-1
 423 0 l 1,22,-1
 475 373 l 2,23,24
 478 396 478 396 478 415 c 0,25,26
 478 474 478 474 448 500 c 128,-1,27
 418 526 418 526 359 526 c 0,28,29
 308 526 308 526 248 500.5 c 128,-1,30
 188 475 188 475 135 431 c 1,31,-1
 75 0 l 1,32,-1
 33 0 l 1,33,-1
 91 413 l 2,34,35
 103 499 103 499 103 516 c 0,36,37
 103 532 103 532 97 539 c 1,38,39
 114 554 114 554 130 554 c 0,40,41
 138 554 138 554 142 546.5 c 128,-1,42
 146 539 146 539 146 522 c 0,43,44
 146 509 146 509 143 486 c 2,45,-1
 141 473 l 1,46,47
 192 511 192 511 251 535.5 c 128,-1,48
 310 560 310 560 370 560 c 0,49,0
 519 560 519 560 519 420 c 0,1,2
EndSplineSet
EndChar

StartChar: o
Encoding: 111 111 323
Width: 548
GlyphClass: 2
Flags: W
AnchorPoint: "Anchor-10" 436 474 basechar 0
AnchorPoint: "Anchor-9" 294 550 basechar 0
AnchorPoint: "Anchor-8" 303 10 basechar 0
AnchorPoint: "Anchor-7" 217 0 basechar 0
LayerCount: 2
Fore
SplineSet
15 200 m 0,1,2
 15 312 15 312 48.5 393 c 128,-1,3
 82 474 82 474 145 517 c 128,-1,4
 208 560 208 560 295 560 c 0,5,6
 495 560 495 560 495 353 c 0,7,8
 495 240 495 240 461.5 158.5 c 128,-1,9
 428 77 428 77 365 33.5 c 128,-1,10
 302 -10 302 -10 215 -10 c 0,11,0
 15 -10 15 -10 15 200 c 0,1,2
391.5 112.5 m 128,-1,13
 453 197 453 197 453 348 c 0,14,15
 453 437 453 437 412.5 480 c 128,-1,16
 372 523 372 523 290 523 c 0,17,18
 180 523 180 523 118.5 438.5 c 128,-1,19
 57 354 57 354 57 202 c 0,20,21
 57 114 57 114 97 71 c 128,-1,22
 137 28 137 28 220 28 c 0,23,12
 330 28 330 28 391.5 112.5 c 128,-1,13
EndSplineSet
Substitution2: "Single Substitution lookup 20 subtable" ordmasculine
Substitution2: "'aalt' Access All Alternates lookup 0 subtable" ordmasculine
EndChar

StartChar: ohorn
Encoding: 417 417 337
Width: 548
GlyphClass: 2
Flags: W
AnchorPoint: "Anchor-10" 436 474 basechar 0
AnchorPoint: "Anchor-9" 294 550 basechar 0
AnchorPoint: "Anchor-8" 303 10 basechar 0
AnchorPoint: "Anchor-7" 217 0 basechar 0
LayerCount: 2
Fore
SplineSet
570.5 635.5 m 128,-1,1
 584 618 584 618 584 592 c 0,2,3
 584 583 584 583 583 578 c 0,4,5
 577 535 577 535 548.5 506.5 c 128,-1,6
 520 478 520 478 473 467 c 1,7,8
 495 422 495 422 495 353 c 0,9,10
 495 240 495 240 461.5 158.5 c 128,-1,11
 428 77 428 77 365 33.5 c 128,-1,12
 302 -10 302 -10 215 -10 c 0,13,14
 15 -10 15 -10 15 200 c 0,15,16
 15 312 15 312 48.5 393 c 128,-1,17
 82 474 82 474 145 517 c 128,-1,18
 208 560 208 560 295 560 c 0,19,20
 409 560 409 560 458 493 c 1,21,22
 493 500 493 500 518 522 c 128,-1,23
 543 544 543 544 543 580 c 0,24,25
 543 602 543 602 532.5 614.5 c 128,-1,26
 522 627 522 627 505 631 c 1,27,28
 509 641 509 641 517 647 c 128,-1,29
 525 653 525 653 536 653 c 0,30,0
 557 653 557 653 570.5 635.5 c 128,-1,1
391.5 112.5 m 128,-1,32
 453 197 453 197 453 348 c 0,33,34
 453 437 453 437 412.5 480 c 128,-1,35
 372 523 372 523 290 523 c 0,36,37
 180 523 180 523 118.5 438.5 c 128,-1,38
 57 354 57 354 57 202 c 0,39,40
 57 114 57 114 97 71 c 128,-1,41
 137 28 137 28 220 28 c 0,42,31
 330 28 330 28 391.5 112.5 c 128,-1,32
EndSplineSet
EndChar

StartChar: oslash
Encoding: 248 248 345
Width: 548
GlyphClass: 2
Flags: W
AnchorPoint: "Anchor-10" 436 474 basechar 0
AnchorPoint: "Anchor-9" 294 550 basechar 0
AnchorPoint: "Anchor-8" 303 10 basechar 0
AnchorPoint: "Anchor-7" 217 0 basechar 0
LayerCount: 2
Fore
SplineSet
462 486 m 1,0,1
 495 437 495 437 495 353 c 0,2,3
 495 240 495 240 461.5 158.5 c 128,-1,4
 428 77 428 77 365 33.5 c 128,-1,5
 302 -10 302 -10 215 -10 c 0,6,7
 120 -10 120 -10 70 38 c 1,8,-1
 37 0 l 1,9,-1
 -7 0 l 1,10,-1
 48 63 l 1,11,12
 15 114 15 114 15 200 c 0,13,14
 15 312 15 312 48.5 393 c 128,-1,15
 82 474 82 474 145 517 c 128,-1,16
 208 560 208 560 295 560 c 0,17,18
 392 560 392 560 441 512 c 1,19,-1
 474 550 l 1,20,-1
 518 550 l 1,21,-1
 462 486 l 1,0,1
78 97 m 1,23,-1
 413 480 l 1,24,25
 373 523 373 523 290 523 c 0,26,27
 180 523 180 523 118.5 438.5 c 128,-1,28
 57 354 57 354 57 202 c 0,29,22
 57 138 57 138 78 97 c 1,23,-1
432 452 m 1,31,-1
 98 70 l 1,32,33
 139 28 139 28 220 28 c 0,34,35
 330 28 330 28 391.5 112.5 c 128,-1,36
 453 197 453 197 453 348 c 0,37,30
 453 412 453 412 432 452 c 1,31,-1
EndSplineSet
EndChar

StartChar: oe
Encoding: 339 339 348
Width: 980
GlyphClass: 2
Flags: W
AnchorPoint: "Anchor-10" 436 474 basechar 0
AnchorPoint: "Anchor-9" 726 550 basechar 0
AnchorPoint: "Anchor-8" 755 10 basechar 0
AnchorPoint: "Anchor-7" 653 0 basechar 0
LayerCount: 2
Fore
SplineSet
492 268 m 1,0,1
 490 240 490 240 490 225 c 0,2,3
 490 133 490 133 536.5 80.5 c 128,-1,4
 583 28 583 28 664 28 c 0,5,6
 722 28 722 28 765 50.5 c 128,-1,7
 808 73 808 73 830 115 c 0,8,9
 840 135 840 135 858 135 c 0,10,11
 874 135 874 135 885 124 c 1,12,13
 851 56 851 56 795.5 23 c 128,-1,14
 740 -10 740 -10 660 -10 c 256,15,16
 580 -10 580 -10 527 30 c 128,-1,17
 474 70 474 70 455 144 c 1,18,19
 421 69 421 69 359.5 29.5 c 128,-1,20
 298 -10 298 -10 215 -10 c 0,21,22
 15 -10 15 -10 15 200 c 0,23,24
 15 312 15 312 48.5 393 c 128,-1,25
 82 474 82 474 145 517 c 128,-1,26
 208 560 208 560 295 560 c 0,27,28
 462 560 462 560 490 415 c 1,29,30
 526 484 526 484 587 522 c 128,-1,31
 648 560 648 560 725 560 c 0,32,33
 824 560 824 560 875.5 508.5 c 128,-1,34
 927 457 927 457 927 359 c 0,35,36
 927 325 927 325 919 268 c 1,37,-1
 492 268 l 1,0,1
373.5 91.5 m 128,-1,39
 433 155 433 155 448 271 c 2,40,-1
 450 287 l 2,41,42
 453 317 453 317 453 348 c 0,43,44
 453 437 453 437 412.5 480 c 128,-1,45
 372 523 372 523 290 523 c 0,46,47
 180 523 180 523 118.5 438.5 c 128,-1,48
 57 354 57 354 57 202 c 0,49,50
 57 114 57 114 97 71 c 128,-1,51
 137 28 137 28 220 28 c 0,52,38
 314 28 314 28 373.5 91.5 c 128,-1,39
576.5 463.5 m 128,-1,54
 516 405 516 405 497 306 c 1,55,-1
 878 306 l 1,56,57
 883 334 883 334 883 358 c 0,58,59
 883 439 883 439 842.5 480.5 c 128,-1,60
 802 522 802 522 722 522 c 0,61,53
 637 522 637 522 576.5 463.5 c 128,-1,54
EndSplineSet
EndChar

StartChar: p
Encoding: 112 112 349
Width: 598
Flags: W
LayerCount: 2
Fore
SplineSet
492 502 m 128,-1,1
 545 444 545 444 545 329 c 0,2,3
 545 225 545 225 509.5 148.5 c 128,-1,4
 474 72 474 72 408 31 c 128,-1,5
 342 -10 342 -10 253 -10 c 0,6,7
 205 -10 205 -10 158.5 1.5 c 128,-1,8
 112 13 112 13 81 32 c 1,9,-1
 46 -220 l 1,10,-1
 4 -220 l 1,11,-1
 93 413 l 2,12,13
 104 494 104 494 104 514 c 256,14,15
 104 534 104 534 99 543 c 1,16,17
 103 547 103 547 112 550.5 c 128,-1,18
 121 554 121 554 128 554 c 0,19,20
 148 554 148 554 148 520 c 2,21,-1
 148 514 l 2,22,23
 148 505 148 505 146 494 c 2,24,-1
 145 487 l 1,25,26
 184 521 184 521 233.5 540.5 c 128,-1,27
 283 560 283 560 334 560 c 0,28,0
 439 560 439 560 492 502 c 128,-1,1
385.5 63.5 m 128,-1,30
 441 101 441 101 471.5 170 c 128,-1,31
 502 239 502 239 502 329 c 0,32,33
 502 424 502 424 459 474 c 128,-1,34
 416 524 416 524 334 524 c 0,35,36
 285 524 285 524 232.5 500.5 c 128,-1,37
 180 477 180 477 138 436 c 1,38,-1
 87 72 l 1,39,40
 119 51 119 51 164.5 38.5 c 128,-1,41
 210 26 210 26 258 26 c 0,42,29
 330 26 330 26 385.5 63.5 c 128,-1,30
EndSplineSet
EndChar

StartChar: thorn
Encoding: 254 254 350
Width: 609
Flags: W
LayerCount: 2
Fore
SplineSet
490.5 508.5 m 128,-1,1
 545 457 545 457 545 348 c 0,2,3
 545 314 545 314 539 275 c 0,4,5
 520 139 520 139 442 63.5 c 128,-1,6
 364 -12 364 -12 251 -12 c 0,7,8
 154 -12 154 -12 78 34 c 1,9,-1
 42 -220 l 1,10,-1
 4 -220 l 1,11,-1
 146 791 l 1,12,-1
 184 791 l 1,13,-1
 140 481 l 1,14,15
 181 518 181 518 234 539 c 128,-1,16
 287 560 287 560 339 560 c 0,17,0
 436 560 436 560 490.5 508.5 c 128,-1,1
504 338 m 0,19,20
 504 431 504 431 458 477.5 c 128,-1,21
 412 524 412 524 334 524 c 0,22,23
 279 524 279 524 226.5 498 c 128,-1,24
 174 472 174 472 133 431 c 1,25,-1
 83 75 l 1,26,27
 160 24 160 24 256 24 c 0,28,29
 313 24 313 24 364 51.5 c 128,-1,30
 415 79 415 79 451 135.5 c 128,-1,31
 487 192 487 192 499 275 c 0,32,18
 504 313 504 313 504 338 c 0,19,20
EndSplineSet
EndChar

StartChar: q
Encoding: 113 113 351
Width: 608
Flags: W
LayerCount: 2
Fore
SplineSet
544 543 m 1,1,2
 531 523 531 523 523.5 495.5 c 128,-1,3
 516 468 516 468 509 424 c 2,4,-1
 419 -220 l 1,5,-1
 377 -220 l 1,6,-1
 412 35 l 1,7,8
 381 13 381 13 340.5 1.5 c 128,-1,9
 300 -10 300 -10 255 -10 c 0,10,11
 149 -10 149 -10 88 55.5 c 128,-1,12
 27 121 27 121 27 234 c 0,13,14
 27 332 27 332 62 406 c 128,-1,15
 97 480 97 480 161 520 c 128,-1,16
 225 560 225 560 311 560 c 0,17,18
 415 560 415 560 480 501 c 1,19,20
 494 554 494 554 517 554 c 0,21,0
 531 554 531 554 544 543 c 1,1,2
468 436 m 1,22,-1
 471 456 l 1,23,24
 442 488 442 488 400.5 505 c 128,-1,25
 359 522 359 522 308 522 c 0,26,27
 238 522 238 522 183.5 486 c 128,-1,28
 129 450 129 450 99 385.5 c 128,-1,29
 69 321 69 321 69 237 c 0,30,31
 69 141 69 141 120.5 84.5 c 128,-1,32
 172 28 172 28 259 28 c 0,33,34
 309 28 309 28 346.5 40.5 c 128,-1,35
 384 53 384 53 419 82 c 1,36,-1
 468 436 l 1,22,-1
EndSplineSet
EndChar

StartChar: r
Encoding: 114 114 352
Width: 400
GlyphClass: 2
Flags: W
AnchorPoint: "Anchor-10" 0 0 basechar 0
AnchorPoint: "Anchor-9" 220 550 basechar 0
AnchorPoint: "Anchor-8" 0 0 basechar 0
AnchorPoint: "Anchor-7" 62 0 basechar 0
LayerCount: 2
Fore
SplineSet
376 547.5 m 128,-1,1
 394 538 394 538 394 522 c 0,2,3
 394 507 394 507 380 501 c 1,4,5
 360 517 360 517 313 517 c 0,6,7
 265 517 265 517 221.5 489 c 128,-1,8
 178 461 178 461 148.5 413 c 128,-1,9
 119 365 119 365 111 307 c 2,10,-1
 70 0 l 1,11,-1
 28 0 l 1,12,-1
 105 550 l 1,13,-1
 147 550 l 1,14,-1
 132 443 l 1,15,16
 164 493 164 493 216.5 525 c 128,-1,17
 269 557 269 557 324 557 c 0,18,0
 358 557 358 557 376 547.5 c 128,-1,1
EndSplineSet
EndChar

StartChar: s
Encoding: 115 115 359
Width: 485
GlyphClass: 2
Flags: W
AnchorPoint: "Anchor-10" 0 0 basechar 0
AnchorPoint: "Anchor-9" 263 550 basechar 0
AnchorPoint: "Anchor-8" 0 0 basechar 0
AnchorPoint: "Anchor-7" 186 0 basechar 0
LayerCount: 2
Fore
SplineSet
88 5.5 m 128,-1,1
 43 21 43 21 19.5 46.5 c 128,-1,2
 -4 72 -4 72 -4 100 c 0,3,4
 -4 126 -4 126 22 129 c 1,5,6
 35 81 35 81 74.5 53.5 c 128,-1,7
 114 26 114 26 191 26 c 256,8,9
 268 26 268 26 317.5 60 c 128,-1,10
 367 94 367 94 367 155 c 0,11,12
 367 183 367 183 348.5 202 c 128,-1,13
 330 221 330 221 303 232.5 c 128,-1,14
 276 244 276 244 227 260 c 0,15,16
 171 278 171 278 136 294 c 128,-1,17
 101 310 101 310 76.5 338.5 c 128,-1,18
 52 367 52 367 52 411 c 0,19,20
 52 482 52 482 104 521 c 128,-1,21
 156 560 156 560 243 560 c 0,22,23
 311 560 311 560 361.5 531 c 128,-1,24
 412 502 412 502 436 452 c 1,25,26
 427 444 427 444 420.5 440.5 c 128,-1,27
 414 437 414 437 406 437 c 0,28,29
 400 437 400 437 396 440 c 128,-1,30
 392 443 392 443 387 451 c 0,31,32
 364 484 364 484 327 504 c 128,-1,33
 290 524 290 524 240 524 c 0,34,35
 174 524 174 524 135 494.5 c 128,-1,36
 96 465 96 465 96 411 c 0,37,38
 96 380 96 380 115.5 359.5 c 128,-1,39
 135 339 135 339 163.5 326.5 c 128,-1,40
 192 314 192 314 243 297 c 0,41,42
 298 279 298 279 331 264 c 128,-1,43
 364 249 364 249 387 223 c 128,-1,44
 410 197 410 197 410 157 c 0,45,46
 410 77 410 77 353 33.5 c 128,-1,47
 296 -10 296 -10 192 -10 c 0,48,0
 133 -10 133 -10 88 5.5 c 128,-1,1
EndSplineSet
EndChar

StartChar: scedilla
Encoding: 351 351 362
Width: 485
GlyphClass: 2
Flags: W
AnchorPoint: "Anchor-10" 0 0 basechar 0
AnchorPoint: "Anchor-9" 0 0 basechar 0
AnchorPoint: "Anchor-8" 0 0 basechar 0
AnchorPoint: "Anchor-7" 156 -214 basechar 0
LayerCount: 2
Fore
SplineSet
115.5 359.5 m 128,-1,1
 135 339 135 339 163.5 326.5 c 128,-1,2
 192 314 192 314 243 297 c 0,3,4
 298 279 298 279 331 264 c 128,-1,5
 364 249 364 249 387 223 c 128,-1,6
 410 197 410 197 410 157 c 0,7,8
 410 79 410 79 355.5 35.5 c 128,-1,9
 301 -8 301 -8 201 -10 c 1,10,-1
 152 -61 l 1,11,12
 168 -59 168 -59 174 -59 c 0,13,14
 209 -59 209 -59 231.5 -76.5 c 128,-1,15
 254 -94 254 -94 254 -126 c 0,16,17
 254 -173 254 -173 214 -201 c 128,-1,18
 174 -229 174 -229 119 -229 c 0,19,20
 76 -229 76 -229 50.5 -220.5 c 128,-1,21
 25 -212 25 -212 25 -195 c 0,22,23
 25 -189 25 -189 30 -179 c 1,24,25
 53 -185 53 -185 73 -189 c 128,-1,26
 93 -193 93 -193 120 -193 c 0,27,28
 164 -193 164 -193 188 -174 c 128,-1,29
 212 -155 212 -155 212 -130 c 0,30,31
 212 -109 212 -109 200 -99.5 c 128,-1,32
 188 -90 188 -90 160 -90 c 0,33,34
 144 -90 144 -90 119 -95 c 1,35,-1
 102 -75 l 1,36,-1
 160 -9 l 1,37,38
 85 -3 85 -3 40.5 29 c 128,-1,39
 -4 61 -4 61 -4 100 c 0,40,41
 -4 126 -4 126 22 129 c 1,42,43
 35 81 35 81 74.5 53.5 c 128,-1,44
 114 26 114 26 191 26 c 256,45,46
 268 26 268 26 317.5 60 c 128,-1,47
 367 94 367 94 367 155 c 0,48,49
 367 183 367 183 348.5 202 c 128,-1,50
 330 221 330 221 303 232.5 c 128,-1,51
 276 244 276 244 227 260 c 0,52,53
 171 278 171 278 136 294 c 128,-1,54
 101 310 101 310 76.5 338.5 c 128,-1,55
 52 367 52 367 52 411 c 0,56,57
 52 482 52 482 104 521 c 128,-1,58
 156 560 156 560 243 560 c 0,59,60
 311 560 311 560 361.5 531 c 128,-1,61
 412 502 412 502 436 452 c 1,62,63
 427 444 427 444 420.5 440.5 c 128,-1,64
 414 437 414 437 406 437 c 0,65,66
 400 437 400 437 396 440 c 128,-1,67
 392 443 392 443 387 451 c 0,68,69
 364 484 364 484 327 504 c 128,-1,70
 290 524 290 524 240 524 c 0,71,72
 174 524 174 524 135 494.5 c 128,-1,73
 96 465 96 465 96 411 c 0,74,0
 96 380 96 380 115.5 359.5 c 128,-1,1
EndSplineSet
Substitution2: "'locl' Localized Forms in Latin lookup 7 subtable" uni0219
Substitution2: "'locl' Localized Forms in Latin lookup 6 subtable" uni0219
Substitution2: "'aalt' Access All Alternates lookup 0 subtable" uni0219
EndChar

StartChar: germandbls
Encoding: 223 223 367
Width: 617
Flags: W
LayerCount: 2
Fore
SplineSet
495.5 305 m 128,-1,1
 526 262 526 262 526 204 c 0,2,3
 526 103 526 103 462.5 44.5 c 128,-1,4
 399 -14 399 -14 293 -14 c 0,5,6
 254 -14 254 -14 217 -5.5 c 128,-1,7
 180 3 180 3 157.5 16 c 128,-1,8
 135 29 135 29 135 43 c 0,9,10
 135 60 135 60 154 68 c 1,11,12
 181 44 181 44 213.5 33 c 128,-1,13
 246 22 246 22 292 22 c 0,14,15
 381 22 381 22 434 70 c 128,-1,16
 487 118 487 118 487 206 c 0,17,18
 487 275 487 275 444 310.5 c 128,-1,19
 401 346 401 346 331 346 c 0,20,21
 322 346 322 346 302 344 c 2,22,-1
 277 343 l 2,23,24
 262 343 262 343 255 351 c 128,-1,25
 248 359 248 359 250 372 c 0,26,27
 252 382 252 382 258 382 c 2,28,-1
 327 382 l 2,29,30
 411 382 411 382 459 428.5 c 128,-1,31
 507 475 507 475 507 553 c 0,32,33
 507 618 507 618 460.5 656.5 c 128,-1,34
 414 695 414 695 341 695 c 0,35,36
 259 695 259 695 205 648.5 c 128,-1,37
 151 602 151 602 139 512 c 2,38,-1
 67 0 l 1,39,-1
 27 0 l 1,40,-1
 99 512 l 2,41,42
 114 620 114 620 177 675.5 c 128,-1,43
 240 731 240 731 343 731 c 0,44,45
 431 731 431 731 488.5 684.5 c 128,-1,46
 546 638 546 638 546 557 c 0,47,48
 546 487 546 487 511.5 436.5 c 128,-1,49
 477 386 477 386 415 364 c 1,50,0
 465 348 465 348 495.5 305 c 128,-1,1
EndSplineSet
EndChar

StartChar: t
Encoding: 116 116 368
Width: 374
GlyphClass: 2
Flags: W
AnchorPoint: "Anchor-10" 359 630 basechar 0
AnchorPoint: "Anchor-9" 185 660 basechar 0
AnchorPoint: "Anchor-8" 0 0 basechar 0
AnchorPoint: "Anchor-7" 192 0 basechar 0
LayerCount: 2
Fore
SplineSet
120 140 m 2,0,1
 118 120 118 120 118 113 c 0,2,3
 118 70 118 70 139.5 48 c 128,-1,4
 161 26 161 26 202 26 c 0,5,6
 252 26 252 26 291 47 c 1,7,8
 300 39 300 39 300 29 c 0,9,10
 300 22 300 22 295.5 15.5 c 128,-1,11
 291 9 291 9 285 6 c 0,12,13
 268 -3 268 -3 247 -6.5 c 128,-1,14
 226 -10 226 -10 190 -10 c 0,15,16
 137 -10 137 -10 106 21 c 128,-1,17
 75 52 75 52 75 105 c 0,18,19
 75 113 75 113 77 131 c 2,20,-1
 131 514 l 1,21,-1
 27 514 l 1,22,-1
 32 550 l 1,23,-1
 136 550 l 1,24,-1
 157 700 l 1,25,-1
 199 700 l 1,26,-1
 178 550 l 1,27,-1
 348 550 l 1,28,-1
 343 514 l 1,29,-1
 173 514 l 1,30,-1
 120 140 l 2,0,1
EndSplineSet
EndChar

StartChar: tbar
Encoding: 359 359 369
Width: 397
GlyphClass: 2
Flags: W
AnchorPoint: "Anchor-10" 359 630 basechar 0
AnchorPoint: "Anchor-9" 185 660 basechar 0
AnchorPoint: "Anchor-8" 0 0 basechar 0
AnchorPoint: "Anchor-7" 192 0 basechar 0
LayerCount: 2
Fore
SplineSet
173 514 m 1,0,-1
 145 320 l 1,1,-1
 316 320 l 1,2,-1
 311 286 l 1,3,-1
 141 286 l 1,4,-1
 120 140 l 2,5,6
 118 120 118 120 118 113 c 0,7,8
 118 70 118 70 139.5 48 c 128,-1,9
 161 26 161 26 202 26 c 0,10,11
 252 26 252 26 291 47 c 1,12,13
 300 39 300 39 300 29 c 0,14,15
 300 22 300 22 295.5 15.5 c 128,-1,16
 291 9 291 9 285 6 c 0,17,18
 268 -3 268 -3 247 -6.5 c 128,-1,19
 226 -10 226 -10 190 -10 c 0,20,21
 137 -10 137 -10 106 21 c 128,-1,22
 75 52 75 52 75 105 c 0,23,24
 75 113 75 113 77 131 c 2,25,-1
 99 286 l 1,26,-1
 -5 286 l 1,27,-1
 0 320 l 1,28,-1
 104 320 l 1,29,-1
 131 514 l 1,30,-1
 27 514 l 1,31,-1
 32 550 l 1,32,-1
 136 550 l 1,33,-1
 157 700 l 1,34,-1
 199 700 l 1,35,-1
 178 550 l 1,36,-1
 348 550 l 1,37,-1
 343 514 l 1,38,-1
 173 514 l 1,0,-1
EndSplineSet
EndChar

StartChar: uni0163
Encoding: 355 355 371
Width: 374
GlyphClass: 2
Flags: W
AnchorPoint: "Anchor-10" 359 630 basechar 0
AnchorPoint: "Anchor-9" 0 0 basechar 0
AnchorPoint: "Anchor-8" 0 0 basechar 0
AnchorPoint: "Anchor-7" 162 -214 basechar 0
LayerCount: 2
Fore
SplineSet
120 140 m 2,0,1
 118 120 118 120 118 113 c 0,2,3
 118 70 118 70 139.5 48 c 128,-1,4
 161 26 161 26 202 26 c 0,5,6
 252 26 252 26 291 47 c 1,7,8
 300 39 300 39 300 29 c 0,9,10
 300 22 300 22 295.5 15.5 c 128,-1,11
 291 9 291 9 285 6 c 0,12,13
 270 -2 270 -2 252.5 -5.5 c 128,-1,14
 235 -9 235 -9 207 -10 c 1,15,-1
 158 -61 l 1,16,17
 174 -59 174 -59 180 -59 c 0,18,19
 215 -59 215 -59 237.5 -76.5 c 128,-1,20
 260 -94 260 -94 260 -126 c 0,21,22
 260 -173 260 -173 220 -201 c 128,-1,23
 180 -229 180 -229 125 -229 c 0,24,25
 82 -229 82 -229 56.5 -220.5 c 128,-1,26
 31 -212 31 -212 31 -195 c 0,27,28
 31 -189 31 -189 36 -179 c 1,29,30
 59 -185 59 -185 79 -189 c 128,-1,31
 99 -193 99 -193 126 -193 c 0,32,33
 170 -193 170 -193 194 -174 c 128,-1,34
 218 -155 218 -155 218 -130 c 0,35,36
 218 -109 218 -109 206 -99.5 c 128,-1,37
 194 -90 194 -90 166 -90 c 0,38,39
 150 -90 150 -90 125 -95 c 1,40,-1
 108 -75 l 1,41,-1
 167 -8 l 1,42,43
 124 -1 124 -1 99.5 29 c 128,-1,44
 75 59 75 59 75 105 c 0,45,46
 75 113 75 113 77 131 c 2,47,-1
 131 514 l 1,48,-1
 27 514 l 1,49,-1
 32 550 l 1,50,-1
 136 550 l 1,51,-1
 157 700 l 1,52,-1
 199 700 l 1,53,-1
 178 550 l 1,54,-1
 348 550 l 1,55,-1
 343 514 l 1,56,-1
 173 514 l 1,57,-1
 120 140 l 2,0,1
EndSplineSet
Substitution2: "'locl' Localized Forms in Latin lookup 7 subtable" uni021B
Substitution2: "'locl' Localized Forms in Latin lookup 6 subtable" uni021B
Substitution2: "'aalt' Access All Alternates lookup 0 subtable" uni021B
EndChar

StartChar: u
Encoding: 117 117 376
Width: 610
GlyphClass: 2
Flags: W
AnchorPoint: "Anchor-10" 523 523 basechar 0
AnchorPoint: "Anchor-9" 324 550 basechar 0
AnchorPoint: "Anchor-8" 476 7 basechar 0
AnchorPoint: "Anchor-7" 247 0 basechar 0
LayerCount: 2
Fore
SplineSet
476 113 m 2,0,1
 471 75 471 75 471 52 c 0,2,3
 471 30 471 30 476 7 c 1,4,5
 471 2 471 2 463 -1.5 c 128,-1,6
 455 -5 455 -5 446 -5 c 0,7,8
 427 -5 427 -5 427 40 c 0,9,10
 427 58 427 58 430 83 c 1,11,12
 392 39 392 39 337.5 14.5 c 128,-1,13
 283 -10 283 -10 225 -10 c 0,14,15
 144 -10 144 -10 99.5 30.5 c 128,-1,16
 55 71 55 71 55 145 c 0,17,18
 55 164 55 164 58 185 c 2,19,-1
 110 550 l 1,20,-1
 152 550 l 1,21,-1
 100 182 l 2,22,23
 97 164 97 164 97 147 c 0,24,25
 97 88 97 88 130 57 c 128,-1,26
 163 26 163 26 226 26 c 0,27,28
 283 26 283 26 339 56 c 128,-1,29
 395 86 395 86 437 139 c 1,30,-1
 495 550 l 1,31,-1
 537 550 l 1,32,-1
 476 113 l 2,0,1
EndSplineSet
EndChar

StartChar: uhorn
Encoding: 432 432 389
Width: 609
GlyphClass: 2
Flags: W
AnchorPoint: "Anchor-10" 523 523 basechar 0
AnchorPoint: "Anchor-9" 324 550 basechar 0
AnchorPoint: "Anchor-8" 476 7 basechar 0
AnchorPoint: "Anchor-7" 247 0 basechar 0
LayerCount: 2
Fore
SplineSet
657.5 684.5 m 128,-1,1
 671 667 671 667 671 641 c 0,2,3
 671 632 671 632 670 627 c 0,4,5
 663 578 663 578 627 547.5 c 128,-1,6
 591 517 591 517 532 511 c 1,7,-1
 476 113 l 2,8,9
 471 75 471 75 471 52 c 0,10,11
 471 30 471 30 476 7 c 1,12,13
 471 2 471 2 463 -1.5 c 128,-1,14
 455 -5 455 -5 446 -5 c 0,15,16
 427 -5 427 -5 427 40 c 0,17,18
 427 58 427 58 430 83 c 1,19,20
 392 39 392 39 337.5 14.5 c 128,-1,21
 283 -10 283 -10 225 -10 c 0,22,23
 144 -10 144 -10 99.5 30.5 c 128,-1,24
 55 71 55 71 55 145 c 0,25,26
 55 164 55 164 58 185 c 2,27,-1
 110 550 l 1,28,-1
 152 550 l 1,29,-1
 100 182 l 2,30,31
 97 164 97 164 97 147 c 0,32,33
 97 88 97 88 130 57 c 128,-1,34
 163 26 163 26 226 26 c 0,35,36
 283 26 283 26 339 56 c 128,-1,37
 395 86 395 86 437 139 c 1,38,-1
 495 550 l 1,39,-1
 537 550 l 1,40,-1
 536 541 l 1,41,42
 574 545 574 545 602 567.5 c 128,-1,43
 630 590 630 590 630 629 c 0,44,45
 630 651 630 651 619.5 663.5 c 128,-1,46
 609 676 609 676 592 680 c 1,47,48
 596 690 596 690 604 696 c 128,-1,49
 612 702 612 702 623 702 c 0,50,0
 644 702 644 702 657.5 684.5 c 128,-1,1
EndSplineSet
EndChar

StartChar: uogonek
Encoding: 371 371 397
Width: 609
GlyphClass: 2
Flags: W
AnchorPoint: "Anchor-10" 523 523 basechar 0
AnchorPoint: "Anchor-9" 324 550 basechar 0
AnchorPoint: "Anchor-8" 476 7 basechar 0
AnchorPoint: "Anchor-7" 247 0 basechar 0
LayerCount: 2
Fore
SplineSet
486 -156 m 1,1,2
 490 -163 490 -163 490 -170 c 0,3,4
 490 -185 490 -185 471.5 -194 c 128,-1,5
 453 -203 453 -203 417 -203 c 0,6,7
 380 -203 380 -203 357 -182.5 c 128,-1,8
 334 -162 334 -162 334 -128 c 0,9,10
 334 -48 334 -48 432 5 c 1,11,12
 427 18 427 18 427 40 c 0,13,14
 427 59 427 59 430 83 c 1,15,16
 392 39 392 39 337.5 14.5 c 128,-1,17
 283 -10 283 -10 225 -10 c 0,18,19
 144 -10 144 -10 99.5 30.5 c 128,-1,20
 55 71 55 71 55 145 c 0,21,22
 55 164 55 164 58 185 c 2,23,-1
 110 550 l 1,24,-1
 152 550 l 1,25,-1
 100 182 l 2,26,27
 97 164 97 164 97 147 c 0,28,29
 97 88 97 88 130 57 c 128,-1,30
 163 26 163 26 226 26 c 0,31,32
 283 26 283 26 339 56 c 128,-1,33
 395 86 395 86 437 139 c 1,34,-1
 495 550 l 1,35,-1
 537 550 l 1,36,-1
 476 113 l 2,37,38
 471 75 471 75 471 52 c 0,39,40
 471 30 471 30 476 7 c 1,41,42
 468 -1 468 -1 460 -3 c 0,43,44
 421 -28 421 -28 398 -59 c 128,-1,45
 375 -90 375 -90 375 -123 c 0,46,47
 375 -145 375 -145 390.5 -157 c 128,-1,48
 406 -169 406 -169 432 -169 c 0,49,0
 463 -169 463 -169 486 -156 c 1,1,2
EndSplineSet
EndChar

StartChar: v
Encoding: 118 118 400
Width: 480
Flags: W
LayerCount: 2
Fore
SplineSet
485 550 m 1,0,1
 416 256 416 256 203 0 c 1,2,-1
 164 0 l 1,3,4
 95 117 95 117 63.5 252.5 c 128,-1,5
 32 388 32 388 35 550 c 1,6,-1
 80 550 l 1,7,8
 78 510 78 510 78 491 c 0,9,10
 78 255 78 255 188 49 c 1,11,12
 388 305 388 305 440 550 c 1,13,-1
 485 550 l 1,0,1
EndSplineSet
EndChar

StartChar: w
Encoding: 119 119 401
Width: 760
GlyphClass: 2
Flags: W
AnchorPoint: "Anchor-10" 0 0 basechar 0
AnchorPoint: "Anchor-9" 400 550 basechar 0
AnchorPoint: "Anchor-8" 0 0 basechar 0
AnchorPoint: "Anchor-7" 323 0 basechar 0
LayerCount: 2
Fore
SplineSet
746 550 m 1,0,1
 666 275 666 275 498 0 c 1,2,-1
 466 0 l 1,3,4
 392 224 392 224 383 443 c 1,5,6
 316 223 316 223 184 0 c 1,7,-1
 150 0 l 1,8,9
 56 263 56 263 53 550 c 1,10,-1
 97 550 l 1,11,12
 96 307 96 307 175 64 c 1,13,14
 316 304 316 304 378 550 c 1,15,-1
 416 550 l 1,16,17
 413 303 413 303 491 61 c 1,18,19
 636 305 636 305 700 550 c 1,20,-1
 746 550 l 1,0,1
EndSplineSet
EndChar

StartChar: x
Encoding: 120 120 406
Width: 484
Flags: W
LayerCount: 2
Fore
SplineSet
404 428.5 m 128,-1,1
 351 371 351 371 255 290 c 1,2,3
 330 209 330 209 370.5 142 c 128,-1,4
 411 75 411 75 411 0 c 1,5,-1
 367 0 l 1,6,7
 366 65 366 65 329 124.5 c 128,-1,8
 292 184 292 184 222 262 c 1,9,10
 129 184 129 184 75.5 124.5 c 128,-1,11
 22 65 22 65 3 0 c 1,12,-1
 -41 0 l 1,13,14
 -20 75 -20 75 38.5 141.5 c 128,-1,15
 97 208 97 208 196 291 c 1,16,17
 124 370 124 370 86.5 428 c 128,-1,18
 49 486 49 486 48 550 c 1,19,-1
 92 550 l 1,20,21
 94 496 94 496 128 444.5 c 128,-1,22
 162 393 162 393 229 319 c 1,23,24
 317 392 317 392 366 443.5 c 128,-1,25
 415 495 415 495 432 550 c 1,26,-1
 476 550 l 1,27,0
 457 486 457 486 404 428.5 c 128,-1,1
EndSplineSet
EndChar

StartChar: y
Encoding: 121 121 407
Width: 485
GlyphClass: 2
Flags: W
AnchorPoint: "Anchor-10" 0 0 basechar 0
AnchorPoint: "Anchor-9" 263 550 basechar 0
AnchorPoint: "Anchor-8" 0 0 basechar 0
AnchorPoint: "Anchor-7" 291 0 basechar 0
LayerCount: 2
Fore
SplineSet
494 550 m 1,0,-1
 188 -42 l 2,1,2
 147 -122 147 -122 102 -157 c 128,-1,3
 57 -192 57 -192 -3 -192 c 0,4,5
 -36 -192 -36 -192 -56 -183 c 128,-1,6
 -76 -174 -76 -174 -76 -159 c 0,7,8
 -76 -145 -76 -145 -61 -140 c 1,9,10
 -41 -154 -41 -154 4 -154 c 256,11,12
 49 -154 49 -154 90 -114.5 c 128,-1,13
 131 -75 131 -75 174 9 c 1,14,-1
 34 550 l 1,15,-1
 76 550 l 1,16,-1
 202 73 l 1,17,-1
 448 550 l 1,18,-1
 494 550 l 1,0,-1
EndSplineSet
EndChar

StartChar: z
Encoding: 122 122 416
Width: 500
GlyphClass: 2
Flags: W
AnchorPoint: "Anchor-10" 0 0 basechar 0
AnchorPoint: "Anchor-9" 270 550 basechar 0
AnchorPoint: "Anchor-8" 0 0 basechar 0
AnchorPoint: "Anchor-7" 193 0 basechar 0
LayerCount: 2
Fore
SplineSet
478 525 m 1,0,-1
 38 38 l 1,1,-1
 418 38 l 1,2,-1
 413 0 l 1,3,-1
 -27 0 l 1,4,-1
 -23 28 l 1,5,-1
 416 514 l 1,6,-1
 71 514 l 1,7,-1
 76 550 l 1,8,-1
 482 550 l 1,9,-1
 478 525 l 1,0,-1
EndSplineSet
EndChar

StartChar: ordfeminine
Encoding: 170 170 423
Width: 380
Flags: W
LayerCount: 2
Fore
SplineSet
347 505 m 0,1,2
 346 497 346 497 340 457 c 128,-1,3
 334 417 334 417 334 393 c 0,4,5
 334 378 334 378 335 370 c 1,6,7
 323 360 323 360 308 360 c 256,8,9
 293 360 293 360 293 387 c 0,10,11
 293 400 293 400 296 424 c 1,12,13
 271 397 271 397 235 378 c 128,-1,14
 199 359 199 359 154 359 c 0,15,16
 110 359 110 359 80.5 380.5 c 128,-1,17
 51 402 51 402 51 444 c 0,18,19
 51 519 51 519 123 545 c 128,-1,20
 195 571 195 571 319 573 c 1,21,22
 321 597 321 597 321 603 c 0,23,24
 321 642 321 642 297.5 661 c 128,-1,25
 274 680 274 680 231 680 c 0,26,27
 200 680 200 680 176.5 669.5 c 128,-1,28
 153 659 153 659 131 642 c 0,29,30
 123 635 123 635 117 631.5 c 128,-1,31
 111 628 111 628 105 628 c 0,32,33
 98 628 98 628 92.5 635 c 128,-1,34
 87 642 87 642 85 650 c 1,35,36
 114 678 114 678 151.5 695 c 128,-1,37
 189 712 189 712 233 712 c 0,38,39
 291 712 291 712 325 685.5 c 128,-1,40
 359 659 359 659 359 604 c 0,41,0
 359 583 359 583 347 505 c 0,1,2
242.5 417 m 128,-1,43
 282 441 282 441 304 472 c 1,44,-1
 314 541 l 1,45,46
 90 537 90 537 90 448 c 0,47,48
 90 420 90 420 107.5 406.5 c 128,-1,49
 125 393 125 393 163 393 c 0,50,42
 203 393 203 393 242.5 417 c 128,-1,43
EndSplineSet
EndChar

StartChar: ordmasculine
Encoding: 186 186 424
Width: 380
Flags: W
LayerCount: 2
Fore
SplineSet
85 394 m 128,-1,1
 51 431 51 431 51 494 c 0,2,3
 51 554 51 554 72.5 603.5 c 128,-1,4
 94 653 94 653 135.5 681.5 c 128,-1,5
 177 710 177 710 233 710 c 0,6,7
 298 710 298 710 331.5 672 c 128,-1,8
 365 634 365 634 365 570 c 0,9,10
 365 511 365 511 343 462.5 c 128,-1,11
 321 414 321 414 280 385.5 c 128,-1,12
 239 357 239 357 184 357 c 0,13,0
 119 357 119 357 85 394 c 128,-1,1
292 441 m 128,-1,15
 329 493 329 493 329 568 c 0,16,17
 329 622 329 622 303 650 c 128,-1,18
 277 678 277 678 229 678 c 0,19,20
 161 678 161 678 124 625.5 c 128,-1,21
 87 573 87 573 87 497 c 0,22,23
 87 444 87 444 113.5 416.5 c 128,-1,24
 140 389 140 389 188 389 c 0,25,14
 255 389 255 389 292 441 c 128,-1,15
EndSplineSet
EndChar

StartChar: uni207F
Encoding: 8319 8319 425
Width: 380
Flags: W
LayerCount: 2
Fore
SplineSet
339 434 m 2,0,1
 335 411 335 411 335 394 c 0,2,3
 335 379 335 379 340 369 c 1,4,5
 327 360 327 360 312 360 c 0,6,7
 298 360 298 360 298 391 c 0,8,9
 298 405 298 405 301 424 c 2,10,-1
 325 592 l 2,11,12
 327 608 327 608 327 613 c 0,13,14
 327 648 327 648 309 666 c 128,-1,15
 291 684 291 684 256 684 c 0,16,17
 220 684 220 684 181 668 c 128,-1,18
 142 652 142 652 109 624 c 1,19,-1
 73 363 l 1,20,-1
 37 363 l 1,21,-1
 73 623 l 2,22,23
 79 658 79 658 79 676 c 0,24,25
 79 689 79 689 76 699 c 1,26,27
 81 703 81 703 89.5 706 c 128,-1,28
 98 709 98 709 104 709 c 256,29,30
 110 709 110 709 114 703.5 c 128,-1,31
 118 698 118 698 118 688 c 0,32,33
 118 682 118 682 117 678 c 2,34,-1
 115 660 l 1,35,36
 145 684 145 684 185.5 700 c 128,-1,37
 226 716 226 716 264 716 c 0,38,39
 309 716 309 716 336.5 693 c 128,-1,40
 364 670 364 670 364 624 c 0,41,42
 364 618 364 618 362 602 c 2,43,-1
 339 434 l 2,0,1
EndSplineSet
EndChar

StartChar: uni0394
Encoding: 916 916 426
Width: 546
Flags: W
LayerCount: 2
Fore
SplineSet
492 20 m 1,0,-1
 489 0 l 1,1,-1
 -57 0 l 1,2,-1
 -54 20 l 1,3,-1
 296 700 l 1,4,-1
 332 700 l 1,5,-1
 492 20 l 1,0,-1
450 38 m 1,6,-1
 307 654 l 1,7,-1
 -8 38 l 1,8,-1
 450 38 l 1,6,-1
EndSplineSet
EndChar

StartChar: uni03A9
Encoding: 937 937 427
Width: 676
Flags: W
LayerCount: 2
Fore
SplineSet
-2 38 m 1,0,-1
 188 38 l 1,1,-1
 203 145 l 1,2,3
 132 162 132 162 90 225.5 c 128,-1,4
 48 289 48 289 48 380 c 0,5,6
 48 478 48 478 88.5 553 c 128,-1,7
 129 628 129 628 202 669 c 128,-1,8
 275 710 275 710 371 710 c 0,9,10
 495 710 495 710 563 643 c 128,-1,11
 631 576 631 576 631 452 c 0,12,13
 631 331 631 331 569.5 249.5 c 128,-1,14
 508 168 508 168 397 141 c 1,15,-1
 384 38 l 1,16,-1
 574 38 l 1,17,-1
 569 0 l 1,18,-1
 339 0 l 1,19,-1
 361 170 l 1,20,21
 471 198 471 198 529 270.5 c 128,-1,22
 587 343 587 343 587 452 c 0,23,24
 587 555 587 555 529 613 c 128,-1,25
 471 671 471 671 368 671 c 0,26,27
 288 671 288 671 225.5 634.5 c 128,-1,28
 163 598 163 598 128 531.5 c 128,-1,29
 93 465 93 465 93 380 c 0,30,31
 93 292 93 292 129.5 242 c 128,-1,32
 166 192 166 192 246 170 c 1,33,-1
 224 0 l 1,34,-1
 -7 0 l 1,35,-1
 -2 38 l 1,0,-1
EndSplineSet
EndChar

StartChar: uni03BC
Encoding: 956 956 428
Width: 611
GlyphClass: 2
Flags: W
AnchorPoint: "Anchor-6" 534 523 basechar 0
AnchorPoint: "Anchor-5" 325 550 basechar 0
AnchorPoint: "Anchor-4" 502 10 basechar 0
AnchorPoint: "Anchor-3" 248 0 basechar 0
LayerCount: 2
Fore
SplineSet
477 113 m 2,0,1
 472 82 472 82 472 53 c 0,2,3
 472 35 472 35 477 7 c 1,4,5
 467 -5 467 -5 447 -5 c 0,6,7
 428 -5 428 -5 428 40 c 0,8,9
 428 63 428 63 430 78 c 1,10,11
 351 -12 351 -12 236 -12 c 0,12,13
 181 -12 181 -12 141.5 7.5 c 128,-1,14
 102 27 102 27 85 64 c 1,15,-1
 44 -220 l 1,16,-1
 1 -220 l 1,17,-1
 111 550 l 1,18,-1
 153 550 l 1,19,-1
 104 198 l 2,20,21
 101 177 101 177 101 159 c 0,22,23
 101 91 101 91 138 57.5 c 128,-1,24
 175 24 175 24 237 24 c 0,25,26
 296 24 296 24 347 52.5 c 128,-1,27
 398 81 398 81 437 133 c 1,28,-1
 496 550 l 1,29,-1
 538 550 l 1,30,-1
 477 113 l 2,0,1
EndSplineSet
EndChar

StartChar: pi
Encoding: 960 960 429
Width: 640
Flags: W
LayerCount: 2
Fore
SplineSet
408 10 m 128,-1,1
 385 30 385 30 385 70 c 0,2,3
 385 84 385 84 386 91 c 2,4,-1
 446 514 l 1,5,-1
 186 514 l 1,6,-1
 114 0 l 1,7,-1
 74 0 l 1,8,-1
 146 514 l 1,9,-1
 44 514 l 1,10,-1
 49 550 l 1,11,-1
 617 550 l 1,12,-1
 612 514 l 1,13,-1
 486 514 l 1,14,-1
 427 95 l 2,15,16
 426 88 426 88 426 77 c 0,17,18
 426 26 426 26 480 26 c 0,19,20
 500 26 500 26 524.5 31.5 c 128,-1,21
 549 37 549 37 562 44 c 1,22,-1
 558 13 l 1,23,24
 514 -10 514 -10 474 -10 c 0,25,0
 431 -10 431 -10 408 10 c 128,-1,1
EndSplineSet
EndChar

StartChar: uni0E01
Encoding: 3585 3585 430
Width: 605
GlyphClass: 2
Flags: W
AnchorPoint: "Anchor-12" 545 550 basechar 0
AnchorPoint: "Anchor-11" 468 0 basechar 0
LayerCount: 2
Fore
SplineSet
466.5 539.5 m 128,-1,1
 523 494 523 494 523 413 c 0,2,3
 523 397 523 397 520 379 c 2,4,-1
 468 0 l 1,5,-1
 426 0 l 1,6,-1
 479 381 l 2,7,8
 481 401 481 401 481 413 c 0,9,10
 481 479 481 479 437 514 c 128,-1,11
 393 549 393 549 316 549 c 0,12,13
 257 549 257 549 207.5 532.5 c 128,-1,14
 158 516 158 516 129.5 491 c 128,-1,15
 101 466 101 466 101 444 c 0,16,17
 101 424 101 424 126 407.5 c 128,-1,18
 151 391 151 391 180 391 c 0,19,20
 187 391 187 391 214 396 c 0,21,22
 231 401 231 401 242 401 c 0,23,24
 248 401 248 401 254.5 391 c 128,-1,25
 261 381 261 381 261 373 c 256,26,27
 261 365 261 365 253 365 c 0,28,29
 202 365 202 365 172.5 347.5 c 128,-1,30
 143 330 143 330 130 299 c 128,-1,31
 117 268 117 268 110 221 c 2,32,-1
 79 0 l 1,33,-1
 37 0 l 1,34,-1
 68 221 l 2,35,36
 75 274 75 274 92 307 c 128,-1,37
 109 340 109 340 139 361 c 1,38,39
 111 368 111 368 85 392.5 c 128,-1,40
 59 417 59 417 59 443 c 0,41,42
 59 478 59 478 93.5 511 c 128,-1,43
 128 544 128 544 188 564.5 c 128,-1,44
 248 585 248 585 320 585 c 0,45,0
 410 585 410 585 466.5 539.5 c 128,-1,1
EndSplineSet
EndChar

StartChar: uni0E02
Encoding: 3586 3586 431
Width: 560
GlyphClass: 2
Flags: W
AnchorPoint: "Anchor-12" 500 550 basechar 0
AnchorPoint: "Anchor-11" 423 0 basechar 0
LayerCount: 2
Fore
SplineSet
131.5 23.5 m 128,-1,1
 93 56 93 56 93 119 c 0,2,3
 93 134 93 134 97 164.5 c 128,-1,4
 101 195 101 195 108 244 c 0,5,6
 109 254 109 254 113 259.5 c 128,-1,7
 117 265 117 265 125 270 c 0,8,9
 181 307 181 307 211 330 c 128,-1,10
 241 353 241 353 261.5 385.5 c 128,-1,11
 282 418 282 418 282 461 c 256,12,13
 282 504 282 504 256.5 525.5 c 128,-1,14
 231 547 231 547 192 547 c 0,15,16
 143 547 143 547 115.5 522.5 c 128,-1,17
 88 498 88 498 88 455 c 0,18,19
 88 433 88 433 101 419 c 128,-1,20
 114 405 114 405 136 405 c 0,21,22
 164 405 164 405 178 421.5 c 128,-1,23
 192 438 192 438 192 464 c 0,24,25
 192 482 192 482 182 496 c 128,-1,26
 172 510 172 510 156 516 c 1,27,28
 165 522 165 522 175 522 c 0,29,30
 192 522 192 522 208 506.5 c 128,-1,31
 224 491 224 491 224 464 c 0,32,33
 224 423 224 423 197.5 398 c 128,-1,34
 171 373 171 373 129 373 c 0,35,36
 97 373 97 373 74.5 396.5 c 128,-1,37
 52 420 52 420 52 454 c 0,38,39
 52 513 52 513 93.5 546 c 128,-1,40
 135 579 135 579 195 579 c 0,41,42
 246 579 246 579 283.5 548 c 128,-1,43
 321 517 321 517 321 464 c 0,44,45
 321 416 321 416 302 380.5 c 128,-1,46
 283 345 283 345 254.5 320 c 128,-1,47
 226 295 226 295 176 260 c 2,48,-1
 150 242 l 1,49,-1
 147 218 l 2,50,51
 135 135 135 135 135 126 c 0,52,53
 135 29 135 29 248 29 c 0,54,55
 321 29 321 29 357 59 c 128,-1,56
 393 89 393 89 403 159 c 2,57,-1
 462 576 l 1,58,-1
 504 576 l 1,59,-1
 445 159 l 2,60,61
 432 71 432 71 382.5 31 c 128,-1,62
 333 -9 333 -9 241 -9 c 0,63,0
 170 -9 170 -9 131.5 23.5 c 128,-1,1
EndSplineSet
EndChar

StartChar: uni0E03
Encoding: 3587 3587 432
Width: 596
GlyphClass: 2
Flags: W
AnchorPoint: "Anchor-12" 536 550 basechar 0
AnchorPoint: "Anchor-11" 459 0 basechar 0
LayerCount: 2
Fore
SplineSet
148 23.5 m 128,-1,1
 103 56 103 56 103 126 c 0,2,3
 103 145 103 145 113 219 c 0,4,5
 119 260 119 260 147.5 291.5 c 128,-1,6
 176 323 176 323 227 362 c 0,7,8
 279 403 279 403 304 431.5 c 128,-1,9
 329 460 329 460 329 498 c 0,10,11
 329 546 329 546 282 546 c 0,12,13
 261 546 261 546 244.5 534.5 c 128,-1,14
 228 523 228 523 212 501 c 1,15,16
 203 523 203 523 190 534.5 c 128,-1,17
 177 546 177 546 155 546 c 0,18,19
 124 546 124 546 104.5 527 c 128,-1,20
 85 508 85 508 85 475 c 0,21,22
 85 451 85 451 99 437.5 c 128,-1,23
 113 424 113 424 138 424 c 0,24,25
 165 424 165 424 182.5 439.5 c 128,-1,26
 200 455 200 455 206 480 c 1,27,28
 223 479 223 479 223 464 c 0,29,30
 223 436 223 436 196.5 414 c 128,-1,31
 170 392 170 392 133 392 c 256,32,33
 96 392 96 392 73 414 c 128,-1,34
 50 436 50 436 50 471 c 0,35,36
 50 516 50 516 80.5 548 c 128,-1,37
 111 580 111 580 155 580 c 0,38,39
 202 580 202 580 218 545 c 1,40,41
 245 580 245 580 290 580 c 0,42,43
 325 580 325 580 347 560.5 c 128,-1,44
 369 541 369 541 369 502 c 0,45,46
 369 453 369 453 340 417.5 c 128,-1,47
 311 382 311 382 255 339 c 0,48,49
 208 302 208 302 184 275.5 c 128,-1,50
 160 249 160 249 155 215 c 0,51,52
 145 143 145 143 145 134 c 0,53,54
 145 81 145 81 178.5 55 c 128,-1,55
 212 29 212 29 276 29 c 0,56,57
 421 29 421 29 439 159 c 2,58,-1
 498 576 l 1,59,-1
 540 576 l 1,60,-1
 481 159 l 2,61,62
 470 78 470 78 415 34.5 c 128,-1,63
 360 -9 360 -9 269 -9 c 0,64,0
 193 -9 193 -9 148 23.5 c 128,-1,1
EndSplineSet
EndChar

StartChar: uni0E04
Encoding: 3588 3588 433
Width: 624
GlyphClass: 2
Flags: W
AnchorPoint: "Anchor-12" 564 550 basechar 0
AnchorPoint: "Anchor-11" 487 0 basechar 0
LayerCount: 2
Fore
SplineSet
485.5 542.5 m 128,-1,1
 541 499 541 499 541 409 c 0,2,3
 541 383 541 383 537 360 c 2,4,-1
 487 0 l 1,5,-1
 445 0 l 1,6,-1
 495 355 l 2,7,8
 499 389 499 389 499 402 c 0,9,10
 499 480 499 480 455 515 c 128,-1,11
 411 550 411 550 329 550 c 0,12,13
 224 550 224 550 164 486.5 c 128,-1,14
 104 423 104 423 104 315 c 0,15,16
 104 267 104 267 117 230 c 1,17,18
 195 385 195 385 313 385 c 0,19,20
 354 385 354 385 378.5 361.5 c 128,-1,21
 403 338 403 338 403 302 c 0,22,23
 403 254 403 254 374 224.5 c 128,-1,24
 345 195 345 195 299 195 c 0,25,26
 268 195 268 195 244.5 211 c 128,-1,27
 221 227 221 227 221 249 c 0,28,29
 221 274 221 274 241 283 c 1,30,31
 251 227 251 227 299 227 c 0,32,33
 331 227 331 227 349 246 c 128,-1,34
 367 265 367 265 367 299 c 0,35,36
 367 323 367 323 351 337 c 128,-1,37
 335 351 335 351 306 351 c 0,38,39
 254 351 254 351 208.5 303.5 c 128,-1,40
 163 256 163 256 130.5 176 c 128,-1,41
 98 96 98 96 83 0 c 1,42,-1
 56 0 l 2,43,44
 40 0 40 0 44 20 c 0,45,46
 49 57 49 57 77 133 c 0,47,48
 90 172 90 172 90 176 c 0,49,50
 90 182 90 182 83 203 c 0,51,52
 73 230 73 230 67 256 c 128,-1,53
 61 282 61 282 61 314 c 0,54,55
 61 439 61 439 132.5 512.5 c 128,-1,56
 204 586 204 586 334 586 c 0,57,0
 430 586 430 586 485.5 542.5 c 128,-1,1
EndSplineSet
EndChar

StartChar: uni0E05
Encoding: 3589 3589 434
Width: 640
GlyphClass: 2
Flags: W
AnchorPoint: "Anchor-12" 580 550 basechar 0
AnchorPoint: "Anchor-11" 503 0 basechar 0
LayerCount: 2
Fore
SplineSet
533 531 m 128,-1,1
 560 494 560 494 560 431 c 0,2,3
 560 407 560 407 555 370 c 2,4,-1
 503 0 l 1,5,-1
 461 0 l 1,6,-1
 513 370 l 2,7,8
 518 401 518 401 518 434 c 0,9,10
 518 486 518 486 499.5 513 c 128,-1,11
 481 540 481 540 441 550 c 1,12,13
 436 547 436 547 397 525 c 0,14,15
 363 507 363 507 338 491 c 1,16,17
 272 535 272 535 248 550 c 1,18,19
 179 528 179 528 141.5 463 c 128,-1,20
 104 398 104 398 104 315 c 0,21,22
 104 267 104 267 117 230 c 1,23,24
 152 300 152 300 202.5 342.5 c 128,-1,25
 253 385 253 385 318 385 c 0,26,27
 359 385 359 385 383.5 361.5 c 128,-1,28
 408 338 408 338 408 302 c 0,29,30
 408 254 408 254 379 224.5 c 128,-1,31
 350 195 350 195 304 195 c 0,32,33
 273 195 273 195 249.5 211 c 128,-1,34
 226 227 226 227 226 249 c 0,35,36
 226 274 226 274 246 283 c 1,37,38
 256 227 256 227 304 227 c 0,39,40
 336 227 336 227 354 246 c 128,-1,41
 372 265 372 265 372 299 c 0,42,43
 372 323 372 323 356 337 c 128,-1,44
 340 351 340 351 311 351 c 0,45,46
 259 351 259 351 212 303.5 c 128,-1,47
 165 256 165 256 131.5 176 c 128,-1,48
 98 96 98 96 83 0 c 1,49,-1
 56 0 l 2,50,51
 40 0 40 0 44 20 c 0,52,53
 49 57 49 57 77 133 c 0,54,55
 90 172 90 172 90 176 c 0,56,57
 90 182 90 182 83 203 c 0,58,59
 73 230 73 230 67 256 c 128,-1,60
 61 282 61 282 61 314 c 0,61,62
 61 415 61 415 110.5 485.5 c 128,-1,63
 160 556 160 556 254 586 c 1,64,65
 259 583 259 583 294 561 c 0,66,67
 332 539 332 539 343 529 c 1,68,69
 361 542 361 542 395 558 c 0,70,71
 429 576 429 576 445 586 c 1,72,0
 506 568 506 568 533 531 c 128,-1,1
EndSplineSet
EndChar

StartChar: uni0E06
Encoding: 3590 3590 435
Width: 652
GlyphClass: 2
Flags: W
AnchorPoint: "Anchor-12" 571 550 basechar 0
AnchorPoint: "Anchor-11" 494 0 basechar 0
LayerCount: 2
Fore
SplineSet
575 576 m 1,0,-1
 509 111 l 2,1,2
 505 80 505 80 505 50 c 0,3,4
 503 19 503 19 502 15 c 0,5,6
 499 0 499 0 486 0 c 2,7,-1
 455 0 l 1,8,9
 433 94 433 94 370.5 151.5 c 128,-1,10
 308 209 308 209 229 219 c 1,11,-1
 216 107 l 2,12,13
 210 55 210 55 185 23 c 128,-1,14
 160 -9 160 -9 115 -9 c 0,15,16
 76 -9 76 -9 48 16.5 c 128,-1,17
 20 42 20 42 20 88 c 0,18,19
 20 164 20 164 69.5 210 c 128,-1,20
 119 256 119 256 197 258 c 1,21,22
 207 288 207 288 222.5 309.5 c 128,-1,23
 238 331 238 331 268 367 c 0,24,25
 301 404 301 404 317.5 434 c 128,-1,26
 334 464 334 464 334 500 c 0,27,28
 334 546 334 546 288 546 c 0,29,30
 248 546 248 546 217 501 c 1,31,32
 197 546 197 546 155 546 c 0,33,34
 124 546 124 546 107.5 528 c 128,-1,35
 91 510 91 510 91 476 c 0,36,37
 91 451 91 451 105 437.5 c 128,-1,38
 119 424 119 424 145 424 c 0,39,40
 196 424 196 424 210 480 c 1,41,42
 225 479 225 479 225 464 c 0,43,44
 225 436 225 436 202 414 c 128,-1,45
 179 392 179 392 142 392 c 0,46,47
 103 392 103 392 78.5 415 c 128,-1,48
 54 438 54 438 54 476 c 0,49,50
 54 522 54 522 82.5 551 c 128,-1,51
 111 580 111 580 154 580 c 0,52,53
 179 580 179 580 196 570.5 c 128,-1,54
 213 561 213 561 220 545 c 1,55,56
 247 580 247 580 294 580 c 0,57,58
 330 580 330 580 353 560 c 128,-1,59
 376 540 376 540 376 501 c 256,60,61
 376 462 376 462 358 429 c 128,-1,62
 340 396 340 396 300 347 c 0,63,64
 272 312 272 312 260 295 c 128,-1,65
 248 278 248 278 239 256 c 1,66,67
 312 246 312 246 373.5 201.5 c 128,-1,68
 435 157 435 157 465 95 c 1,69,-1
 533 576 l 1,70,-1
 575 576 l 1,0,-1
180 162 m 0,72,73
 182 174 182 174 183.5 189.5 c 128,-1,74
 185 205 185 205 188 221 c 1,75,76
 122 218 122 218 92.5 184 c 128,-1,77
 63 150 63 150 63 89 c 0,78,79
 63 58 63 58 76.5 42 c 128,-1,80
 90 26 90 26 113 26 c 0,81,82
 140 26 140 26 153.5 45.5 c 128,-1,83
 167 65 167 65 174 112 c 0,84,71
 176 124 176 124 180 162 c 0,72,73
EndSplineSet
EndChar

StartChar: uni0E07
Encoding: 3591 3591 436
Width: 520
GlyphClass: 2
Flags: W
AnchorPoint: "Anchor-12" 443 550 basechar 0
AnchorPoint: "Anchor-11" 365 0 basechar 0
LayerCount: 2
Fore
SplineSet
160.5 6.5 m 128,-1,1
 130 17 130 17 129 28 c 0,2,3
 120 143 120 143 93.5 232 c 128,-1,4
 67 321 67 321 37 372 c 1,5,6
 42 377 42 377 50.5 381 c 128,-1,7
 59 385 59 385 66 385 c 0,8,9
 77 385 77 385 82 381 c 128,-1,10
 87 377 87 377 94 362 c 0,11,12
 116 320 116 320 136.5 239.5 c 128,-1,13
 157 159 157 159 166 48 c 0,14,15
 167 40 167 40 186 34 c 128,-1,16
 205 28 205 28 235 28 c 0,17,18
 272 28 272 28 288 33 c 128,-1,19
 304 38 304 38 306 48 c 0,20,21
 353 201 353 201 385 316.5 c 128,-1,22
 417 432 417 432 417 480 c 0,23,24
 417 517 417 517 401.5 532.5 c 128,-1,25
 386 548 386 548 356 548 c 256,26,27
 326 548 326 548 306.5 530.5 c 128,-1,28
 287 513 287 513 287 485 c 0,29,30
 287 463 287 463 300 451 c 128,-1,31
 313 439 313 439 336 439 c 0,32,33
 364 439 364 439 386 455 c 1,34,35
 388 449 388 449 388 445 c 0,36,37
 388 430 388 430 372 418.5 c 128,-1,38
 356 407 356 407 332 407 c 0,39,40
 298 407 298 407 275.5 428.5 c 128,-1,41
 253 450 253 450 253 484 c 0,42,43
 253 528 253 528 282.5 555 c 128,-1,44
 312 582 312 582 358 582 c 0,45,46
 458 582 458 582 458 482 c 0,47,48
 458 427 458 427 424 307.5 c 128,-1,49
 390 188 390 188 338 28 c 0,50,51
 333 16 333 16 301.5 6 c 128,-1,52
 270 -4 270 -4 230 -4 c 0,53,0
 191 -4 191 -4 160.5 6.5 c 128,-1,1
EndSplineSet
EndChar

StartChar: uni0E08
Encoding: 3592 3592 437
Width: 588
GlyphClass: 2
Flags: W
AnchorPoint: "Anchor-12" 502 550 basechar 0
AnchorPoint: "Anchor-11" 425 0 basechar 0
LayerCount: 2
Fore
SplineSet
240.5 -1.5 m 128,-1,1
 217 6 217 6 218 18 c 0,2,3
 226 178 226 178 226 235 c 0,4,5
 226 274 226 274 208.5 295 c 128,-1,6
 191 316 191 316 160 316 c 0,7,8
 132 316 132 316 118 299 c 128,-1,9
 104 282 104 282 104 256 c 0,10,11
 104 231 104 231 119 217 c 128,-1,12
 134 203 134 203 159 203 c 0,13,14
 179 203 179 203 196 215 c 1,15,16
 199 209 199 209 199 204 c 0,17,18
 199 191 199 191 185.5 182 c 128,-1,19
 172 173 172 173 149 173 c 0,20,21
 114 173 114 173 91 196 c 128,-1,22
 68 219 68 219 68 253 c 0,23,24
 68 296 68 296 94.5 323 c 128,-1,25
 121 350 121 350 166 350 c 256,26,27
 211 350 211 350 239 318.5 c 128,-1,28
 267 287 267 287 267 227 c 0,29,30
 267 170 267 170 260 37 c 0,31,32
 260 33 260 33 275.5 29.5 c 128,-1,33
 291 26 291 26 309 26 c 0,34,35
 329 26 329 26 346 29.5 c 128,-1,36
 363 33 363 33 364 38 c 0,37,38
 371 60 371 60 382.5 92 c 128,-1,39
 394 124 394 124 401 146 c 0,40,41
 433 232 433 232 449 289 c 128,-1,42
 465 346 465 346 465 397 c 0,43,44
 465 439 465 439 445.5 474 c 128,-1,45
 426 509 426 509 389 529.5 c 128,-1,46
 352 550 352 550 302 550 c 0,47,48
 240 550 240 550 193.5 530.5 c 128,-1,49
 147 511 147 511 95 471 c 0,50,51
 90 467 90 467 82 467 c 0,52,53
 76 467 76 467 68.5 477 c 128,-1,54
 61 487 61 487 57 497 c 1,55,56
 103 536 103 536 166.5 561 c 128,-1,57
 230 586 230 586 302 586 c 0,58,59
 361 586 361 586 408 562 c 128,-1,60
 455 538 455 538 481 496 c 128,-1,61
 507 454 507 454 507 402 c 0,62,63
 507 342 507 342 489.5 280 c 128,-1,64
 472 218 472 218 434 118 c 0,65,66
 402 34 402 34 397 18 c 0,67,68
 392 6 392 6 368 -1.5 c 128,-1,69
 344 -9 344 -9 304 -9 c 256,70,0
 264 -9 264 -9 240.5 -1.5 c 128,-1,1
EndSplineSet
EndChar

StartChar: uni0E09
Encoding: 3593 3593 438
Width: 629
GlyphClass: 2
Flags: W
AnchorPoint: "Anchor-12" 563 550 basechar 0
AnchorPoint: "Anchor-11" 485 0 basechar 0
LayerCount: 2
Fore
SplineSet
524.5 157 m 128,-1,1
 542 130 542 130 542 98 c 0,2,3
 542 52 542 52 510.5 24 c 128,-1,4
 479 -4 479 -4 437 -4 c 0,5,6
 399 -4 399 -4 371.5 22.5 c 128,-1,7
 344 49 344 49 344 86 c 0,8,9
 344 118 344 118 355 139.5 c 128,-1,10
 366 161 366 161 386 177 c 1,11,12
 319 171 319 171 261.5 118 c 128,-1,13
 204 65 204 65 176 0 c 1,14,-1
 156 0 l 2,15,16
 147 0 147 0 144.5 3 c 128,-1,17
 142 6 142 6 144 15 c 2,18,-1
 154 85 l 2,19,20
 159 120 159 120 171 170 c 0,21,22
 186 232 186 232 186 261 c 0,23,24
 186 292 186 292 170.5 308.5 c 128,-1,25
 155 325 155 325 126 325 c 0,26,27
 99 325 99 325 83.5 308 c 128,-1,28
 68 291 68 291 68 266 c 0,29,30
 68 242 68 242 83 228 c 128,-1,31
 98 214 98 214 122 214 c 0,32,33
 143 214 143 214 158 226 c 1,34,35
 161 220 161 220 161 215 c 0,36,37
 161 202 161 202 148 193.5 c 128,-1,38
 135 185 135 185 112 185 c 0,39,40
 78 185 78 185 55.5 207.5 c 128,-1,41
 33 230 33 230 33 263 c 0,42,43
 33 305 33 305 60 331.5 c 128,-1,44
 87 358 87 358 132 358 c 0,45,46
 175 358 175 358 201.5 333.5 c 128,-1,47
 228 309 228 309 228 264 c 0,48,49
 228 236 228 236 220 200 c 128,-1,50
 212 164 212 164 211 158 c 0,51,52
 199 101 199 101 199 101 c 1,53,54
 239 152 239 152 291 181.5 c 128,-1,55
 343 211 343 211 402 211 c 0,56,57
 413 211 413 211 433 209 c 1,58,59
 455 223 455 223 467.5 237.5 c 128,-1,60
 480 252 480 252 483 274 c 2,61,-1
 496 365 l 2,62,63
 498 385 498 385 498 395 c 0,64,65
 498 462 498 462 451 506 c 128,-1,66
 404 550 404 550 322 550 c 0,67,68
 253 550 253 550 199.5 529.5 c 128,-1,69
 146 509 146 509 95 471 c 0,70,71
 90 467 90 467 82 467 c 0,72,73
 76 467 76 467 68.5 477 c 128,-1,74
 61 487 61 487 57 497 c 1,75,76
 102 536 102 536 172 561 c 128,-1,77
 242 586 242 586 322 586 c 0,78,79
 386 586 386 586 436 562.5 c 128,-1,80
 486 539 486 539 513.5 496.5 c 128,-1,81
 541 454 541 454 541 400 c 0,82,83
 541 383 541 383 538 365 c 2,84,-1
 524 264 l 2,85,86
 521 243 521 243 508.5 228 c 128,-1,87
 496 213 496 213 474 198 c 1,88,0
 507 184 507 184 524.5 157 c 128,-1,1
487.5 47 m 128,-1,90
 506 64 506 64 506 98 c 0,91,92
 506 126 506 126 488.5 146.5 c 128,-1,93
 471 167 471 167 438 174 c 1,94,95
 411 155 411 155 395.5 135 c 128,-1,96
 380 115 380 115 380 86 c 0,97,98
 380 62 380 62 396.5 46 c 128,-1,99
 413 30 413 30 437 30 c 0,100,89
 469 30 469 30 487.5 47 c 128,-1,90
EndSplineSet
EndChar

StartChar: uni0E0A
Encoding: 3594 3594 439
Width: 615
GlyphClass: 2
Flags: W
AnchorPoint: "Anchor-12" 533 550 basechar 0
AnchorPoint: "Anchor-11" 456 0 basechar 0
LayerCount: 2
Fore
SplineSet
566 583 m 0,1,2
 561 545 561 545 530.5 506.5 c 128,-1,3
 500 468 500 468 458 451 c 1,4,5
 505 433 505 433 505 373 c 0,6,7
 505 350 505 350 503 339 c 2,8,-1
 478 157 l 2,9,10
 466 73 466 73 418 32 c 128,-1,11
 370 -9 370 -9 268 -9 c 0,12,13
 186 -9 186 -9 140 25.5 c 128,-1,14
 94 60 94 60 94 126 c 0,15,16
 94 134 94 134 96 152 c 2,17,-1
 110 250 l 2,18,19
 113 268 113 268 126 276 c 2,20,-1
 151 291 l 2,21,22
 196 318 196 318 223.5 338.5 c 128,-1,23
 251 359 251 359 269.5 389 c 128,-1,24
 288 419 288 419 288 461 c 0,25,26
 288 498 288 498 263.5 521.5 c 128,-1,27
 239 545 239 545 195 545 c 0,28,29
 148 545 148 545 121.5 522 c 128,-1,30
 95 499 95 499 95 458 c 0,31,32
 95 433 95 433 110.5 417.5 c 128,-1,33
 126 402 126 402 150 402 c 0,34,35
 179 402 179 402 194 417.5 c 128,-1,36
 209 433 209 433 209 462 c 0,37,38
 209 494 209 494 186 513 c 1,39,40
 192 516 192 516 203 516 c 0,41,42
 217 516 217 516 229.5 500 c 128,-1,43
 242 484 242 484 242 462 c 0,44,45
 242 421 242 421 215 395.5 c 128,-1,46
 188 370 188 370 145 370 c 0,47,48
 111 370 111 370 85 396 c 128,-1,49
 59 422 59 422 59 458 c 0,50,51
 59 510 59 510 97 544.5 c 128,-1,52
 135 579 135 579 198 579 c 0,53,54
 255 579 255 579 291.5 546 c 128,-1,55
 328 513 328 513 328 462 c 0,56,57
 328 415 328 415 307 380 c 128,-1,58
 286 345 286 345 255 320.5 c 128,-1,59
 224 296 224 296 174 264 c 2,60,-1
 152 250 l 1,61,-1
 138 153 l 2,62,63
 136 135 136 135 136 127 c 0,64,65
 136 79 136 79 170.5 53 c 128,-1,66
 205 27 205 27 268 27 c 0,67,68
 348 27 348 27 387.5 59.5 c 128,-1,69
 427 92 427 92 436 159 c 2,70,-1
 461 339 l 2,71,72
 464 359 464 359 464 374 c 0,73,74
 464 404 464 404 451.5 416.5 c 128,-1,75
 439 429 439 429 413 429 c 0,76,77
 404 429 404 429 393 427 c 128,-1,78
 382 425 382 425 374 425 c 0,79,80
 368 425 368 425 363 434.5 c 128,-1,81
 358 444 358 444 358 452 c 0,82,83
 358 459 358 459 365 459 c 0,84,85
 428 459 428 459 473 500.5 c 128,-1,86
 518 542 518 542 531 611 c 1,87,0
 569 611 569 611 566 583 c 0,1,2
EndSplineSet
EndChar

StartChar: uni0E0B
Encoding: 3595 3595 440
Width: 615
GlyphClass: 2
Flags: W
AnchorPoint: "Anchor-12" 535 550 basechar 0
AnchorPoint: "Anchor-11" 458 0 basechar 0
LayerCount: 2
Fore
SplineSet
568 585 m 0,1,2
 563 547 563 547 532.5 507 c 128,-1,3
 502 467 502 467 459 451 c 1,4,5
 507 430 507 430 507 369 c 0,6,7
 507 350 507 350 505 339 c 2,8,-1
 480 159 l 2,9,10
 468 76 468 76 417.5 33.5 c 128,-1,11
 367 -9 367 -9 271 -9 c 0,12,13
 189 -9 189 -9 146 22.5 c 128,-1,14
 103 54 103 54 103 125 c 0,15,16
 103 147 103 147 105 159 c 2,17,-1
 114 221 l 2,18,19
 121 268 121 268 148 299 c 128,-1,20
 175 330 175 330 225 368 c 0,21,22
 272 404 272 404 294 430 c 128,-1,23
 316 456 316 456 316 494 c 0,24,25
 316 520 316 520 304 533 c 128,-1,26
 292 546 292 546 270 546 c 0,27,28
 249 546 249 546 233.5 534.5 c 128,-1,29
 218 523 218 523 202 501 c 1,30,31
 184 546 184 546 143 546 c 0,32,33
 113 546 113 546 95 528 c 128,-1,34
 77 510 77 510 77 478 c 0,35,36
 77 453 77 453 90.5 438.5 c 128,-1,37
 104 424 104 424 128 424 c 0,38,39
 155 424 155 424 172 439.5 c 128,-1,40
 189 455 189 455 195 480 c 1,41,42
 213 479 213 479 213 462 c 0,43,44
 213 434 213 434 187 413 c 128,-1,45
 161 392 161 392 124 392 c 256,46,47
 87 392 87 392 63.5 416 c 128,-1,48
 40 440 40 440 40 476 c 0,49,50
 40 520 40 520 69 550 c 128,-1,51
 98 580 98 580 142 580 c 0,52,53
 188 580 188 580 207 545 c 1,54,55
 230 580 230 580 277 580 c 0,56,57
 312 580 312 580 335 558 c 128,-1,58
 358 536 358 536 358 496 c 0,59,60
 358 462 358 462 343.5 435.5 c 128,-1,61
 329 409 329 409 308.5 389.5 c 128,-1,62
 288 370 288 370 253 344 c 0,63,64
 207 309 207 309 183 283 c 128,-1,65
 159 257 159 257 154 220 c 2,66,-1
 145 159 l 2,67,68
 143 147 143 147 143 126 c 0,69,70
 143 71 143 71 174 49 c 128,-1,71
 205 27 205 27 270 27 c 0,72,73
 349 27 349 27 389 60 c 128,-1,74
 429 93 429 93 438 159 c 2,75,-1
 463 339 l 2,76,77
 466 359 466 359 466 374 c 0,78,79
 466 404 466 404 453.5 416.5 c 128,-1,80
 441 429 441 429 415 429 c 0,81,82
 408 429 408 429 396.5 427 c 128,-1,83
 385 425 385 425 379 425 c 0,84,85
 375 425 375 425 370 434.5 c 128,-1,86
 365 444 365 444 365 450 c 0,87,88
 365 459 365 459 372 459 c 0,89,90
 435 459 435 459 477 501 c 128,-1,91
 519 543 519 543 532 611 c 1,92,0
 571 611 571 611 568 585 c 0,1,2
EndSplineSet
EndChar

StartChar: uni0E0C
Encoding: 3596 3596 441
Width: 918
GlyphClass: 2
Flags: W
AnchorPoint: "Anchor-12" 841 550 basechar 0
AnchorPoint: "Anchor-11" 764 0 basechar 0
LayerCount: 2
Fore
SplineSet
845 576 m 1,0,-1
 781 124 l 2,1,2
 777 98 777 98 775 74.5 c 128,-1,3
 773 51 773 51 772 43 c 0,4,5
 770 24 770 24 769 18 c 0,6,7
 767 8 767 8 763.5 4 c 128,-1,8
 760 0 760 0 753 0 c 2,9,-1
 726 0 l 1,10,11
 699 105 699 105 641 157.5 c 128,-1,12
 583 210 583 210 508 215 c 1,13,14
 506 205 506 205 504 181 c 0,15,16
 501 164 501 164 498 141 c 128,-1,17
 495 118 495 118 490 91 c 0,18,19
 483 45 483 45 457 18 c 128,-1,20
 431 -9 431 -9 395 -9 c 256,21,22
 359 -9 359 -9 338 14 c 128,-1,23
 317 37 317 37 317 80 c 0,24,25
 317 154 317 154 361 197.5 c 128,-1,26
 405 241 405 241 471 248 c 1,27,-1
 489 383 l 2,28,29
 491 397 491 397 491 420 c 0,30,31
 491 550 491 550 308 550 c 0,32,33
 248 550 248 550 201 534 c 128,-1,34
 154 518 154 518 128 493 c 128,-1,35
 102 468 102 468 102 443 c 0,36,37
 102 423 102 423 127 407 c 128,-1,38
 152 391 152 391 181 391 c 0,39,40
 192 391 192 391 214 395 c 0,41,42
 234 399 234 399 241 399 c 0,43,44
 247 399 247 399 255 387 c 128,-1,45
 263 375 263 375 263 367 c 0,46,47
 263 360 263 360 256 360 c 0,48,49
 203 360 203 360 173 343.5 c 128,-1,50
 143 327 143 327 129 297.5 c 128,-1,51
 115 268 115 268 108 222 c 2,52,-1
 92 109 l 2,53,54
 91 102 91 102 91 90 c 0,55,56
 91 60 91 60 106.5 43.5 c 128,-1,57
 122 27 122 27 149 27 c 0,58,59
 180 27 180 27 196 42.5 c 128,-1,60
 212 58 212 58 212 88 c 0,61,62
 212 112 212 112 199 124.5 c 128,-1,63
 186 137 186 137 163 137 c 0,64,65
 137 137 137 137 116 125 c 1,66,67
 113 130 113 130 113 136 c 0,68,69
 113 149 113 149 128 159 c 128,-1,70
 143 169 143 169 168 169 c 0,71,72
 203 169 203 169 225.5 148.5 c 128,-1,73
 248 128 248 128 248 90 c 0,74,75
 248 45 248 45 221 19 c 128,-1,76
 194 -7 194 -7 149 -7 c 0,77,78
 101 -7 101 -7 75 18.5 c 128,-1,79
 49 44 49 44 49 85 c 0,80,81
 49 100 49 100 50 108 c 2,82,-1
 66 222 l 2,83,84
 73 274 73 274 90 308 c 128,-1,85
 107 342 107 342 137 363 c 1,86,87
 107 371 107 371 83 394 c 128,-1,88
 59 417 59 417 59 444 c 0,89,90
 59 477 59 477 89.5 510 c 128,-1,91
 120 543 120 543 178 564.5 c 128,-1,92
 236 586 236 586 313 586 c 0,93,94
 411 586 411 586 472.5 545 c 128,-1,95
 534 504 534 504 534 418 c 0,96,97
 534 401 534 401 531 383 c 2,98,-1
 513 250 l 1,99,100
 584 246 584 246 641.5 209 c 128,-1,101
 699 172 699 172 735 93 c 1,102,-1
 803 576 l 1,103,-1
 845 576 l 1,0,-1
455 137 m 1,104,-1
 466 213 l 1,105,106
 414 206 414 206 387 172.5 c 128,-1,107
 360 139 360 139 360 82 c 0,108,109
 360 26 360 26 398 26 c 0,110,111
 440 26 440 26 449 92 c 2,112,-1
 455 137 l 1,104,-1
EndSplineSet
EndChar

StartChar: uni0E240E45
Encoding: 65537 -1 442
Width: 925
Flags: W
LayerCount: 2
Fore
SplineSet
489 383 m 2,0,1
 491 397 491 397 491 420 c 0,2,3
 491 550 491 550 308 550 c 0,4,5
 248 550 248 550 201 534 c 128,-1,6
 154 518 154 518 128 493 c 128,-1,7
 102 468 102 468 102 443 c 0,8,9
 102 423 102 423 127 407 c 128,-1,10
 152 391 152 391 181 391 c 0,11,12
 192 391 192 391 214 395 c 0,13,14
 234 399 234 399 241 399 c 0,15,16
 247 399 247 399 255 387 c 128,-1,17
 263 375 263 375 263 367 c 0,18,19
 263 360 263 360 256 360 c 0,20,21
 203 360 203 360 173 343.5 c 128,-1,22
 143 327 143 327 129 297.5 c 128,-1,23
 115 268 115 268 108 222 c 2,24,-1
 92 109 l 2,25,26
 91 102 91 102 91 90 c 0,27,28
 91 60 91 60 106.5 43.5 c 128,-1,29
 122 27 122 27 149 27 c 0,30,31
 180 27 180 27 196 42.5 c 128,-1,32
 212 58 212 58 212 88 c 0,33,34
 212 112 212 112 199 124.5 c 128,-1,35
 186 137 186 137 163 137 c 0,36,37
 137 137 137 137 116 125 c 1,38,39
 113 130 113 130 113 136 c 0,40,41
 113 149 113 149 128 159 c 128,-1,42
 143 169 143 169 168 169 c 0,43,44
 203 169 203 169 225.5 148.5 c 128,-1,45
 248 128 248 128 248 90 c 0,46,47
 248 45 248 45 221 19 c 128,-1,48
 194 -7 194 -7 149 -7 c 0,49,50
 101 -7 101 -7 75 18.5 c 128,-1,51
 49 44 49 44 49 85 c 0,52,53
 49 100 49 100 50 108 c 2,54,-1
 66 222 l 2,55,56
 74 274 74 274 90.5 308 c 128,-1,57
 107 342 107 342 137 363 c 1,58,59
 107 371 107 371 83 394 c 128,-1,60
 59 417 59 417 59 444 c 0,61,62
 59 477 59 477 89.5 510 c 128,-1,63
 120 543 120 543 178 564.5 c 128,-1,64
 236 586 236 586 313 586 c 0,65,66
 373 586 373 586 421.5 570.5 c 128,-1,67
 470 555 470 555 498 522 c 1,68,69
 537 550 537 550 586.5 568 c 128,-1,70
 636 586 636 586 686 586 c 0,71,72
 762 586 762 586 805 550 c 128,-1,73
 848 514 848 514 848 445 c 0,74,75
 848 437 848 437 846 415 c 2,76,-1
 757 -220 l 1,77,-1
 715 -220 l 1,78,-1
 803 409 l 2,79,80
 805 429 805 429 805 439 c 0,81,82
 805 494 805 494 773 522.5 c 128,-1,83
 741 551 741 551 682 551 c 0,84,85
 597 551 597 551 518 493 c 1,86,87
 534 459 534 459 534 418 c 0,88,89
 534 401 534 401 531 383 c 2,90,-1
 447 -220 l 1,91,-1
 405 -220 l 1,92,-1
 489 383 l 2,0,1
EndSplineSet
Ligature2: "'liga' Standard Ligatures lookup 13 subtable" uni0E24 uni0E45
EndChar

StartChar: uni0E260E45
Encoding: 65538 -1 443
Width: 945
Flags: W
LayerCount: 2
Fore
SplineSet
502 366 m 2,0,1
 505 390 505 390 505 410 c 0,2,3
 505 488 505 488 457.5 519 c 128,-1,4
 410 550 410 550 329 550 c 0,5,6
 271 550 271 550 222.5 535.5 c 128,-1,7
 174 521 174 521 146 498 c 128,-1,8
 118 475 118 475 118 452 c 0,9,10
 118 433 118 433 135.5 418 c 128,-1,11
 153 403 153 403 174 395 c 128,-1,12
 195 387 195 387 203 387 c 0,13,14
 213 387 213 387 228 392 c 0,15,16
 250 398 250 398 263 398 c 0,17,18
 270 398 270 398 275.5 389 c 128,-1,19
 281 380 281 380 281 371 c 0,20,21
 281 366 281 366 280 362 c 128,-1,22
 279 358 279 358 277 358 c 0,23,24
 208 358 208 358 181.5 329.5 c 128,-1,25
 155 301 155 301 155 227 c 0,26,27
 155 206 155 206 159 170 c 0,28,29
 160 161 160 161 161 149 c 128,-1,30
 162 137 162 137 162 121 c 0,31,32
 162 61 162 61 131.5 26.5 c 128,-1,33
 101 -8 101 -8 49 -8 c 0,34,35
 12 -8 12 -8 -9.5 12.5 c 128,-1,36
 -31 33 -31 33 -31 66 c 0,37,38
 -31 96 -31 96 -17 118 c 128,-1,39
 -3 140 -3 140 17.5 151.5 c 128,-1,40
 38 163 38 163 57 163 c 0,41,42
 75 163 75 163 83.5 155.5 c 128,-1,43
 92 148 92 148 90 133 c 1,44,-1
 71 133 l 2,45,46
 40 133 40 133 22.5 115.5 c 128,-1,47
 5 98 5 98 5 69 c 0,48,49
 5 48 5 48 17.5 37 c 128,-1,50
 30 26 30 26 53 26 c 0,51,52
 122 26 122 26 122 122 c 0,53,54
 122 139 122 139 118 177 c 256,55,56
 114 215 114 215 114 237 c 0,57,58
 114 321 114 321 161 359 c 1,59,60
 126 371 126 371 98.5 395.5 c 128,-1,61
 71 420 71 420 71 448 c 0,62,63
 71 481 71 481 105.5 513 c 128,-1,64
 140 545 140 545 200.5 565.5 c 128,-1,65
 261 586 261 586 334 586 c 0,66,67
 392 586 392 586 439 570 c 128,-1,68
 486 554 486 554 514 519 c 1,69,70
 553 548 553 548 603.5 567 c 128,-1,71
 654 586 654 586 706 586 c 0,72,73
 782 586 782 586 825 550 c 128,-1,74
 868 514 868 514 868 445 c 0,75,76
 868 437 868 437 866 415 c 2,77,-1
 777 -220 l 1,78,-1
 735 -220 l 1,79,-1
 823 409 l 2,80,81
 825 429 825 429 825 439 c 0,82,83
 825 494 825 494 793 522.5 c 128,-1,84
 761 551 761 551 702 551 c 0,85,86
 616 551 616 551 532 489 c 1,87,88
 547 458 547 458 547 411 c 0,89,90
 547 390 547 390 544 366 c 2,91,-1
 462 -220 l 1,92,-1
 420 -220 l 1,93,-1
 502 366 l 2,0,1
EndSplineSet
Ligature2: "'liga' Standard Ligatures lookup 13 subtable" uni0E26 uni0E45
EndChar

StartChar: uni0E0D
Encoding: 3597 3597 444
Width: 940
GlyphClass: 2
Flags: W
AnchorPoint: "Anchor-12" 880 550 basechar 0
AnchorPoint: "Anchor-11" 761 -228 basechar 0
LayerCount: 2
Fore
SplineSet
476 22 m 128,-1,1
 436 53 436 53 436 120 c 0,2,3
 436 139 436 139 439 160 c 2,4,-1
 470 383 l 2,5,6
 472 397 472 397 472 420 c 0,7,8
 472 489 472 489 428 519.5 c 128,-1,9
 384 550 384 550 299 550 c 0,10,11
 240 550 240 550 195 534 c 128,-1,12
 150 518 150 518 126 493 c 128,-1,13
 102 468 102 468 102 443 c 0,14,15
 102 423 102 423 127 407 c 128,-1,16
 152 391 152 391 181 391 c 0,17,18
 192 391 192 391 214 395 c 0,19,20
 234 399 234 399 241 399 c 0,21,22
 247 399 247 399 255 387 c 128,-1,23
 263 375 263 375 263 367 c 0,24,25
 263 360 263 360 256 360 c 0,26,27
 203 360 203 360 173 343.5 c 128,-1,28
 143 327 143 327 129 297.5 c 128,-1,29
 115 268 115 268 108 222 c 2,30,-1
 92 109 l 2,31,32
 91 102 91 102 91 90 c 0,33,34
 91 60 91 60 106.5 43.5 c 128,-1,35
 122 27 122 27 149 27 c 0,36,37
 180 27 180 27 196 42.5 c 128,-1,38
 212 58 212 58 212 88 c 0,39,40
 212 112 212 112 199 124.5 c 128,-1,41
 186 137 186 137 163 137 c 0,42,43
 137 137 137 137 116 125 c 1,44,45
 113 130 113 130 113 136 c 0,46,47
 113 149 113 149 128 159 c 128,-1,48
 143 169 143 169 168 169 c 0,49,50
 203 169 203 169 225.5 148.5 c 128,-1,51
 248 128 248 128 248 90 c 0,52,53
 248 45 248 45 221 19 c 128,-1,54
 194 -7 194 -7 149 -7 c 0,55,56
 101 -7 101 -7 75 18.5 c 128,-1,57
 49 44 49 44 49 85 c 0,58,59
 49 100 49 100 50 108 c 2,60,-1
 66 222 l 2,61,62
 74 274 74 274 90.5 308 c 128,-1,63
 107 342 107 342 137 363 c 1,64,65
 107 371 107 371 83 394 c 128,-1,66
 59 417 59 417 59 444 c 0,67,68
 59 477 59 477 87.5 510 c 128,-1,69
 116 543 116 543 171.5 564.5 c 128,-1,70
 227 586 227 586 304 586 c 0,71,72
 401 586 401 586 458 545.5 c 128,-1,73
 515 505 515 505 515 418 c 0,74,75
 515 401 515 401 512 383 c 2,76,-1
 481 162 l 2,77,78
 479 151 479 151 479 131 c 0,79,80
 479 79 479 79 509.5 54.5 c 128,-1,81
 540 30 540 30 606 30 c 0,82,83
 690 30 690 30 732 61 c 128,-1,84
 774 92 774 92 783 160 c 2,85,-1
 842 576 l 1,86,-1
 884 576 l 1,87,-1
 825 160 l 2,88,89
 813 72 813 72 758.5 31.5 c 128,-1,90
 704 -9 704 -9 600 -9 c 0,91,0
 516 -9 516 -9 476 22 c 128,-1,1
444 -203 m 128,-1,93
 406 -178 406 -178 406 -135 c 0,94,95
 406 -94 406 -94 433 -69.5 c 128,-1,96
 460 -45 460 -45 497 -45 c 0,97,98
 526 -45 526 -45 544 -62.5 c 128,-1,99
 562 -80 562 -80 562 -105 c 0,100,101
 562 -135 562 -135 546.5 -150.5 c 128,-1,102
 531 -166 531 -166 512 -166 c 0,103,104
 508 -166 508 -166 499 -163 c 1,105,106
 527 -144 527 -144 527 -114 c 0,107,108
 527 -77 527 -77 492 -77 c 0,109,110
 469 -77 469 -77 455.5 -91.5 c 128,-1,111
 442 -106 442 -106 442 -130 c 0,112,113
 442 -159 442 -159 467.5 -174.5 c 128,-1,114
 493 -190 493 -190 546 -190 c 0,115,116
 611 -190 611 -190 650.5 -165 c 128,-1,117
 690 -140 690 -140 719 -92 c 0,118,119
 727 -80 727 -80 733 -75 c 128,-1,120
 739 -70 739 -70 746 -70 c 0,121,122
 758 -70 758 -70 771 -78 c 1,123,124
 743 -149 743 -149 683.5 -188.5 c 128,-1,125
 624 -228 624 -228 541 -228 c 0,126,92
 482 -228 482 -228 444 -203 c 128,-1,93
EndSplineSet
Substitution2: "Single Substitution lookup 14 subtable" yoYingthai.less
Substitution2: "'aalt' Access All Alternates lookup 0 subtable" yoYingthai.less
EndChar

StartChar: yoYingthai.less
Encoding: 65539 -1 445
Width: 940
GlyphClass: 2
Flags: W
AnchorPoint: "Anchor-12" 880 550 basechar 0
AnchorPoint: "Anchor-11" 803 0 basechar 0
LayerCount: 2
Fore
SplineSet
476 22 m 128,-1,1
 436 53 436 53 436 120 c 0,2,3
 436 139 436 139 439 160 c 2,4,-1
 470 383 l 2,5,6
 472 397 472 397 472 420 c 0,7,8
 472 489 472 489 428 519.5 c 128,-1,9
 384 550 384 550 299 550 c 0,10,11
 240 550 240 550 195 534 c 128,-1,12
 150 518 150 518 126 493 c 128,-1,13
 102 468 102 468 102 443 c 0,14,15
 102 423 102 423 127 407 c 128,-1,16
 152 391 152 391 181 391 c 0,17,18
 192 391 192 391 214 395 c 0,19,20
 234 399 234 399 241 399 c 0,21,22
 247 399 247 399 255 387 c 128,-1,23
 263 375 263 375 263 367 c 0,24,25
 263 360 263 360 256 360 c 0,26,27
 203 360 203 360 173 343.5 c 128,-1,28
 143 327 143 327 129 297.5 c 128,-1,29
 115 268 115 268 108 222 c 2,30,-1
 92 109 l 2,31,32
 91 102 91 102 91 90 c 0,33,34
 91 60 91 60 106.5 43.5 c 128,-1,35
 122 27 122 27 149 27 c 0,36,37
 180 27 180 27 196 42.5 c 128,-1,38
 212 58 212 58 212 88 c 0,39,40
 212 112 212 112 199 124.5 c 128,-1,41
 186 137 186 137 163 137 c 0,42,43
 137 137 137 137 116 125 c 1,44,45
 113 130 113 130 113 136 c 0,46,47
 113 149 113 149 128 159 c 128,-1,48
 143 169 143 169 168 169 c 0,49,50
 203 169 203 169 225.5 148.5 c 128,-1,51
 248 128 248 128 248 90 c 0,52,53
 248 45 248 45 221 19 c 128,-1,54
 194 -7 194 -7 149 -7 c 0,55,56
 101 -7 101 -7 75 18.5 c 128,-1,57
 49 44 49 44 49 85 c 0,58,59
 49 100 49 100 50 108 c 2,60,-1
 66 222 l 2,61,62
 74 274 74 274 90.5 308 c 128,-1,63
 107 342 107 342 137 363 c 1,64,65
 107 371 107 371 83 394 c 128,-1,66
 59 417 59 417 59 444 c 0,67,68
 59 477 59 477 87.5 510 c 128,-1,69
 116 543 116 543 171.5 564.5 c 128,-1,70
 227 586 227 586 304 586 c 0,71,72
 401 586 401 586 458 545.5 c 128,-1,73
 515 505 515 505 515 418 c 0,74,75
 515 401 515 401 512 383 c 2,76,-1
 481 162 l 2,77,78
 479 151 479 151 479 131 c 0,79,80
 479 79 479 79 509.5 54.5 c 128,-1,81
 540 30 540 30 606 30 c 0,82,83
 690 30 690 30 732 61 c 128,-1,84
 774 92 774 92 783 160 c 2,85,-1
 842 576 l 1,86,-1
 884 576 l 1,87,-1
 825 160 l 2,88,89
 813 72 813 72 758.5 31.5 c 128,-1,90
 704 -9 704 -9 600 -9 c 0,91,0
 516 -9 516 -9 476 22 c 128,-1,1
EndSplineSet
EndChar

StartChar: uni0E0E
Encoding: 3598 3598 446
Width: 629
GlyphClass: 2
Flags: W
AnchorPoint: "Anchor-12" 570 550 basechar 0
AnchorPoint: "Anchor-11" 458 -245 basechar 0
LayerCount: 2
Fore
SplineSet
487 545 m 128,-1,1
 547 504 547 504 547 411 c 0,2,3
 547 390 547 390 544 366 c 2,4,-1
 458 -245 l 1,5,-1
 415 -245 l 1,6,7
 370 -187 370 -187 323 -150 c 1,8,9
 291 -195 291 -195 241.5 -220.5 c 128,-1,10
 192 -246 192 -246 142 -246 c 0,11,12
 86 -246 86 -246 51.5 -225 c 128,-1,13
 17 -204 17 -204 17 -167 c 0,14,15
 17 -137 17 -137 37.5 -113 c 128,-1,16
 58 -89 58 -89 95.5 -74.5 c 128,-1,17
 133 -60 133 -60 181 -60 c 0,18,19
 250 -60 250 -60 311 -98 c 1,20,21
 327 -63 327 -63 334 -23 c 1,22,23
 349 -23 349 -23 356.5 -30.5 c 128,-1,24
 364 -38 364 -38 363 -51 c 0,25,26
 357 -90 357 -90 341 -119 c 1,27,28
 384 -154 384 -154 423 -200 c 1,29,-1
 502 366 l 2,30,31
 505 390 505 390 505 410 c 0,32,33
 505 488 505 488 457.5 519 c 128,-1,34
 410 550 410 550 329 550 c 0,35,36
 271 550 271 550 222.5 535.5 c 128,-1,37
 174 521 174 521 146 498 c 128,-1,38
 118 475 118 475 118 452 c 0,39,40
 118 433 118 433 135.5 418 c 128,-1,41
 153 403 153 403 174 395 c 128,-1,42
 195 387 195 387 203 387 c 0,43,44
 213 387 213 387 228 392 c 0,45,46
 250 398 250 398 263 398 c 0,47,48
 270 398 270 398 275.5 389 c 128,-1,49
 281 380 281 380 281 371 c 0,50,51
 281 366 281 366 280 362 c 128,-1,52
 279 358 279 358 277 358 c 0,53,54
 208 358 208 358 181.5 329.5 c 128,-1,55
 155 301 155 301 155 227 c 0,56,57
 155 206 155 206 159 170 c 0,58,59
 160 161 160 161 161 149 c 128,-1,60
 162 137 162 137 162 121 c 0,61,62
 162 61 162 61 131.5 26.5 c 128,-1,63
 101 -8 101 -8 49 -8 c 0,64,65
 12 -8 12 -8 -9.5 12.5 c 128,-1,66
 -31 33 -31 33 -31 66 c 0,67,68
 -31 96 -31 96 -17 118 c 128,-1,69
 -3 140 -3 140 17.5 151.5 c 128,-1,70
 38 163 38 163 57 163 c 0,71,72
 75 163 75 163 83.5 155.5 c 128,-1,73
 92 148 92 148 90 133 c 1,74,-1
 71 133 l 2,75,76
 40 133 40 133 22.5 115.5 c 128,-1,77
 5 98 5 98 5 69 c 0,78,79
 5 48 5 48 17.5 37 c 128,-1,80
 30 26 30 26 53 26 c 0,81,82
 122 26 122 26 122 122 c 0,83,84
 122 139 122 139 118 177 c 256,85,86
 114 215 114 215 114 237 c 0,87,88
 114 321 114 321 161 359 c 1,89,90
 126 371 126 371 98.5 395.5 c 128,-1,91
 71 420 71 420 71 448 c 0,92,93
 71 481 71 481 105.5 513 c 128,-1,94
 140 545 140 545 200.5 565.5 c 128,-1,95
 261 586 261 586 334 586 c 0,96,0
 427 586 427 586 487 545 c 128,-1,1
227.5 -191 m 128,-1,98
 267 -170 267 -170 294 -129 c 1,99,100
 237 -92 237 -92 181 -92 c 0,101,102
 65 -92 65 -92 57 -157 c 0,103,104
 53 -185 53 -185 78.5 -198.5 c 128,-1,105
 104 -212 104 -212 146 -212 c 256,106,97
 188 -212 188 -212 227.5 -191 c 128,-1,98
EndSplineSet
Substitution2: "Single Substitution lookup 14 subtable" doChadathai.short
Substitution2: "'aalt' Access All Alternates lookup 0 subtable" doChadathai.short
EndChar

StartChar: doChadathai.short
Encoding: 65540 -1 447
Width: 629
GlyphClass: 2
Flags: W
AnchorPoint: "Anchor-12" 569 550 basechar 0
AnchorPoint: "Anchor-11" 464 -195 basechar 0
LayerCount: 2
Fore
SplineSet
487 545 m 128,-1,1
 547 504 547 504 547 411 c 0,2,3
 547 390 547 390 544 366 c 2,4,-1
 464 -195 l 1,5,-1
 421 -195 l 1,6,7
 371 -133 371 -133 328 -99 c 1,8,9
 295 -144 295 -144 246.5 -170 c 128,-1,10
 198 -196 198 -196 148 -196 c 0,11,12
 92 -196 92 -196 57.5 -175 c 128,-1,13
 23 -154 23 -154 23 -117 c 0,14,15
 23 -87 23 -87 43.5 -63 c 128,-1,16
 64 -39 64 -39 101.5 -24.5 c 128,-1,17
 139 -10 139 -10 187 -10 c 0,18,19
 256 -10 256 -10 317 -48 c 1,20,21
 333 -13 333 -13 340 27 c 1,22,23
 355 27 355 27 363 19.5 c 128,-1,24
 371 12 371 12 369 -1 c 0,25,26
 364 -34 364 -34 347 -69 c 1,27,28
 381 -96 381 -96 429 -150 c 1,29,-1
 502 366 l 2,30,31
 505 390 505 390 505 410 c 0,32,33
 505 488 505 488 457.5 519 c 128,-1,34
 410 550 410 550 329 550 c 0,35,36
 271 550 271 550 222.5 535.5 c 128,-1,37
 174 521 174 521 146 498 c 128,-1,38
 118 475 118 475 118 452 c 0,39,40
 118 433 118 433 135.5 418 c 128,-1,41
 153 403 153 403 174 395 c 128,-1,42
 195 387 195 387 203 387 c 0,43,44
 213 387 213 387 228 392 c 0,45,46
 250 398 250 398 263 398 c 0,47,48
 270 398 270 398 275.5 389 c 128,-1,49
 281 380 281 380 281 371 c 0,50,51
 281 366 281 366 280 362 c 128,-1,52
 279 358 279 358 277 358 c 0,53,54
 208 358 208 358 181.5 329.5 c 128,-1,55
 155 301 155 301 155 227 c 0,56,57
 155 206 155 206 159 170 c 0,58,59
 160 161 160 161 161 149 c 128,-1,60
 162 137 162 137 162 121 c 0,61,62
 162 61 162 61 131.5 26.5 c 128,-1,63
 101 -8 101 -8 49 -8 c 0,64,65
 12 -8 12 -8 -9.5 12.5 c 128,-1,66
 -31 33 -31 33 -31 66 c 0,67,68
 -31 96 -31 96 -17 118 c 128,-1,69
 -3 140 -3 140 17.5 151.5 c 128,-1,70
 38 163 38 163 57 163 c 0,71,72
 75 163 75 163 83.5 155.5 c 128,-1,73
 92 148 92 148 90 133 c 1,74,-1
 71 133 l 2,75,76
 40 133 40 133 22.5 115.5 c 128,-1,77
 5 98 5 98 5 69 c 0,78,79
 5 48 5 48 17.5 37 c 128,-1,80
 30 26 30 26 53 26 c 0,81,82
 122 26 122 26 122 122 c 0,83,84
 122 139 122 139 118 177 c 256,85,86
 114 215 114 215 114 237 c 0,87,88
 114 321 114 321 161 359 c 1,89,90
 126 371 126 371 98.5 395.5 c 128,-1,91
 71 420 71 420 71 448 c 0,92,93
 71 481 71 481 105.5 513 c 128,-1,94
 140 545 140 545 200.5 565.5 c 128,-1,95
 261 586 261 586 334 586 c 0,96,0
 427 586 427 586 487 545 c 128,-1,1
233.5 -141 m 128,-1,98
 273 -120 273 -120 300 -79 c 1,99,100
 243 -42 243 -42 187 -42 c 0,101,102
 73 -42 73 -42 63 -107 c 0,103,104
 59 -135 59 -135 84.5 -148.5 c 128,-1,105
 110 -162 110 -162 152 -162 c 256,106,97
 194 -162 194 -162 233.5 -141 c 128,-1,98
EndSplineSet
EndChar

StartChar: uni0E0F
Encoding: 3599 3599 448
Width: 630
GlyphClass: 2
Flags: W
AnchorPoint: "Anchor-12" 550 550 basechar 0
AnchorPoint: "Anchor-11" 550 -250 basechar 0
LayerCount: 2
Fore
SplineSet
487 545 m 128,-1,1
 547 504 547 504 547 411 c 0,2,3
 547 390 547 390 544 366 c 2,4,-1
 458 -250 l 1,5,-1
 412 -250 l 1,6,-1
 336 -195 l 1,7,-1
 246 -247 l 1,8,-1
 205 -198 l 1,9,10
 151 -250 151 -250 77 -250 c 0,11,12
 34 -250 34 -250 5.5 -226.5 c 128,-1,13
 -23 -203 -23 -203 -23 -167 c 0,14,15
 -23 -123 -23 -123 10 -100.5 c 128,-1,16
 43 -78 43 -78 86 -78 c 0,17,18
 150 -78 150 -78 204 -138 c 1,19,20
 224 -99 224 -99 233 -41 c 1,21,22
 245 -41 245 -41 253.5 -49 c 128,-1,23
 262 -57 262 -57 262 -73 c 0,24,25
 262 -124 262 -124 230 -170 c 1,26,-1
 254 -200 l 1,27,-1
 340 -153 l 1,28,-1
 421 -208 l 1,29,-1
 502 366 l 2,30,31
 505 390 505 390 505 410 c 0,32,33
 505 488 505 488 457.5 519 c 128,-1,34
 410 550 410 550 329 550 c 0,35,36
 271 550 271 550 222.5 535.5 c 128,-1,37
 174 521 174 521 146 498 c 128,-1,38
 118 475 118 475 118 452 c 0,39,40
 118 433 118 433 135.5 418 c 128,-1,41
 153 403 153 403 174 395 c 128,-1,42
 195 387 195 387 203 387 c 0,43,44
 213 387 213 387 228 392 c 0,45,46
 250 398 250 398 263 398 c 0,47,48
 270 398 270 398 275.5 389 c 128,-1,49
 281 380 281 380 281 371 c 0,50,51
 281 366 281 366 280 362 c 128,-1,52
 279 358 279 358 277 358 c 0,53,54
 208 358 208 358 181.5 329.5 c 128,-1,55
 155 301 155 301 155 227 c 0,56,57
 155 206 155 206 159 170 c 0,58,59
 160 161 160 161 161 149 c 128,-1,60
 162 137 162 137 162 121 c 0,61,62
 162 61 162 61 131.5 26.5 c 128,-1,63
 101 -8 101 -8 49 -8 c 0,64,65
 12 -8 12 -8 -9.5 12.5 c 128,-1,66
 -31 33 -31 33 -31 66 c 0,67,68
 -31 96 -31 96 -17 118 c 128,-1,69
 -3 140 -3 140 17.5 151.5 c 128,-1,70
 38 163 38 163 57 163 c 0,71,72
 75 163 75 163 83.5 155.5 c 128,-1,73
 92 148 92 148 90 133 c 1,74,-1
 71 133 l 2,75,76
 40 133 40 133 22.5 115.5 c 128,-1,77
 5 98 5 98 5 69 c 0,78,79
 5 48 5 48 17.5 37 c 128,-1,80
 30 26 30 26 53 26 c 0,81,82
 122 26 122 26 122 122 c 0,83,84
 122 139 122 139 118 177 c 256,85,86
 114 215 114 215 114 237 c 0,87,88
 114 321 114 321 161 359 c 1,89,90
 126 371 126 371 98.5 395.5 c 128,-1,91
 71 420 71 420 71 448 c 0,92,93
 71 481 71 481 105.5 513 c 128,-1,94
 140 545 140 545 200.5 565.5 c 128,-1,95
 261 586 261 586 334 586 c 0,96,0
 427 586 427 586 487 545 c 128,-1,1
133.5 -205 m 128,-1,98
 160 -194 160 -194 181 -170 c 1,99,100
 156 -142 156 -142 134 -127 c 128,-1,101
 112 -112 112 -112 85 -112 c 0,102,103
 55 -112 55 -112 36 -125 c 128,-1,104
 17 -138 17 -138 17 -164 c 0,105,106
 17 -188 17 -188 34 -202 c 128,-1,107
 51 -216 51 -216 81 -216 c 0,108,97
 107 -216 107 -216 133.5 -205 c 128,-1,98
EndSplineSet
Substitution2: "Single Substitution lookup 14 subtable" toPatakthai.short
Substitution2: "'aalt' Access All Alternates lookup 0 subtable" toPatakthai.short
EndChar

StartChar: toPatakthai.short
Encoding: 65541 -1 449
Width: 631
GlyphClass: 2
Flags: W
AnchorPoint: "Anchor-12" 571 550 basechar 0
AnchorPoint: "Anchor-11" 466 -200 basechar 0
LayerCount: 2
Fore
SplineSet
487 545 m 128,-1,1
 547 504 547 504 547 411 c 0,2,3
 547 390 547 390 544 366 c 2,4,-1
 466 -200 l 1,5,-1
 420 -200 l 1,6,-1
 344 -145 l 1,7,-1
 254 -197 l 1,8,-1
 214 -148 l 1,9,10
 188 -172 188 -172 155 -186 c 128,-1,11
 122 -200 122 -200 85 -200 c 0,12,13
 42 -200 42 -200 13.5 -176.5 c 128,-1,14
 -15 -153 -15 -153 -15 -117 c 0,15,16
 -15 -73 -15 -73 18 -50.5 c 128,-1,17
 51 -28 51 -28 94 -28 c 0,18,19
 158 -28 158 -28 212 -87 c 1,20,21
 232 -50 232 -50 241 9 c 1,22,23
 253 9 253 9 261.5 1 c 128,-1,24
 270 -7 270 -7 270 -23 c 0,25,26
 270 -74 270 -74 238 -120 c 1,27,-1
 262 -150 l 1,28,-1
 348 -103 l 1,29,-1
 429 -158 l 1,30,-1
 502 366 l 2,31,32
 505 390 505 390 505 410 c 0,33,34
 505 488 505 488 457.5 519 c 128,-1,35
 410 550 410 550 329 550 c 0,36,37
 271 550 271 550 222.5 535.5 c 128,-1,38
 174 521 174 521 146 498 c 128,-1,39
 118 475 118 475 118 452 c 0,40,41
 118 433 118 433 135.5 418 c 128,-1,42
 153 403 153 403 174 395 c 128,-1,43
 195 387 195 387 203 387 c 0,44,45
 213 387 213 387 228 392 c 0,46,47
 250 398 250 398 263 398 c 0,48,49
 270 398 270 398 275.5 389 c 128,-1,50
 281 380 281 380 281 371 c 0,51,52
 281 366 281 366 280 362 c 128,-1,53
 279 358 279 358 277 358 c 0,54,55
 208 358 208 358 181.5 329.5 c 128,-1,56
 155 301 155 301 155 227 c 0,57,58
 155 206 155 206 159 170 c 0,59,60
 160 161 160 161 161 149 c 128,-1,61
 162 137 162 137 162 121 c 0,62,63
 162 61 162 61 131.5 26.5 c 128,-1,64
 101 -8 101 -8 49 -8 c 0,65,66
 12 -8 12 -8 -9.5 12.5 c 128,-1,67
 -31 33 -31 33 -31 66 c 0,68,69
 -31 96 -31 96 -17 118 c 128,-1,70
 -3 140 -3 140 17.5 151.5 c 128,-1,71
 38 163 38 163 57 163 c 0,72,73
 75 163 75 163 83.5 155.5 c 128,-1,74
 92 148 92 148 90 133 c 1,75,-1
 71 133 l 2,76,77
 40 133 40 133 22.5 115.5 c 128,-1,78
 5 98 5 98 5 69 c 0,79,80
 5 48 5 48 17.5 37 c 128,-1,81
 30 26 30 26 53 26 c 0,82,83
 122 26 122 26 122 122 c 0,84,85
 122 139 122 139 118 177 c 256,86,87
 114 215 114 215 114 237 c 0,88,89
 114 321 114 321 161 359 c 1,90,91
 126 371 126 371 98.5 395.5 c 128,-1,92
 71 420 71 420 71 448 c 0,93,94
 71 481 71 481 105.5 513 c 128,-1,95
 140 545 140 545 200.5 565.5 c 128,-1,96
 261 586 261 586 334 586 c 0,97,0
 427 586 427 586 487 545 c 128,-1,1
142.5 -155 m 128,-1,99
 169 -144 169 -144 190 -119 c 1,100,101
 143 -62 143 -62 93 -62 c 0,102,103
 64 -62 64 -62 44.5 -76.5 c 128,-1,104
 25 -91 25 -91 25 -114 c 256,105,106
 25 -137 25 -137 42 -151.5 c 128,-1,107
 59 -166 59 -166 89 -166 c 0,108,98
 116 -166 116 -166 142.5 -155 c 128,-1,99
EndSplineSet
EndChar

StartChar: uni0E10
Encoding: 3600 3600 450
Width: 589
GlyphClass: 2
Flags: W
AnchorPoint: "Anchor-12" 486 550 basechar 0
AnchorPoint: "Anchor-11" 391 -272 basechar 0
LayerCount: 2
Fore
SplineSet
123 521.5 m 128,-1,1
 89 497 89 497 89 442 c 0,2,3
 89 430 89 430 92 413 c 128,-1,4
 95 396 95 396 99 389 c 1,5,6
 121 392 121 392 185.5 397 c 128,-1,7
 250 402 250 402 299 402 c 0,8,9
 477 402 477 402 477 281 c 0,10,11
 477 249 477 249 466.5 213 c 128,-1,12
 456 177 456 177 432 106 c 0,13,14
 409 43 409 43 402 18 c 0,15,16
 398 6 398 6 372.5 -1.5 c 128,-1,17
 347 -9 347 -9 307 -9 c 0,18,19
 268 -9 268 -9 243.5 0 c 128,-1,20
 219 9 219 9 220 21 c 0,21,22
 229 138 229 138 229 188 c 0,23,24
 229 261 229 261 170 261 c 0,25,26
 142 261 142 261 126 246 c 128,-1,27
 110 231 110 231 110 203 c 0,28,29
 110 178 110 178 124 164.5 c 128,-1,30
 138 151 138 151 160 151 c 0,31,32
 177 151 177 151 187.5 155.5 c 128,-1,33
 198 160 198 160 207 168 c 1,34,35
 211 164 211 164 211 156 c 0,36,37
 211 140 211 140 195 129.5 c 128,-1,38
 179 119 179 119 154 119 c 0,39,40
 117 119 117 119 96 141.5 c 128,-1,41
 75 164 75 164 75 199 c 0,42,43
 75 246 75 246 101.5 270.5 c 128,-1,44
 128 295 128 295 175 295 c 0,45,46
 219 295 219 295 243 267 c 128,-1,47
 267 239 267 239 267 196 c 0,48,49
 267 136 267 136 257 36 c 0,50,51
 256 32 256 32 273.5 28.5 c 128,-1,52
 291 25 291 25 309 25 c 0,53,54
 329 25 329 25 348.5 28.5 c 128,-1,55
 368 32 368 32 369 37 c 0,56,57
 379 67 379 67 392 104 c 0,58,59
 414 167 414 167 424.5 206 c 128,-1,60
 435 245 435 245 435 277 c 0,61,62
 435 325 435 325 402 345.5 c 128,-1,63
 369 366 369 366 291 366 c 0,64,65
 215 366 215 366 71 350 c 1,66,67
 61 363 61 363 54 390.5 c 128,-1,68
 47 418 47 418 47 441 c 0,69,70
 47 511 47 511 92.5 546.5 c 128,-1,71
 138 582 138 582 217 582 c 0,72,73
 249 582 249 582 332 573 c 0,74,75
 396 565 396 565 418 565 c 0,76,77
 491 565 491 565 521 595 c 1,78,79
 533 590 533 590 533 576 c 0,80,81
 533 553 533 553 505 540 c 128,-1,82
 477 527 477 527 423 527 c 0,83,84
 398 527 398 527 366.5 531 c 128,-1,85
 335 535 335 535 325 536 c 0,86,87
 255 546 255 546 221 546 c 0,88,0
 157 546 157 546 123 521.5 c 128,-1,1
409 -73 m 128,-1,90
 430 -93 430 -93 430 -124 c 0,91,92
 430 -143 430 -143 425 -157 c 128,-1,93
 420 -171 420 -171 408 -196 c 0,94,95
 397 -216 397 -216 390 -233 c 128,-1,96
 383 -250 383 -250 380 -272 c 1,97,-1
 346 -272 l 1,98,-1
 285 -237 l 1,99,-1
 209 -275 l 1,100,-1
 174 -223 l 1,101,102
 152 -247 152 -247 123 -261 c 128,-1,103
 94 -275 94 -275 63 -275 c 0,104,105
 23 -275 23 -275 1 -252 c 128,-1,106
 -21 -229 -21 -229 -21 -197 c 0,107,108
 -21 -159 -21 -159 5 -137.5 c 128,-1,109
 31 -116 31 -116 74 -116 c 0,110,111
 101 -116 101 -116 127 -130 c 128,-1,112
 153 -144 153 -144 171 -165 c 1,113,114
 182 -136 182 -136 184 -94 c 1,115,116
 197 -94 197 -94 205.5 -101 c 128,-1,117
 214 -108 214 -108 214 -122 c 0,118,119
 214 -160 214 -160 193 -197 c 1,120,-1
 220 -236 l 1,121,-1
 285 -203 l 1,122,-1
 351 -240 l 1,123,124
 355 -220 355 -220 364 -203 c 128,-1,125
 373 -186 373 -186 374 -183 c 0,126,127
 384 -164 384 -164 388.5 -152 c 128,-1,128
 393 -140 393 -140 393 -127 c 0,129,130
 393 -108 393 -108 383 -96.5 c 128,-1,131
 373 -85 373 -85 352 -85 c 0,132,133
 330 -85 330 -85 318 -97 c 128,-1,134
 306 -109 306 -109 306 -130 c 0,135,136
 306 -148 306 -148 318 -158.5 c 128,-1,137
 330 -169 330 -169 353 -170 c 1,138,139
 348 -187 348 -187 327 -187 c 0,140,141
 305 -187 305 -187 289 -170.5 c 128,-1,142
 273 -154 273 -154 273 -131 c 0,143,144
 273 -94 273 -94 295 -73.5 c 128,-1,145
 317 -53 317 -53 353 -53 c 0,146,89
 388 -53 388 -53 409 -73 c 128,-1,90
115.5 -232 m 128,-1,148
 139 -219 139 -219 155 -194 c 1,149,150
 137 -170 137 -170 117 -158 c 128,-1,151
 97 -146 97 -146 72 -146 c 0,152,153
 13 -146 13 -146 13 -195 c 0,154,155
 13 -219 13 -219 26.5 -232 c 128,-1,156
 40 -245 40 -245 66 -245 c 256,157,147
 92 -245 92 -245 115.5 -232 c 128,-1,148
EndSplineSet
Substitution2: "Single Substitution lookup 14 subtable" thoThanthai.less
Substitution2: "'aalt' Access All Alternates lookup 0 subtable" thoThanthai.less
EndChar

StartChar: thoThanthai.less
Encoding: 65542 -1 451
Width: 575
GlyphClass: 2
Flags: W
AnchorPoint: "Anchor-12" 497 550 basechar 0
AnchorPoint: "Anchor-11" 423 0 basechar 0
LayerCount: 2
Fore
SplineSet
243.5 0 m 128,-1,1
 219 9 219 9 220 21 c 0,2,3
 229 138 229 138 229 188 c 0,4,5
 229 261 229 261 170 261 c 0,6,7
 142 261 142 261 126 246 c 128,-1,8
 110 231 110 231 110 203 c 0,9,10
 110 178 110 178 124 164.5 c 128,-1,11
 138 151 138 151 160 151 c 0,12,13
 177 151 177 151 187.5 155.5 c 128,-1,14
 198 160 198 160 207 168 c 1,15,16
 211 164 211 164 211 156 c 0,17,18
 211 140 211 140 195 129.5 c 128,-1,19
 179 119 179 119 154 119 c 0,20,21
 117 119 117 119 96 141.5 c 128,-1,22
 75 164 75 164 75 199 c 0,23,24
 75 246 75 246 101.5 270.5 c 128,-1,25
 128 295 128 295 175 295 c 0,26,27
 219 295 219 295 243 267 c 128,-1,28
 267 239 267 239 267 196 c 0,29,30
 267 136 267 136 257 36 c 0,31,32
 256 32 256 32 273.5 28.5 c 128,-1,33
 291 25 291 25 309 25 c 0,34,35
 329 25 329 25 348.5 28.5 c 128,-1,36
 368 32 368 32 369 37 c 0,37,38
 379 67 379 67 392 104 c 0,39,40
 414 167 414 167 424.5 206 c 128,-1,41
 435 245 435 245 435 277 c 0,42,43
 435 325 435 325 402 345.5 c 128,-1,44
 369 366 369 366 291 366 c 0,45,46
 215 366 215 366 71 350 c 1,47,48
 61 363 61 363 54 390.5 c 128,-1,49
 47 418 47 418 47 441 c 0,50,51
 47 511 47 511 92.5 546.5 c 128,-1,52
 138 582 138 582 217 582 c 0,53,54
 249 582 249 582 332 573 c 0,55,56
 396 565 396 565 418 565 c 0,57,58
 491 565 491 565 521 595 c 1,59,60
 533 590 533 590 533 576 c 0,61,62
 533 553 533 553 505 540 c 128,-1,63
 477 527 477 527 423 527 c 0,64,65
 398 527 398 527 366.5 531 c 128,-1,66
 335 535 335 535 325 536 c 0,67,68
 255 546 255 546 221 546 c 0,69,70
 157 546 157 546 123 521.5 c 128,-1,71
 89 497 89 497 89 442 c 0,72,73
 89 430 89 430 92 413 c 128,-1,74
 95 396 95 396 99 389 c 1,75,76
 121 392 121 392 185.5 397 c 128,-1,77
 250 402 250 402 299 402 c 0,78,79
 477 402 477 402 477 281 c 0,80,81
 477 249 477 249 466.5 213 c 128,-1,82
 456 177 456 177 432 106 c 0,83,84
 409 43 409 43 402 18 c 0,85,86
 398 6 398 6 372.5 -1.5 c 128,-1,87
 347 -9 347 -9 307 -9 c 0,88,0
 268 -9 268 -9 243.5 0 c 128,-1,1
EndSplineSet
EndChar

StartChar: uni0E11
Encoding: 3601 3601 452
Width: 655
GlyphClass: 2
Flags: W
AnchorPoint: "Anchor-12" 596 550 basechar 0
AnchorPoint: "Anchor-11" 518 0 basechar 0
LayerCount: 2
Fore
SplineSet
554 553.5 m 128,-1,1
 582 527 582 527 582 476 c 0,2,3
 582 456 582 456 580 445 c 2,4,-1
 518 0 l 1,5,-1
 476 0 l 1,6,-1
 537 439 l 2,7,8
 540 456 540 456 540 470 c 0,9,10
 540 542 540 542 469 542 c 0,11,12
 437 542 437 542 407.5 518.5 c 128,-1,13
 378 495 378 495 315 426 c 2,14,-1
 256 363 l 2,15,16
 217 323 217 323 196.5 292 c 128,-1,17
 176 261 176 261 170 222 c 2,18,-1
 138 0 l 1,19,-1
 106 0 l 2,20,21
 96 0 96 0 96 8 c 0,22,23
 96 13 96 13 100 33 c 128,-1,24
 104 53 104 53 109 91 c 2,25,-1
 128 226 l 2,26,27
 135 271 135 271 156.5 302 c 128,-1,28
 178 333 178 333 217 372 c 2,29,30
 217 372 217 372 231 386 c 0,31,32
 266 421 266 421 284 449.5 c 128,-1,33
 302 478 302 478 302 510 c 0,34,35
 302 527 302 527 292 536.5 c 128,-1,36
 282 546 282 546 263 546 c 0,37,38
 239 546 239 546 223 535 c 128,-1,39
 207 524 207 524 193 501 c 1,40,41
 177 545 177 545 134 545 c 0,42,43
 104 545 104 545 86.5 526.5 c 128,-1,44
 69 508 69 508 69 475 c 0,45,46
 69 450 69 450 82 437 c 128,-1,47
 95 424 95 424 118 424 c 0,48,49
 145 424 145 424 161 439.5 c 128,-1,50
 177 455 177 455 184 480 c 1,51,52
 198 478 198 478 198 463 c 0,53,54
 198 435 198 435 174.5 413.5 c 128,-1,55
 151 392 151 392 115 392 c 0,56,57
 77 392 77 392 53.5 414 c 128,-1,58
 30 436 30 436 30 473 c 0,59,60
 30 521 30 521 60 550.5 c 128,-1,61
 90 580 90 580 133 580 c 0,62,63
 157 580 157 580 173.5 569.5 c 128,-1,64
 190 559 190 559 198 543 c 1,65,66
 212 560 212 560 228.5 569 c 128,-1,67
 245 578 245 578 271 578 c 0,68,69
 300 578 300 578 318.5 558.5 c 128,-1,70
 337 539 337 539 337 508 c 2,71,-1
 337 505 l 1,72,73
 403 580 403 580 473 580 c 0,74,0
 526 580 526 580 554 553.5 c 128,-1,1
EndSplineSet
EndChar

StartChar: uni0E12
Encoding: 3602 3602 453
Width: 923
GlyphClass: 2
Flags: W
AnchorPoint: "Anchor-12" 846 550 basechar 0
AnchorPoint: "Anchor-11" 769 0 basechar 0
LayerCount: 2
Fore
SplineSet
850 576 m 1,0,-1
 786 124 l 2,1,2
 782 98 782 98 780 74.5 c 128,-1,3
 778 51 778 51 777 43 c 0,4,5
 775 24 775 24 774 18 c 0,6,7
 772 8 772 8 768.5 4 c 128,-1,8
 765 0 765 0 758 0 c 2,9,-1
 736 0 l 1,10,11
 709 104 709 104 650 156.5 c 128,-1,12
 591 209 591 209 515 216 c 1,13,14
 508 154 508 154 497 83 c 0,15,16
 484 -9 484 -9 409 -9 c 0,17,18
 371 -9 371 -9 346.5 19.5 c 128,-1,19
 322 48 322 48 322 100 c 0,20,21
 322 169 322 169 367 206.5 c 128,-1,22
 412 244 412 244 478 249 c 1,23,-1
 495 370 l 2,24,25
 499 395 499 395 499 422 c 0,26,27
 499 477 499 477 476.5 506 c 128,-1,28
 454 535 454 535 413 546 c 1,29,30
 387 528 387 528 350 508 c 2,31,-1
 315 487 l 1,32,-1
 286 506 l 2,33,34
 243 534 243 534 230 546 c 1,35,36
 157 525 157 525 125.5 462 c 128,-1,37
 94 399 94 399 94 310 c 0,38,39
 94 211 94 211 149 154 c 1,40,41
 177 180 177 180 274 237 c 0,42,43
 306 256 306 256 322.5 277.5 c 128,-1,44
 339 299 339 299 339 328 c 0,45,46
 339 351 339 351 325 366 c 128,-1,47
 311 381 311 381 285 381 c 0,48,49
 255 381 255 381 240 365 c 128,-1,50
 225 349 225 349 225 319 c 0,51,52
 225 297 225 297 238.5 283.5 c 128,-1,53
 252 270 252 270 276 266 c 1,54,55
 271 247 271 247 246 247 c 0,56,57
 226 247 226 247 207.5 267.5 c 128,-1,58
 189 288 189 288 189 318 c 0,59,60
 189 362 189 362 216.5 388.5 c 128,-1,61
 244 415 244 415 287 415 c 0,62,63
 327 415 327 415 352 390 c 128,-1,64
 377 365 377 365 377 331 c 0,65,66
 377 289 377 289 355 260 c 128,-1,67
 333 231 333 231 292 207 c 0,68,69
 226 168 226 168 188.5 140 c 128,-1,70
 151 112 151 112 127 78.5 c 128,-1,71
 103 45 103 45 97 0 c 1,72,-1
 66 0 l 2,73,74
 61 0 61 0 58.5 2 c 128,-1,75
 56 4 56 4 56 11 c 0,76,77
 56 31 56 31 66.5 50 c 128,-1,78
 77 69 77 69 97 96 c 0,79,80
 104 105 104 105 109.5 113 c 128,-1,81
 115 121 115 121 115 125 c 0,82,83
 115 130 115 130 103 149 c 0,84,85
 81 185 81 185 66.5 221 c 128,-1,86
 52 257 52 257 52 310 c 0,87,88
 52 421 52 421 92.5 489 c 128,-1,89
 133 557 133 557 234 586 c 1,90,91
 245 578 245 578 267 564 c 0,92,93
 301 542 301 542 318 528 c 1,94,95
 329 536 329 536 346.5 546 c 128,-1,96
 364 556 364 556 371 560 c 0,97,98
 380 565 380 565 391 571.5 c 128,-1,99
 402 578 402 578 415 586 c 1,100,101
 480 568 480 568 511 530.5 c 128,-1,102
 542 493 542 493 542 431 c 0,103,104
 542 404 542 404 538 377 c 2,105,-1
 520 249 l 1,106,107
 589 244 589 244 647.5 205.5 c 128,-1,108
 706 167 706 167 742 91 c 1,109,-1
 810 576 l 1,110,-1
 850 576 l 1,0,-1
473 216 m 1,112,113
 419 211 419 211 390.5 180.5 c 128,-1,114
 362 150 362 150 362 100 c 0,115,116
 362 67 362 67 373.5 46.5 c 128,-1,117
 385 26 385 26 407 26 c 256,118,119
 429 26 429 26 440 41 c 128,-1,120
 451 56 451 56 456 90 c 0,121,111
 465 145 465 145 473 216 c 1,112,113
EndSplineSet
EndChar

StartChar: uni0E13
Encoding: 3603 3603 454
Width: 928
GlyphClass: 2
Flags: W
AnchorPoint: "Anchor-12" 868 550 basechar 0
AnchorPoint: "Anchor-11" 790 0 basechar 0
LayerCount: 2
Fore
SplineSet
842 114 m 0,1,2
 842 59 842 59 808.5 27.5 c 128,-1,3
 775 -4 775 -4 726 -4 c 0,4,5
 686 -4 686 -4 661 19.5 c 128,-1,6
 636 43 636 43 636 83 c 0,7,8
 636 121 636 121 653 144.5 c 128,-1,9
 670 168 670 168 702 193 c 1,10,11
 693 194 693 194 674 194 c 0,12,13
 630 194 630 194 579.5 165.5 c 128,-1,14
 529 137 529 137 492 92 c 128,-1,15
 455 47 455 47 449 0 c 1,16,-1
 424 0 l 2,17,18
 407 0 407 0 407 15 c 0,19,20
 407 16 407 16 411 40 c 0,21,22
 420 76 420 76 424 113 c 2,23,-1
 460 383 l 2,24,25
 462 397 462 397 462 420 c 0,26,27
 462 489 462 489 420.5 519.5 c 128,-1,28
 379 550 379 550 299 550 c 0,29,30
 240 550 240 550 195 534 c 128,-1,31
 150 518 150 518 126 493 c 128,-1,32
 102 468 102 468 102 443 c 0,33,34
 102 423 102 423 127 407 c 128,-1,35
 152 391 152 391 181 391 c 0,36,37
 192 391 192 391 214 395 c 0,38,39
 234 399 234 399 241 399 c 0,40,41
 247 399 247 399 255 387 c 128,-1,42
 263 375 263 375 263 367 c 0,43,44
 263 360 263 360 256 360 c 0,45,46
 203 360 203 360 173 343.5 c 128,-1,47
 143 327 143 327 129 297 c 128,-1,48
 115 267 115 267 108 221 c 2,49,-1
 92 109 l 2,50,51
 91 102 91 102 91 90 c 0,52,53
 91 60 91 60 106.5 43.5 c 128,-1,54
 122 27 122 27 149 27 c 0,55,56
 180 27 180 27 196 42.5 c 128,-1,57
 212 58 212 58 212 88 c 0,58,59
 212 112 212 112 199 124.5 c 128,-1,60
 186 137 186 137 163 137 c 0,61,62
 137 137 137 137 116 125 c 1,63,64
 113 130 113 130 113 136 c 0,65,66
 113 149 113 149 128 159 c 128,-1,67
 143 169 143 169 168 169 c 0,68,69
 203 169 203 169 225.5 148.5 c 128,-1,70
 248 128 248 128 248 90 c 0,71,72
 248 45 248 45 221 19 c 128,-1,73
 194 -7 194 -7 149 -7 c 0,74,75
 101 -7 101 -7 75 18.5 c 128,-1,76
 49 44 49 44 49 85 c 0,77,78
 49 100 49 100 50 108 c 2,79,-1
 66 221 l 2,80,81
 74 274 74 274 90.5 308 c 128,-1,82
 107 342 107 342 137 363 c 1,83,84
 107 371 107 371 83 394 c 128,-1,85
 59 417 59 417 59 444 c 0,86,87
 59 477 59 477 87.5 510 c 128,-1,88
 116 543 116 543 171.5 564.5 c 128,-1,89
 227 586 227 586 304 586 c 0,90,91
 396 586 396 586 450.5 545.5 c 128,-1,92
 505 505 505 505 505 418 c 0,93,94
 505 401 505 401 502 383 c 2,95,-1
 465 115 l 1,96,97
 509 169 509 169 564.5 199.5 c 128,-1,98
 620 230 620 230 682 230 c 0,99,100
 715 230 715 230 743 224 c 1,101,102
 764 242 764 242 776 262 c 128,-1,103
 788 282 788 282 792 309 c 2,104,-1
 830 576 l 1,105,-1
 872 576 l 1,106,-1
 833 304 l 2,107,108
 829 275 829 275 815 253.5 c 128,-1,109
 801 232 801 232 778 212 c 1,110,0
 842 181 842 181 842 114 c 0,1,2
785 51.5 m 128,-1,112
 805 74 805 74 805 111 c 0,113,114
 805 138 805 138 788.5 156.5 c 128,-1,115
 772 175 772 175 744 184 c 1,116,117
 716 163 716 163 703.5 152.5 c 128,-1,118
 691 142 691 142 682 126 c 128,-1,119
 673 110 673 110 673 88 c 0,120,121
 673 61 673 61 688.5 45 c 128,-1,122
 704 29 704 29 731 29 c 0,123,111
 765 29 765 29 785 51.5 c 128,-1,112
EndSplineSet
EndChar

StartChar: uni0E14
Encoding: 3604 3604 455
Width: 622
GlyphClass: 2
Flags: W
AnchorPoint: "Anchor-12" 562 550 basechar 0
AnchorPoint: "Anchor-11" 485 0 basechar 0
LayerCount: 2
Fore
SplineSet
481.5 540 m 128,-1,1
 539 494 539 494 539 409 c 0,2,3
 539 377 539 377 535 353 c 2,4,-1
 485 0 l 1,5,-1
 445 0 l 1,6,-1
 495 354 l 2,7,8
 498 377 498 377 498 407 c 0,9,10
 498 550 498 550 315 550 c 0,11,12
 94 550 94 550 94 310 c 0,13,14
 94 210 94 210 149 153 c 1,15,16
 170 170 170 170 241 211 c 0,17,18
 275 232 275 232 284 237 c 0,19,20
 316 256 316 256 332.5 278.5 c 128,-1,21
 349 301 349 301 349 330 c 0,22,23
 349 353 349 353 334.5 367 c 128,-1,24
 320 381 320 381 294 381 c 0,25,26
 265 381 265 381 250 364.5 c 128,-1,27
 235 348 235 348 235 318 c 0,28,29
 235 297 235 297 248.5 283.5 c 128,-1,30
 262 270 262 270 286 266 c 1,31,32
 281 247 281 247 256 247 c 0,33,34
 236 247 236 247 217.5 267.5 c 128,-1,35
 199 288 199 288 199 318 c 0,36,37
 199 362 199 362 226 388.5 c 128,-1,38
 253 415 253 415 296 415 c 0,39,40
 336 415 336 415 361.5 391 c 128,-1,41
 387 367 387 367 387 333 c 0,42,43
 387 291 387 291 365 261 c 128,-1,44
 343 231 343 231 302 207 c 0,45,46
 231 165 231 165 193 138 c 128,-1,47
 155 111 155 111 129 77.5 c 128,-1,48
 103 44 103 44 97 0 c 1,49,-1
 66 0 l 2,50,51
 61 0 61 0 58.5 2 c 128,-1,52
 56 4 56 4 56 11 c 0,53,54
 56 36 56 36 68 57.5 c 128,-1,55
 80 79 80 79 100 103 c 0,56,57
 115 120 115 120 115 125 c 0,58,59
 115 129 115 129 104 145 c 0,60,61
 82 179 82 179 67 217.5 c 128,-1,62
 52 256 52 256 52 310 c 0,63,64
 52 443 52 443 120.5 514.5 c 128,-1,65
 189 586 189 586 315 586 c 0,66,0
 424 586 424 586 481.5 540 c 128,-1,1
EndSplineSet
EndChar

StartChar: uni0E15
Encoding: 3605 3605 456
Width: 630
GlyphClass: 2
Flags: W
AnchorPoint: "Anchor-12" 570 550 basechar 0
AnchorPoint: "Anchor-11" 493 0 basechar 0
LayerCount: 2
Fore
SplineSet
519 531 m 128,-1,1
 550 494 550 494 550 432 c 0,2,3
 550 404 550 404 546 377 c 2,4,-1
 493 0 l 1,5,-1
 451 0 l 1,6,-1
 503 370 l 2,7,8
 507 395 507 395 507 423 c 0,9,10
 507 478 507 478 484.5 506.5 c 128,-1,11
 462 535 462 535 421 546 c 1,12,13
 395 528 395 528 358 508 c 2,14,-1
 323 487 l 1,15,-1
 294 506 l 2,16,17
 251 534 251 534 238 546 c 1,18,19
 164 525 164 525 129 460.5 c 128,-1,20
 94 396 94 396 94 310 c 0,21,22
 94 210 94 210 149 153 c 1,23,24
 170 170 170 170 241 211 c 0,25,26
 275 232 275 232 284 237 c 0,27,28
 316 256 316 256 332.5 278.5 c 128,-1,29
 349 301 349 301 349 330 c 0,30,31
 349 353 349 353 334.5 367 c 128,-1,32
 320 381 320 381 294 381 c 0,33,34
 265 381 265 381 250 364.5 c 128,-1,35
 235 348 235 348 235 318 c 0,36,37
 235 297 235 297 248.5 283.5 c 128,-1,38
 262 270 262 270 286 266 c 1,39,40
 281 247 281 247 256 247 c 0,41,42
 236 247 236 247 217.5 267.5 c 128,-1,43
 199 288 199 288 199 318 c 0,44,45
 199 362 199 362 226 388.5 c 128,-1,46
 253 415 253 415 296 415 c 0,47,48
 336 415 336 415 361.5 391 c 128,-1,49
 387 367 387 367 387 333 c 0,50,51
 387 291 387 291 365 261 c 128,-1,52
 343 231 343 231 302 207 c 0,53,54
 231 165 231 165 193 138 c 128,-1,55
 155 111 155 111 129 77.5 c 128,-1,56
 103 44 103 44 97 0 c 1,57,-1
 66 0 l 2,58,59
 61 0 61 0 58.5 2 c 128,-1,60
 56 4 56 4 56 11 c 0,61,62
 56 36 56 36 68 57.5 c 128,-1,63
 80 79 80 79 100 103 c 0,64,65
 115 120 115 120 115 125 c 0,66,67
 115 129 115 129 104 145 c 0,68,69
 82 179 82 179 67 217.5 c 128,-1,70
 52 256 52 256 52 310 c 0,71,72
 52 419 52 419 96 487.5 c 128,-1,73
 140 556 140 556 242 586 c 1,74,75
 253 578 253 578 275 564 c 0,76,77
 309 542 309 542 326 528 c 1,78,79
 337 536 337 536 354.5 546 c 128,-1,80
 372 556 372 556 379 560 c 0,81,82
 388 565 388 565 399 571.5 c 128,-1,83
 410 578 410 578 423 586 c 1,84,0
 488 568 488 568 519 531 c 128,-1,1
EndSplineSet
EndChar

StartChar: uni0E16
Encoding: 3606 3606 457
Width: 615
GlyphClass: 2
Flags: W
AnchorPoint: "Anchor-12" 556 550 basechar 0
AnchorPoint: "Anchor-11" 478 0 basechar 0
LayerCount: 2
Fore
SplineSet
472.5 545 m 128,-1,1
 534 504 534 504 534 418 c 0,2,3
 534 401 534 401 531 383 c 2,4,-1
 478 0 l 1,5,-1
 436 0 l 1,6,-1
 489 383 l 2,7,8
 491 397 491 397 491 420 c 0,9,10
 491 550 491 550 308 550 c 0,11,12
 248 550 248 550 201 534 c 128,-1,13
 154 518 154 518 128 493 c 128,-1,14
 102 468 102 468 102 443 c 0,15,16
 102 423 102 423 127 407 c 128,-1,17
 152 391 152 391 181 391 c 0,18,19
 192 391 192 391 214 395 c 0,20,21
 234 399 234 399 241 399 c 0,22,23
 247 399 247 399 255 387 c 128,-1,24
 263 375 263 375 263 367 c 0,25,26
 263 360 263 360 256 360 c 0,27,28
 203 360 203 360 173 343.5 c 128,-1,29
 143 327 143 327 129 297 c 128,-1,30
 115 267 115 267 108 221 c 2,31,-1
 92 109 l 2,32,33
 91 102 91 102 91 90 c 0,34,35
 91 60 91 60 106.5 43.5 c 128,-1,36
 122 27 122 27 149 27 c 0,37,38
 180 27 180 27 196 42.5 c 128,-1,39
 212 58 212 58 212 88 c 0,40,41
 212 112 212 112 199 124.5 c 128,-1,42
 186 137 186 137 163 137 c 0,43,44
 137 137 137 137 116 125 c 1,45,46
 113 130 113 130 113 136 c 0,47,48
 113 149 113 149 128 159 c 128,-1,49
 143 169 143 169 168 169 c 0,50,51
 203 169 203 169 225.5 148.5 c 128,-1,52
 248 128 248 128 248 90 c 0,53,54
 248 45 248 45 221 19 c 128,-1,55
 194 -7 194 -7 149 -7 c 0,56,57
 101 -7 101 -7 75 18.5 c 128,-1,58
 49 44 49 44 49 85 c 0,59,60
 49 100 49 100 50 108 c 2,61,-1
 66 221 l 2,62,63
 74 274 74 274 90.5 308 c 128,-1,64
 107 342 107 342 137 363 c 1,65,66
 107 371 107 371 83 394 c 128,-1,67
 59 417 59 417 59 444 c 0,68,69
 59 477 59 477 89.5 510 c 128,-1,70
 120 543 120 543 178 564.5 c 128,-1,71
 236 586 236 586 313 586 c 0,72,0
 411 586 411 586 472.5 545 c 128,-1,1
EndSplineSet
EndChar

StartChar: uni0E17
Encoding: 3607 3607 458
Width: 665
GlyphClass: 2
Flags: W
AnchorPoint: "Anchor-12" 605 550 basechar 0
AnchorPoint: "Anchor-11" 528 0 basechar 0
LayerCount: 2
Fore
SplineSet
568 561 m 128,-1,1
 594 536 594 536 594 488 c 0,2,3
 594 479 594 479 592 459 c 2,4,-1
 528 0 l 1,5,-1
 486 0 l 1,6,-1
 550 455 l 2,7,8
 552 475 552 475 552 482 c 0,9,10
 552 516 552 516 536.5 532 c 128,-1,11
 521 548 521 548 486 548 c 0,12,13
 440 548 440 548 406 513 c 128,-1,14
 372 478 372 478 333 407 c 0,15,16
 327 396 327 396 322.5 387.5 c 128,-1,17
 318 379 318 379 314 373 c 0,18,19
 266 284 266 284 243.5 239 c 128,-1,20
 221 194 221 194 204 145 c 128,-1,21
 187 96 187 96 178 42 c 2,22,-1
 171 0 l 1,23,-1
 140 0 l 2,24,25
 129 0 129 0 132 13 c 0,26,27
 132 20 132 20 137 42 c 0,28,29
 138 52 138 52 140.5 65 c 128,-1,30
 143 78 143 78 145 92 c 2,31,-1
 198 468 l 2,32,33
 201 485 201 485 201 499 c 0,34,35
 201 523 201 523 187.5 537.5 c 128,-1,36
 174 552 174 552 149 552 c 0,37,38
 120 552 120 552 104 538 c 128,-1,39
 88 524 88 524 88 497 c 0,40,41
 88 474 88 474 102.5 461.5 c 128,-1,42
 117 449 117 449 140 449 c 2,43,-1
 164 449 l 1,44,45
 164 436 164 436 154.5 426.5 c 128,-1,46
 145 417 145 417 125 417 c 0,47,48
 97 417 97 417 74.5 438 c 128,-1,49
 52 459 52 459 52 495 c 0,50,51
 52 536 52 536 78.5 561 c 128,-1,52
 105 586 105 586 148 586 c 0,53,54
 190 586 190 586 216.5 563 c 128,-1,55
 243 540 243 540 243 502 c 0,56,57
 243 488 243 488 240 471 c 2,58,-1
 208 244 l 1,59,60
 254 337 254 337 303 425 c 0,61,62
 347 503 347 503 389 544.5 c 128,-1,63
 431 586 431 586 493 586 c 0,64,0
 542 586 542 586 568 561 c 128,-1,1
EndSplineSet
EndChar

StartChar: uni0E18
Encoding: 3608 3608 459
Width: 590
GlyphClass: 2
Flags: W
AnchorPoint: "Anchor-12" 509 550 basechar 0
AnchorPoint: "Anchor-11" 402 0 basechar 0
LayerCount: 2
Fore
SplineSet
102 17 m 128,-1,1
 61 43 61 43 61 108 c 0,2,3
 61 123 61 123 65.5 157 c 128,-1,4
 70 191 70 191 72 207 c 2,5,-1
 80 264 l 1,6,7
 92 268 92 268 102 268 c 0,8,9
 110 268 110 268 115.5 262.5 c 128,-1,10
 121 257 121 257 120 248 c 0,11,12
 111 190 111 190 107 159.5 c 128,-1,13
 103 129 103 129 103 116 c 0,14,15
 103 67 103 67 132.5 48 c 128,-1,16
 162 29 162 29 236 29 c 0,17,18
 296 29 296 29 331.5 39.5 c 128,-1,19
 367 50 367 50 385.5 75 c 128,-1,20
 404 100 404 100 412 146 c 0,21,22
 426 230 426 230 426 253 c 0,23,24
 426 285 426 285 404 303.5 c 128,-1,25
 382 322 382 322 344 327 c 0,26,27
 234 339 234 339 148 339 c 2,28,-1
 105 338 l 1,29,30
 93 350 93 350 84 379.5 c 128,-1,31
 75 409 75 409 75 436 c 0,32,33
 75 512 75 512 118 547 c 128,-1,34
 161 582 161 582 238 582 c 0,35,36
 265 582 265 582 297 579 c 128,-1,37
 329 576 329 576 338 575 c 0,38,39
 398 569 398 569 421 569 c 0,40,41
 452 569 452 569 475 575 c 128,-1,42
 498 581 498 581 520 595 c 1,43,44
 526 591 526 591 529 582.5 c 128,-1,45
 532 574 532 574 531 565 c 0,46,47
 529 550 529 550 499.5 539.5 c 128,-1,48
 470 529 470 529 432 529 c 0,49,50
 411 529 411 529 383 532 c 128,-1,51
 355 535 355 535 344 536 c 0,52,53
 283 545 283 545 239 545 c 0,54,55
 179 545 179 545 148.5 519.5 c 128,-1,56
 118 494 118 494 118 438 c 0,57,58
 118 421 118 421 122 403.5 c 128,-1,59
 126 386 126 386 131 378 c 1,60,-1
 166 378 l 2,61,62
 261 378 261 378 355 364 c 0,63,64
 468 346 468 346 468 262 c 0,65,66
 468 224 468 224 455 145 c 0,67,68
 445 83 445 83 418.5 49.5 c 128,-1,69
 392 16 392 16 348 3.5 c 128,-1,70
 304 -9 304 -9 233 -9 c 0,71,0
 143 -9 143 -9 102 17 c 128,-1,1
EndSplineSet
EndChar

StartChar: uni0E19
Encoding: 3609 3609 460
Width: 637
GlyphClass: 2
Flags: W
AnchorPoint: "Anchor-12" 577 550 basechar 0
AnchorPoint: "Anchor-11" 500 0 basechar 0
LayerCount: 2
Fore
SplineSet
551 114 m 0,1,2
 551 59 551 59 517.5 27.5 c 128,-1,3
 484 -4 484 -4 435 -4 c 0,4,5
 395 -4 395 -4 370 19.5 c 128,-1,6
 345 43 345 43 345 83 c 0,7,8
 345 121 345 121 362 144.5 c 128,-1,9
 379 168 379 168 411 193 c 1,10,11
 402 194 402 194 383 194 c 0,12,13
 339 194 339 194 287.5 165.5 c 128,-1,14
 236 137 236 137 198 92 c 128,-1,15
 160 47 160 47 154 0 c 1,16,-1
 129 0 l 2,17,18
 112 0 112 0 112 15 c 0,19,20
 112 21 112 21 117 44 c 0,21,22
 127 96 127 96 129 113 c 2,23,-1
 178 468 l 2,24,25
 181 485 181 485 181 499 c 0,26,27
 181 523 181 523 167.5 537.5 c 128,-1,28
 154 552 154 552 129 552 c 0,29,30
 100 552 100 552 84 538 c 128,-1,31
 68 524 68 524 68 497 c 0,32,33
 68 474 68 474 82.5 461.5 c 128,-1,34
 97 449 97 449 120 449 c 2,35,-1
 144 449 l 1,36,37
 144 436 144 436 134.5 426.5 c 128,-1,38
 125 417 125 417 105 417 c 0,39,40
 77 417 77 417 54.5 438 c 128,-1,41
 32 459 32 459 32 495 c 0,42,43
 32 536 32 536 58.5 561 c 128,-1,44
 85 586 85 586 128 586 c 0,45,46
 170 586 170 586 196.5 563 c 128,-1,47
 223 540 223 540 223 502 c 0,48,49
 223 488 223 488 220 471 c 2,50,-1
 170 115 l 1,51,52
 214 168 214 168 271.5 199 c 128,-1,53
 329 230 329 230 391 230 c 0,54,55
 423 230 423 230 452 224 c 1,56,57
 473 242 473 242 485 262 c 128,-1,58
 497 282 497 282 501 309 c 2,59,-1
 539 576 l 1,60,-1
 581 576 l 1,61,-1
 542 304 l 2,62,63
 538 275 538 275 524 253.5 c 128,-1,64
 510 232 510 232 487 212 c 1,65,0
 551 181 551 181 551 114 c 0,1,2
494 51.5 m 128,-1,67
 514 74 514 74 514 111 c 0,68,69
 514 138 514 138 497.5 156.5 c 128,-1,70
 481 175 481 175 453 184 c 1,71,72
 425 163 425 163 412.5 152.5 c 128,-1,73
 400 142 400 142 391 126 c 128,-1,74
 382 110 382 110 382 88 c 0,75,76
 382 61 382 61 397.5 45 c 128,-1,77
 413 29 413 29 440 29 c 0,78,66
 474 29 474 29 494 51.5 c 128,-1,67
EndSplineSet
EndChar

StartChar: uni0E1A
Encoding: 3610 3610 461
Width: 665
GlyphClass: 2
Flags: W
AnchorPoint: "Anchor-12" 605 550 basechar 0
AnchorPoint: "Anchor-11" 527 0 basechar 0
LayerCount: 2
Fore
SplineSet
215.5 3 m 128,-1,1
 175 15 175 15 148 46 c 0,2,3
 131 66 131 66 131 110 c 0,4,5
 131 141 131 141 137 180 c 2,6,-1
 178 468 l 2,7,8
 181 485 181 485 181 499 c 0,9,10
 181 523 181 523 167.5 537.5 c 128,-1,11
 154 552 154 552 129 552 c 0,12,13
 100 552 100 552 84 538 c 128,-1,14
 68 524 68 524 68 497 c 0,15,16
 68 474 68 474 82.5 461.5 c 128,-1,17
 97 449 97 449 120 449 c 2,18,-1
 144 449 l 1,19,20
 144 436 144 436 134.5 426.5 c 128,-1,21
 125 417 125 417 105 417 c 0,22,23
 77 417 77 417 54.5 438 c 128,-1,24
 32 459 32 459 32 495 c 0,25,26
 32 536 32 536 58.5 561 c 128,-1,27
 85 586 85 586 128 586 c 0,28,29
 170 586 170 586 196.5 563 c 128,-1,30
 223 540 223 540 223 502 c 0,31,32
 223 488 223 488 220 471 c 2,33,-1
 180 190 l 2,34,35
 172 131 172 131 172 107 c 0,36,37
 172 81 172 81 181 72 c 0,38,39
 222 27 222 27 315 27 c 0,40,41
 367 27 367 27 410.5 39.5 c 128,-1,42
 454 52 454 52 478 71 c 0,43,44
 492 83 492 83 498 107 c 128,-1,45
 504 131 504 131 512 190 c 2,46,-1
 567 576 l 1,47,-1
 609 576 l 1,48,-1
 553 180 l 2,49,50
 545 118 545 118 535.5 91.5 c 128,-1,51
 526 65 526 65 502 46 c 0,52,53
 465 17 465 17 414.5 4 c 128,-1,54
 364 -9 364 -9 310 -9 c 256,55,0
 256 -9 256 -9 215.5 3 c 128,-1,1
EndSplineSet
EndChar

StartChar: uni0E1B
Encoding: 3611 3611 462
Width: 665
GlyphClass: 2
Flags: W
AnchorPoint: "Anchor-12" 479 550 basechar 0
AnchorPoint: "Anchor-11" 527 0 basechar 0
LayerCount: 2
Fore
SplineSet
215.5 3 m 128,-1,1
 175 15 175 15 148 46 c 0,2,3
 131 66 131 66 131 110 c 0,4,5
 131 141 131 141 137 180 c 2,6,-1
 178 468 l 2,7,8
 181 485 181 485 181 499 c 0,9,10
 181 523 181 523 167.5 537.5 c 128,-1,11
 154 552 154 552 129 552 c 0,12,13
 100 552 100 552 84 538 c 128,-1,14
 68 524 68 524 68 497 c 0,15,16
 68 474 68 474 82.5 461.5 c 128,-1,17
 97 449 97 449 120 449 c 2,18,-1
 144 449 l 1,19,20
 144 436 144 436 134.5 426.5 c 128,-1,21
 125 417 125 417 105 417 c 0,22,23
 77 417 77 417 54.5 438 c 128,-1,24
 32 459 32 459 32 495 c 0,25,26
 32 536 32 536 58.5 561 c 128,-1,27
 85 586 85 586 128 586 c 0,28,29
 170 586 170 586 196.5 563 c 128,-1,30
 223 540 223 540 223 502 c 0,31,32
 223 488 223 488 220 471 c 2,33,-1
 180 190 l 2,34,35
 172 131 172 131 172 107 c 0,36,37
 172 81 172 81 181 72 c 0,38,39
 222 27 222 27 315 27 c 0,40,41
 367 27 367 27 410.5 39.5 c 128,-1,42
 454 52 454 52 478 71 c 0,43,44
 492 83 492 83 498 107 c 128,-1,45
 504 131 504 131 512 190 c 2,46,-1
 598 783 l 1,47,-1
 638 783 l 1,48,-1
 553 180 l 2,49,50
 545 118 545 118 535.5 91.5 c 128,-1,51
 526 65 526 65 502 46 c 0,52,53
 465 17 465 17 414.5 4 c 128,-1,54
 364 -9 364 -9 310 -9 c 256,55,0
 256 -9 256 -9 215.5 3 c 128,-1,1
EndSplineSet
EndChar

StartChar: uni0E1C
Encoding: 3612 3612 463
Width: 624
GlyphClass: 2
Flags: W
AnchorPoint: "Anchor-12" 560 550 basechar 0
AnchorPoint: "Anchor-11" 483 0 basechar 0
LayerCount: 2
Fore
SplineSet
564 576 m 1,0,-1
 501 132 l 2,1,2
 492 61 492 61 490 22 c 0,3,4
 489 10 489 10 485 5 c 128,-1,5
 481 0 481 0 472 0 c 2,6,-1
 441 0 l 1,7,8
 442 5 442 5 443 11 c 128,-1,9
 444 17 444 17 444 26 c 0,10,11
 444 76 444 76 398 142 c 128,-1,12
 352 208 352 208 289 263 c 1,13,14
 205 206 205 206 137.5 135.5 c 128,-1,15
 70 65 70 65 63 14 c 2,16,-1
 61 0 l 1,17,-1
 26 0 l 2,18,19
 19 0 19 0 17 2.5 c 128,-1,20
 15 5 15 5 15 11 c 0,21,22
 15 14 15 14 19 36 c 0,23,24
 27 65 27 65 33 105 c 2,25,-1
 85 472 l 2,26,27
 93 526 93 526 123 556 c 128,-1,28
 153 586 153 586 206 586 c 0,29,30
 246 586 246 586 271 563.5 c 128,-1,31
 296 541 296 541 296 503 c 0,32,33
 296 455 296 455 267.5 431 c 128,-1,34
 239 407 239 407 198 407 c 0,35,36
 176 407 176 407 161 418 c 128,-1,37
 146 429 146 429 146 443 c 0,38,39
 146 446 146 446 148 452 c 1,40,41
 162 439 162 439 199 439 c 0,42,43
 227 439 227 439 243.5 455.5 c 128,-1,44
 260 472 260 472 260 502 c 0,45,46
 260 525 260 525 245 538.5 c 128,-1,47
 230 552 230 552 203 552 c 0,48,49
 170 552 170 552 151.5 532.5 c 128,-1,50
 133 513 133 513 127 471 c 2,51,-1
 79 126 l 1,52,53
 114 171 114 171 170 218.5 c 128,-1,54
 226 266 226 266 288 306 c 1,55,-1
 295 306 l 1,56,57
 340 273 340 273 386.5 219 c 128,-1,58
 433 165 433 165 458 118 c 1,59,-1
 522 576 l 1,60,-1
 564 576 l 1,0,-1
EndSplineSet
EndChar

StartChar: uni0E1D
Encoding: 3613 3613 464
Width: 624
GlyphClass: 2
Flags: W
AnchorPoint: "Anchor-12" 438 550 basechar 0
AnchorPoint: "Anchor-11" 483 0 basechar 0
LayerCount: 2
Fore
SplineSet
593 783 m 1,0,-1
 501 132 l 2,1,2
 492 67 492 67 491 47 c 128,-1,3
 490 27 490 27 490 22 c 0,4,5
 489 10 489 10 485 5 c 128,-1,6
 481 0 481 0 472 0 c 2,7,-1
 441 0 l 1,8,9
 442 5 442 5 443 11 c 128,-1,10
 444 17 444 17 444 26 c 0,11,12
 444 76 444 76 398 142 c 128,-1,13
 352 208 352 208 289 263 c 1,14,15
 205 206 205 206 137.5 135.5 c 128,-1,16
 70 65 70 65 63 14 c 2,17,-1
 61 0 l 1,18,-1
 26 0 l 2,19,20
 19 0 19 0 17 2.5 c 128,-1,21
 15 5 15 5 15 11 c 0,22,23
 15 14 15 14 19 36 c 0,24,25
 27 65 27 65 33 105 c 2,26,-1
 85 472 l 2,27,28
 93 526 93 526 123 556 c 128,-1,29
 153 586 153 586 206 586 c 0,30,31
 246 586 246 586 271 563.5 c 128,-1,32
 296 541 296 541 296 503 c 0,33,34
 296 455 296 455 267.5 431 c 128,-1,35
 239 407 239 407 198 407 c 0,36,37
 176 407 176 407 161 418 c 128,-1,38
 146 429 146 429 146 443 c 0,39,40
 146 446 146 446 148 452 c 1,41,42
 162 439 162 439 199 439 c 0,43,44
 227 439 227 439 243.5 455.5 c 128,-1,45
 260 472 260 472 260 502 c 0,46,47
 260 525 260 525 245 538.5 c 128,-1,48
 230 552 230 552 203 552 c 0,49,50
 170 552 170 552 151.5 532.5 c 128,-1,51
 133 513 133 513 127 471 c 2,52,-1
 79 126 l 1,53,54
 114 171 114 171 170 218.5 c 128,-1,55
 226 266 226 266 288 306 c 1,56,-1
 295 306 l 1,57,58
 340 273 340 273 386.5 219 c 128,-1,59
 433 165 433 165 458 118 c 1,60,-1
 551 783 l 1,61,-1
 593 783 l 1,0,-1
EndSplineSet
EndChar

StartChar: uni0E1E
Encoding: 3614 3614 465
Width: 718
GlyphClass: 2
Flags: W
AnchorPoint: "Anchor-12" 654 550 basechar 0
AnchorPoint: "Anchor-11" 577 0 basechar 0
LayerCount: 2
Fore
SplineSet
658 576 m 1,0,-1
 603 190 l 2,1,2
 602 181 602 181 592.5 113.5 c 128,-1,3
 583 46 583 46 583 17 c 0,4,5
 583 6 583 6 579.5 3 c 128,-1,6
 576 0 576 0 570 0 c 2,7,-1
 537 0 l 1,8,9
 541 34 541 34 541 48 c 0,10,11
 541 118 541 118 500.5 239 c 128,-1,12
 460 360 460 360 412 458 c 1,13,14
 338 356 338 356 262.5 223.5 c 128,-1,15
 187 91 187 91 177 27 c 2,16,-1
 173 0 l 1,17,-1
 136 0 l 2,18,19
 126 0 126 0 126 11 c 0,20,21
 126 15 126 15 134.5 48.5 c 128,-1,22
 143 82 143 82 158 190 c 2,23,-1
 198 468 l 2,24,25
 201 485 201 485 201 499 c 0,26,27
 201 523 201 523 187.5 537.5 c 128,-1,28
 174 552 174 552 149 552 c 0,29,30
 120 552 120 552 104 538 c 128,-1,31
 88 524 88 524 88 497 c 0,32,33
 88 474 88 474 102.5 461.5 c 128,-1,34
 117 449 117 449 140 449 c 2,35,-1
 164 449 l 1,36,37
 164 436 164 436 154.5 426.5 c 128,-1,38
 145 417 145 417 125 417 c 0,39,40
 97 417 97 417 74.5 438 c 128,-1,41
 52 459 52 459 52 495 c 0,42,43
 52 536 52 536 78.5 561 c 128,-1,44
 105 586 105 586 148 586 c 0,45,46
 190 586 190 586 216.5 563 c 128,-1,47
 243 540 243 540 243 502 c 0,48,49
 243 488 243 488 240 471 c 2,50,-1
 199 180 l 1,51,52
 236 258 236 258 293 348.5 c 128,-1,53
 350 439 350 439 409 520 c 1,54,-1
 427 520 l 1,55,56
 463 447 463 447 501 350 c 128,-1,57
 539 253 539 253 559 171 c 1,58,-1
 616 576 l 1,59,-1
 658 576 l 1,0,-1
EndSplineSet
EndChar

StartChar: uni0E1F
Encoding: 3615 3615 466
Width: 718
GlyphClass: 2
Flags: W
AnchorPoint: "Anchor-12" 532 550 basechar 0
AnchorPoint: "Anchor-11" 577 0 basechar 0
LayerCount: 2
Fore
SplineSet
687 783 m 1,0,-1
 603 190 l 2,1,2
 602 181 602 181 592.5 113.5 c 128,-1,3
 583 46 583 46 583 17 c 0,4,5
 583 6 583 6 579.5 3 c 128,-1,6
 576 0 576 0 570 0 c 2,7,-1
 537 0 l 1,8,9
 541 34 541 34 541 48 c 0,10,11
 541 118 541 118 500.5 239 c 128,-1,12
 460 360 460 360 412 458 c 1,13,14
 338 356 338 356 262.5 223.5 c 128,-1,15
 187 91 187 91 177 27 c 2,16,-1
 173 0 l 1,17,-1
 136 0 l 2,18,19
 126 0 126 0 126 11 c 0,20,21
 126 15 126 15 134.5 48.5 c 128,-1,22
 143 82 143 82 158 190 c 2,23,-1
 198 468 l 2,24,25
 201 485 201 485 201 499 c 0,26,27
 201 523 201 523 187.5 537.5 c 128,-1,28
 174 552 174 552 149 552 c 0,29,30
 120 552 120 552 104 538 c 128,-1,31
 88 524 88 524 88 497 c 0,32,33
 88 474 88 474 102.5 461.5 c 128,-1,34
 117 449 117 449 140 449 c 2,35,-1
 164 449 l 1,36,37
 164 436 164 436 154.5 426.5 c 128,-1,38
 145 417 145 417 125 417 c 0,39,40
 97 417 97 417 74.5 438 c 128,-1,41
 52 459 52 459 52 495 c 0,42,43
 52 536 52 536 78.5 561 c 128,-1,44
 105 586 105 586 148 586 c 0,45,46
 190 586 190 586 216.5 563 c 128,-1,47
 243 540 243 540 243 502 c 0,48,49
 243 488 243 488 240 471 c 2,50,-1
 199 180 l 1,51,52
 236 258 236 258 293 348.5 c 128,-1,53
 350 439 350 439 409 520 c 1,54,-1
 427 520 l 1,55,56
 463 447 463 447 501 350 c 128,-1,57
 539 253 539 253 559 171 c 1,58,-1
 645 783 l 1,59,-1
 687 783 l 1,0,-1
EndSplineSet
EndChar

StartChar: uni0E20
Encoding: 3616 3616 467
Width: 630
GlyphClass: 2
Flags: W
AnchorPoint: "Anchor-12" 571 550 basechar 0
AnchorPoint: "Anchor-11" 493 0 basechar 0
LayerCount: 2
Fore
SplineSet
487 545 m 128,-1,1
 547 504 547 504 547 411 c 0,2,3
 547 390 547 390 544 366 c 2,4,-1
 493 0 l 1,5,-1
 451 0 l 1,6,-1
 502 366 l 2,7,8
 505 390 505 390 505 410 c 0,9,10
 505 488 505 488 457.5 519 c 128,-1,11
 410 550 410 550 329 550 c 0,12,13
 271 550 271 550 222.5 535.5 c 128,-1,14
 174 521 174 521 146 498 c 128,-1,15
 118 475 118 475 118 452 c 0,16,17
 118 433 118 433 135.5 418 c 128,-1,18
 153 403 153 403 174 395 c 128,-1,19
 195 387 195 387 203 387 c 0,20,21
 213 387 213 387 228 392 c 0,22,23
 250 398 250 398 263 398 c 0,24,25
 270 398 270 398 275.5 389 c 128,-1,26
 281 380 281 380 281 371 c 0,27,28
 281 366 281 366 280 362 c 128,-1,29
 279 358 279 358 277 358 c 0,30,31
 208 358 208 358 181.5 329.5 c 128,-1,32
 155 301 155 301 155 227 c 0,33,34
 155 206 155 206 159 170 c 0,35,36
 160 161 160 161 161 149 c 128,-1,37
 162 137 162 137 162 121 c 0,38,39
 162 61 162 61 131.5 26.5 c 128,-1,40
 101 -8 101 -8 49 -8 c 0,41,42
 12 -8 12 -8 -9.5 12.5 c 128,-1,43
 -31 33 -31 33 -31 66 c 0,44,45
 -31 96 -31 96 -17 118 c 128,-1,46
 -3 140 -3 140 17.5 151.5 c 128,-1,47
 38 163 38 163 57 163 c 0,48,49
 75 163 75 163 83.5 155.5 c 128,-1,50
 92 148 92 148 90 133 c 1,51,-1
 71 133 l 2,52,53
 40 133 40 133 22.5 115.5 c 128,-1,54
 5 98 5 98 5 69 c 0,55,56
 5 48 5 48 17.5 37 c 128,-1,57
 30 26 30 26 53 26 c 0,58,59
 122 26 122 26 122 122 c 0,60,61
 122 139 122 139 118 177 c 256,62,63
 114 215 114 215 114 237 c 0,64,65
 114 321 114 321 161 359 c 1,66,67
 126 371 126 371 98.5 395.5 c 128,-1,68
 71 420 71 420 71 448 c 0,69,70
 71 481 71 481 105.5 513 c 128,-1,71
 140 545 140 545 200.5 565.5 c 128,-1,72
 261 586 261 586 334 586 c 0,73,0
 427 586 427 586 487 545 c 128,-1,1
EndSplineSet
EndChar

StartChar: uni0E21
Encoding: 3617 3617 468
Width: 657
GlyphClass: 2
Flags: W
AnchorPoint: "Anchor-12" 580 550 basechar 0
AnchorPoint: "Anchor-11" 502 0 basechar 0
LayerCount: 2
Fore
SplineSet
584 576 m 1,0,-1
 520 124 l 2,1,2
 516 98 516 98 514 74.5 c 128,-1,3
 512 51 512 51 511 43 c 0,4,5
 509 24 509 24 508 18 c 0,6,7
 506 8 506 8 502.5 4 c 128,-1,8
 499 0 499 0 492 0 c 2,9,-1
 463 0 l 1,10,11
 449 105 449 105 387 158 c 128,-1,12
 325 211 325 211 225 217 c 1,13,-1
 221 178 l 2,14,15
 216 135 216 135 211 99 c 0,16,17
 193 -9 193 -9 112 -9 c 0,18,19
 75 -9 75 -9 50.5 15.5 c 128,-1,20
 26 40 26 40 26 82 c 0,21,22
 26 152 26 152 70.5 197.5 c 128,-1,23
 115 243 115 243 187 251 c 1,24,-1
 194 300 l 1,25,-1
 218 468 l 2,26,27
 221 485 221 485 221 499 c 0,28,29
 221 523 221 523 207.5 537.5 c 128,-1,30
 194 552 194 552 169 552 c 0,31,32
 140 552 140 552 124 538 c 128,-1,33
 108 524 108 524 108 497 c 0,34,35
 108 474 108 474 122.5 461.5 c 128,-1,36
 137 449 137 449 160 449 c 2,37,-1
 184 449 l 1,38,39
 184 436 184 436 174.5 426.5 c 128,-1,40
 165 417 165 417 145 417 c 0,41,42
 117 417 117 417 94.5 438 c 128,-1,43
 72 459 72 459 72 495 c 0,44,45
 72 536 72 536 98.5 561 c 128,-1,46
 125 586 125 586 168 586 c 0,47,48
 210 586 210 586 236.5 563 c 128,-1,49
 263 540 263 540 263 502 c 0,50,51
 263 488 263 488 260 471 c 2,52,-1
 229 253 l 1,53,54
 311 253 311 253 377 214.5 c 128,-1,55
 443 176 443 176 476 108 c 1,56,-1
 542 576 l 1,57,-1
 584 576 l 1,0,-1
173 136 m 1,58,-1
 183 214 l 1,59,60
 125 208 125 208 96.5 176 c 128,-1,61
 68 144 68 144 68 84 c 0,62,63
 68 26 68 26 110 26 c 0,64,65
 135 26 135 26 148.5 43.5 c 128,-1,66
 162 61 162 61 168 100 c 2,67,-1
 173 136 l 1,58,-1
EndSplineSet
EndChar

StartChar: uni0E22
Encoding: 3618 3618 469
Width: 610
GlyphClass: 2
Flags: W
AnchorPoint: "Anchor-12" 549 550 basechar 0
AnchorPoint: "Anchor-11" 471 0 basechar 0
LayerCount: 2
Fore
SplineSet
554 576 m 1,0,-1
 513 284 l 1,1,-1
 509 255 l 2,2,3
 497 163 497 163 484.5 118.5 c 128,-1,4
 472 74 472 74 440 48 c 0,5,6
 405 19 405 19 355 5 c 128,-1,7
 305 -9 305 -9 253 -9 c 0,8,9
 200 -9 200 -9 148.5 5 c 128,-1,10
 97 19 97 19 71 48 c 0,11,12
 57 64 57 64 50 83 c 128,-1,13
 43 102 43 102 43 129 c 0,14,15
 43 138 43 138 49 188 c 0,16,17
 56 235 56 235 81 263.5 c 128,-1,18
 106 292 106 292 138 303 c 1,19,20
 111 319 111 319 92 351 c 128,-1,21
 73 383 73 383 73 426 c 0,22,23
 73 497 73 497 113.5 541.5 c 128,-1,24
 154 586 154 586 223 586 c 0,25,26
 264 586 264 586 289 562.5 c 128,-1,27
 314 539 314 539 314 502 c 0,28,29
 314 454 314 454 287 431 c 128,-1,30
 260 408 260 408 216 408 c 0,31,32
 190 408 190 408 172 422.5 c 128,-1,33
 154 437 154 437 154 455 c 0,34,35
 154 461 154 461 157 467 c 1,36,37
 166 455 166 455 181.5 447.5 c 128,-1,38
 197 440 197 440 216 440 c 0,39,40
 246 440 246 440 261.5 454 c 128,-1,41
 277 468 277 468 277 500 c 0,42,43
 277 523 277 523 262.5 537.5 c 128,-1,44
 248 552 248 552 220 552 c 0,45,46
 169 552 169 552 142 519 c 128,-1,47
 115 486 115 486 115 430 c 0,48,49
 115 311 115 311 304 311 c 0,50,51
 309 311 309 311 306 301.5 c 128,-1,52
 303 292 303 292 296 283 c 128,-1,53
 289 274 289 274 283 274 c 0,54,55
 274 274 274 274 265.5 275 c 128,-1,56
 257 276 257 276 248 277 c 0,57,58
 206 282 206 282 190 282 c 0,59,60
 152 282 152 282 124 257 c 128,-1,61
 96 232 96 232 90 185 c 0,62,63
 85 155 85 155 85 133 c 0,64,65
 85 96 85 96 102 75 c 256,66,67
 119 54 119 54 159 40.5 c 128,-1,68
 199 27 199 27 255 27 c 0,69,70
 310 27 310 27 351 41.5 c 128,-1,71
 392 56 392 56 417 78 c 0,72,73
 438 98 438 98 447 135 c 128,-1,74
 456 172 456 172 467 251 c 0,75,76
 469 274 469 274 471 284 c 2,77,-1
 512 576 l 1,78,-1
 554 576 l 1,0,-1
EndSplineSet
EndChar

StartChar: uni0E23
Encoding: 3619 3619 470
Width: 508
GlyphClass: 2
Flags: W
AnchorPoint: "Anchor-12" 448 550 basechar 0
AnchorPoint: "Anchor-11" 348 0 basechar 0
LayerCount: 2
Fore
SplineSet
169.5 17 m 128,-1,1
 143 43 143 43 143 83 c 0,2,3
 143 130 143 130 174 158.5 c 128,-1,4
 205 187 205 187 250 187 c 0,5,6
 276 187 276 187 287 177 c 128,-1,7
 298 167 298 167 297 151 c 1,8,9
 269 155 269 155 252 155 c 0,10,11
 217 155 217 155 198 135 c 128,-1,12
 179 115 179 115 179 82 c 0,13,14
 179 57 179 57 195 41 c 128,-1,15
 211 25 211 25 238 25 c 0,16,17
 275 25 275 25 294.5 45.5 c 128,-1,18
 314 66 314 66 325 113 c 0,19,20
 344 196 344 196 344 244 c 0,21,22
 344 283 344 283 327 303.5 c 128,-1,23
 310 324 310 324 271 333 c 0,24,25
 227 343 227 343 190 346 c 128,-1,26
 153 349 153 349 69 349 c 1,27,28
 59 361 59 361 53 380 c 128,-1,29
 47 399 47 399 47 421 c 0,30,31
 47 469 47 469 70 506 c 128,-1,32
 93 543 93 543 131 562.5 c 128,-1,33
 169 582 169 582 214 582 c 0,34,35
 253 582 253 582 311 574 c 0,36,37
 359 568 359 568 376 568 c 0,38,39
 442 568 442 568 471 595 c 1,40,41
 486 586 486 586 484 574 c 0,42,43
 480 554 480 554 449.5 542 c 128,-1,44
 419 530 419 530 373 530 c 0,45,46
 344 530 344 530 292 538 c 0,47,48
 238 546 238 546 209 546 c 0,49,50
 152 546 152 546 120.5 513.5 c 128,-1,51
 89 481 89 481 89 424 c 0,52,53
 89 401 89 401 99 386 c 1,54,55
 222 380 222 380 290 367 c 0,56,57
 339 357 339 357 362.5 327.5 c 128,-1,58
 386 298 386 298 386 246 c 0,59,60
 386 201 386 201 367 114 c 0,61,62
 354 51 354 51 322 21 c 128,-1,63
 290 -9 290 -9 237 -9 c 0,64,0
 196 -9 196 -9 169.5 17 c 128,-1,1
EndSplineSet
EndChar

StartChar: uni0E24
Encoding: 3620 3620 471
Width: 615
GlyphClass: 2
Flags: W
AnchorPoint: "Anchor-12" 556 550 basechar 0
AnchorPoint: "Anchor-11" 447 -220 basechar 0
LayerCount: 2
Fore
SplineSet
489 383 m 2,0,1
 491 397 491 397 491 420 c 0,2,3
 491 550 491 550 308 550 c 0,4,5
 248 550 248 550 201 534 c 128,-1,6
 154 518 154 518 128 493 c 128,-1,7
 102 468 102 468 102 443 c 0,8,9
 102 423 102 423 127 407 c 128,-1,10
 152 391 152 391 181 391 c 0,11,12
 192 391 192 391 214 395 c 0,13,14
 234 399 234 399 241 399 c 0,15,16
 247 399 247 399 255 387 c 128,-1,17
 263 375 263 375 263 367 c 0,18,19
 263 360 263 360 256 360 c 0,20,21
 203 360 203 360 173 343 c 128,-1,22
 143 326 143 326 129 296.5 c 128,-1,23
 115 267 115 267 108 221 c 2,24,-1
 92 109 l 2,25,26
 91 102 91 102 91 90 c 0,27,28
 91 60 91 60 106.5 43.5 c 128,-1,29
 122 27 122 27 149 27 c 0,30,31
 180 27 180 27 196 42.5 c 128,-1,32
 212 58 212 58 212 88 c 0,33,34
 212 112 212 112 199 124.5 c 128,-1,35
 186 137 186 137 163 137 c 0,36,37
 137 137 137 137 116 125 c 1,38,39
 113 130 113 130 113 136 c 0,40,41
 113 149 113 149 128 159 c 128,-1,42
 143 169 143 169 168 169 c 0,43,44
 203 169 203 169 225.5 148.5 c 128,-1,45
 248 128 248 128 248 90 c 0,46,47
 248 45 248 45 221 19 c 128,-1,48
 194 -7 194 -7 149 -7 c 0,49,50
 101 -7 101 -7 75 18.5 c 128,-1,51
 49 44 49 44 49 85 c 0,52,53
 49 100 49 100 50 108 c 2,54,-1
 66 221 l 2,55,56
 73 273 73 273 90 307.5 c 128,-1,57
 107 342 107 342 137 363 c 1,58,59
 107 371 107 371 83 394 c 128,-1,60
 59 417 59 417 59 444 c 0,61,62
 59 477 59 477 89.5 510 c 128,-1,63
 120 543 120 543 178 564.5 c 128,-1,64
 236 586 236 586 313 586 c 0,65,66
 411 586 411 586 472.5 545 c 128,-1,67
 534 504 534 504 534 418 c 0,68,69
 534 401 534 401 531 383 c 2,70,-1
 447 -220 l 1,71,-1
 405 -220 l 1,72,-1
 489 383 l 2,0,1
EndSplineSet
Substitution2: "Single Substitution lookup 14 subtable" uni0E24.short
Substitution2: "'aalt' Access All Alternates lookup 0 subtable" uni0E24.short
EndChar

StartChar: uni0E24.short
Encoding: 65543 -1 472
Width: 614
GlyphClass: 2
Flags: W
AnchorPoint: "Anchor-12" 554 550 basechar 0
AnchorPoint: "Anchor-11" 454 -160 basechar 0
LayerCount: 2
Fore
SplineSet
489 383 m 2,0,1
 491 397 491 397 491 420 c 0,2,3
 491 550 491 550 308 550 c 0,4,5
 248 550 248 550 201 534 c 128,-1,6
 154 518 154 518 128 493 c 128,-1,7
 102 468 102 468 102 443 c 0,8,9
 102 423 102 423 127 407 c 128,-1,10
 152 391 152 391 181 391 c 0,11,12
 192 391 192 391 214 395 c 0,13,14
 234 399 234 399 241 399 c 0,15,16
 247 399 247 399 255 387 c 128,-1,17
 263 375 263 375 263 367 c 0,18,19
 263 360 263 360 256 360 c 0,20,21
 203 360 203 360 173 343 c 128,-1,22
 143 326 143 326 129 296.5 c 128,-1,23
 115 267 115 267 108 221 c 2,24,-1
 92 109 l 2,25,26
 91 102 91 102 91 90 c 0,27,28
 91 60 91 60 106.5 43.5 c 128,-1,29
 122 27 122 27 149 27 c 0,30,31
 180 27 180 27 196 42.5 c 128,-1,32
 212 58 212 58 212 88 c 0,33,34
 212 112 212 112 199 124.5 c 128,-1,35
 186 137 186 137 163 137 c 0,36,37
 137 137 137 137 116 125 c 1,38,39
 113 130 113 130 113 136 c 0,40,41
 113 149 113 149 128 159 c 128,-1,42
 143 169 143 169 168 169 c 0,43,44
 203 169 203 169 225.5 148.5 c 128,-1,45
 248 128 248 128 248 90 c 0,46,47
 248 45 248 45 221 19 c 128,-1,48
 194 -7 194 -7 149 -7 c 0,49,50
 101 -7 101 -7 75 18.5 c 128,-1,51
 49 44 49 44 49 85 c 0,52,53
 49 100 49 100 50 108 c 2,54,-1
 66 221 l 2,55,56
 73 273 73 273 90 307.5 c 128,-1,57
 107 342 107 342 137 363 c 1,58,59
 107 371 107 371 83 394 c 128,-1,60
 59 417 59 417 59 444 c 0,61,62
 59 477 59 477 89.5 510 c 128,-1,63
 120 543 120 543 178 564.5 c 128,-1,64
 236 586 236 586 313 586 c 0,65,66
 411 586 411 586 472.5 545 c 128,-1,67
 534 504 534 504 534 418 c 0,68,69
 534 401 534 401 531 383 c 2,70,-1
 454 -160 l 1,71,-1
 412 -160 l 1,72,-1
 489 383 l 2,0,1
EndSplineSet
EndChar

StartChar: uni0E25
Encoding: 3621 3621 473
Width: 618
GlyphClass: 2
Flags: W
AnchorPoint: "Anchor-12" 544 550 basechar 0
AnchorPoint: "Anchor-11" 467 0 basechar 0
LayerCount: 2
Fore
SplineSet
480.5 542 m 128,-1,1
 535 498 535 498 535 424 c 0,2,3
 535 387 535 387 525.5 336 c 128,-1,4
 516 285 516 285 500 214 c 0,5,6
 489 165 489 165 488 157 c 0,7,8
 478 86 478 86 476 39 c 2,9,-1
 473 10 l 2,10,11
 472 0 472 0 462 0 c 2,12,-1
 430 0 l 1,13,14
 438 58 438 58 438 100 c 0,15,16
 438 217 438 217 392.5 279 c 128,-1,17
 347 341 347 341 265 341 c 0,18,19
 182 341 182 341 135.5 287 c 128,-1,20
 89 233 89 233 89 143 c 0,21,22
 89 89 89 89 112.5 57 c 128,-1,23
 136 25 136 25 171 25 c 0,24,25
 204 25 204 25 221 41 c 128,-1,26
 238 57 238 57 238 86 c 0,27,28
 238 108 238 108 225.5 120.5 c 128,-1,29
 213 133 213 133 189 133 c 0,30,31
 167 133 167 133 152.5 123 c 128,-1,32
 138 113 138 113 125 94 c 1,33,34
 121 102 121 102 121 112 c 0,35,36
 121 132 121 132 143.5 149.5 c 128,-1,37
 166 167 166 167 198 167 c 0,38,39
 232 167 232 167 253 144.5 c 128,-1,40
 274 122 274 122 274 88 c 0,41,42
 274 42 274 42 244 16.5 c 128,-1,43
 214 -9 214 -9 165 -9 c 0,44,45
 111 -9 111 -9 79 32 c 128,-1,46
 47 73 47 73 47 140 c 0,47,48
 47 249 47 249 106.5 313 c 128,-1,49
 166 377 166 377 268 377 c 0,50,51
 343 377 343 377 394 334 c 128,-1,52
 445 291 445 291 462 216 c 1,53,54
 492 357 492 357 492 419 c 256,55,56
 492 481 492 481 451 515.5 c 128,-1,57
 410 550 410 550 331 550 c 0,58,59
 286 550 286 550 250 537.5 c 128,-1,60
 214 525 214 525 189.5 508 c 128,-1,61
 165 491 165 491 125 459 c 0,62,63
 115 451 115 451 109 451 c 256,64,65
 103 451 103 451 93 458.5 c 128,-1,66
 83 466 83 466 81 474 c 1,67,68
 123 522 123 522 185.5 554 c 128,-1,69
 248 586 248 586 334 586 c 0,70,0
 426 586 426 586 480.5 542 c 128,-1,1
EndSplineSet
EndChar

StartChar: uni0E26
Encoding: 3622 3622 474
Width: 630
GlyphClass: 2
Flags: W
AnchorPoint: "Anchor-12" 571 550 basechar 0
AnchorPoint: "Anchor-11" 462 -220 basechar 0
LayerCount: 2
Fore
SplineSet
502 366 m 2,0,1
 505 390 505 390 505 410 c 0,2,3
 505 488 505 488 457.5 519 c 128,-1,4
 410 550 410 550 329 550 c 0,5,6
 271 550 271 550 222.5 535.5 c 128,-1,7
 174 521 174 521 146 498 c 128,-1,8
 118 475 118 475 118 452 c 0,9,10
 118 433 118 433 135.5 418 c 128,-1,11
 153 403 153 403 174 395 c 128,-1,12
 195 387 195 387 203 387 c 0,13,14
 213 387 213 387 228 392 c 0,15,16
 250 398 250 398 263 398 c 0,17,18
 270 398 270 398 275.5 389 c 128,-1,19
 281 380 281 380 281 371 c 0,20,21
 281 366 281 366 280 362 c 128,-1,22
 279 358 279 358 277 358 c 0,23,24
 208 358 208 358 181.5 329.5 c 128,-1,25
 155 301 155 301 155 227 c 0,26,27
 155 206 155 206 159 170 c 0,28,29
 160 161 160 161 161 149 c 128,-1,30
 162 137 162 137 162 121 c 0,31,32
 162 61 162 61 131.5 26.5 c 128,-1,33
 101 -8 101 -8 49 -8 c 0,34,35
 12 -8 12 -8 -9.5 12.5 c 128,-1,36
 -31 33 -31 33 -31 66 c 0,37,38
 -31 96 -31 96 -17 118 c 128,-1,39
 -3 140 -3 140 17.5 151.5 c 128,-1,40
 38 163 38 163 57 163 c 0,41,42
 75 163 75 163 83.5 155.5 c 128,-1,43
 92 148 92 148 90 133 c 1,44,-1
 71 133 l 2,45,46
 40 133 40 133 22.5 115.5 c 128,-1,47
 5 98 5 98 5 69 c 0,48,49
 5 48 5 48 17.5 37 c 128,-1,50
 30 26 30 26 53 26 c 0,51,52
 122 26 122 26 122 122 c 0,53,54
 122 139 122 139 118 177 c 256,55,56
 114 215 114 215 114 237 c 0,57,58
 114 321 114 321 161 359 c 1,59,60
 126 371 126 371 98.5 395.5 c 128,-1,61
 71 420 71 420 71 448 c 0,62,63
 71 481 71 481 105.5 513 c 128,-1,64
 140 545 140 545 200.5 565.5 c 128,-1,65
 261 586 261 586 334 586 c 0,66,67
 427 586 427 586 487 545 c 128,-1,68
 547 504 547 504 547 411 c 0,69,70
 547 390 547 390 544 366 c 2,71,-1
 462 -220 l 1,72,-1
 420 -220 l 1,73,-1
 502 366 l 2,0,1
EndSplineSet
Substitution2: "Single Substitution lookup 14 subtable" uni0E26.short
Substitution2: "'aalt' Access All Alternates lookup 0 subtable" uni0E26.short
EndChar

StartChar: uni0E26.short
Encoding: 65544 -1 475
Width: 629
GlyphClass: 2
Flags: W
AnchorPoint: "Anchor-12" 570 550 basechar 0
AnchorPoint: "Anchor-11" 470 -160 basechar 0
LayerCount: 2
Fore
SplineSet
502 366 m 2,0,1
 505 390 505 390 505 410 c 0,2,3
 505 488 505 488 457.5 519 c 128,-1,4
 410 550 410 550 329 550 c 0,5,6
 271 550 271 550 222.5 535.5 c 128,-1,7
 174 521 174 521 146 498 c 128,-1,8
 118 475 118 475 118 452 c 0,9,10
 118 433 118 433 135.5 418 c 128,-1,11
 153 403 153 403 174 395 c 128,-1,12
 195 387 195 387 203 387 c 0,13,14
 213 387 213 387 228 392 c 0,15,16
 250 398 250 398 263 398 c 0,17,18
 270 398 270 398 275.5 389 c 128,-1,19
 281 380 281 380 281 371 c 0,20,21
 281 366 281 366 280 362 c 128,-1,22
 279 358 279 358 277 358 c 0,23,24
 208 358 208 358 181.5 329.5 c 128,-1,25
 155 301 155 301 155 227 c 0,26,27
 155 206 155 206 159 170 c 0,28,29
 160 161 160 161 161 149 c 128,-1,30
 162 137 162 137 162 121 c 0,31,32
 162 61 162 61 131.5 26.5 c 128,-1,33
 101 -8 101 -8 49 -8 c 0,34,35
 12 -8 12 -8 -9.5 12.5 c 128,-1,36
 -31 33 -31 33 -31 66 c 0,37,38
 -31 96 -31 96 -17 118 c 128,-1,39
 -3 140 -3 140 17.5 151.5 c 128,-1,40
 38 163 38 163 57 163 c 0,41,42
 75 163 75 163 83.5 155.5 c 128,-1,43
 92 148 92 148 90 133 c 1,44,-1
 71 133 l 2,45,46
 40 133 40 133 22.5 115.5 c 128,-1,47
 5 98 5 98 5 69 c 0,48,49
 5 48 5 48 17.5 37 c 128,-1,50
 30 26 30 26 53 26 c 0,51,52
 122 26 122 26 122 122 c 0,53,54
 122 139 122 139 118 177 c 256,55,56
 114 215 114 215 114 237 c 0,57,58
 114 321 114 321 161 359 c 1,59,60
 126 371 126 371 98.5 395.5 c 128,-1,61
 71 420 71 420 71 448 c 0,62,63
 71 481 71 481 105.5 513 c 128,-1,64
 140 545 140 545 200.5 565.5 c 128,-1,65
 261 586 261 586 334 586 c 0,66,67
 427 586 427 586 487 545 c 128,-1,68
 547 504 547 504 547 411 c 0,69,70
 547 390 547 390 544 366 c 2,71,-1
 470 -160 l 1,72,-1
 428 -160 l 1,73,-1
 502 366 l 2,0,1
EndSplineSet
EndChar

StartChar: uni0E27
Encoding: 3623 3623 476
Width: 528
GlyphClass: 2
Flags: W
AnchorPoint: "Anchor-12" 455 550 basechar 0
AnchorPoint: "Anchor-11" 378 0 basechar 0
LayerCount: 2
Fore
SplineSet
202.5 17.5 m 128,-1,1
 174 44 174 44 174 85 c 0,2,3
 174 134 174 134 203.5 161.5 c 128,-1,4
 233 189 233 189 275 189 c 0,5,6
 297 189 297 189 311.5 179.5 c 128,-1,7
 326 170 326 170 326 158 c 0,8,9
 326 154 326 154 324 148 c 1,10,11
 308 157 308 157 278 157 c 256,12,13
 248 157 248 157 229 139 c 128,-1,14
 210 121 210 121 210 90 c 0,15,16
 210 60 210 60 226.5 43.5 c 128,-1,17
 243 27 243 27 270 27 c 0,18,19
 343 27 343 27 355 113 c 2,20,-1
 393 387 l 2,21,22
 395 398 395 398 395 419 c 0,23,24
 395 482 395 482 359 516 c 128,-1,25
 323 550 323 550 260 550 c 0,26,27
 199 550 199 550 155.5 527 c 128,-1,28
 112 504 112 504 80 461 c 0,29,30
 74 453 74 453 66 453 c 0,31,32
 59 453 59 453 50 459.5 c 128,-1,33
 41 466 41 466 37 474 c 1,34,35
 79 525 79 525 133 555.5 c 128,-1,36
 187 586 187 586 265 586 c 0,37,38
 348 586 348 586 393 545.5 c 128,-1,39
 438 505 438 505 438 428 c 0,40,41
 438 410 438 410 435 387 c 2,42,-1
 396 111 l 2,43,44
 387 52 387 52 353 21.5 c 128,-1,45
 319 -9 319 -9 270 -9 c 0,46,0
 231 -9 231 -9 202.5 17.5 c 128,-1,1
EndSplineSet
EndChar

